<svg width="334" height="74" viewBox="0 0 334 74" fill="none" xmlns="http://www.w3.org/2000/svg">
<path d="M25.2188 7.03125C25.8229 7.03125 26.4062 7.30208 26.9688 7.84375C27.6979 8.42708 28.0625 8.98958 28.0625 9.53125V11L28.1562 11.2812L28.0625 11.3438L28.1562 12.0938L28.2812 18.1562H28.375L28.2812 18.2188L28.375 19.0312L28.2812 20.125L28.5 24.625L28.4375 25.375H28.5L28.4375 25.5938L28.5 25.9688L28.4375 26.1875L28.5938 27.8438V28.5L28.6562 28.8125L28.5938 29.0312L28.6562 29.375L28.5938 29.75L28.6562 30.0312L28.5938 30.25C28.6562 32.4583 28.7292 33.5625 28.8125 33.5625L28.7188 33.8438C28.9271 38.8229 29.1458 42.1354 29.375 43.7812L29.3125 43.8438V43.9062C29.625 47.3438 29.9688 50.0938 30.3438 52.1562L31.7812 54.0625C32.4688 54.4792 32.8125 54.9167 32.8125 55.375V55.9062C32.8125 56.1354 32.7396 56.25 32.5938 56.25V56.4688C32.9896 56.7188 33.1875 57.0104 33.1875 57.3438V57.5625L32.9688 58.3125L34.0625 59.625C36.3542 62 37.5 63.2604 37.5 63.4062L37.5625 63.8438L37.4062 64.2188L37.5 64.4375C37.3125 64.6875 37.1146 64.8125 36.9062 64.8125V64.7188L35.875 65.0938C34.9792 65.0938 33.9583 64.2917 32.8125 62.6875L29.9688 59.75C28.9896 59.75 28.3542 59.3646 28.0625 58.5938L28 58.2188L28.0625 57.9375V57.875L23.5312 52.6875L21.4375 49.9062C19.5 47.2812 18.25 45.3854 17.6875 44.2188C16.8125 43.1562 15.8646 41.625 14.8438 39.625C14.4688 39.1875 13.9167 38.3542 13.1875 37.125C11.5625 34.375 10.1667 32.1354 9 30.4062C8.77083 30.0729 8.60417 29.9062 8.5 29.9062V30.625L8.65625 36.4688V37.5625L8.71875 37.625L8.65625 37.7188L8.78125 39.75L8.71875 39.8438V39.9062L8.78125 40.5625V40.625L8.71875 41L8.9375 43.625L8.875 43.6875L9.09375 47.9375L9 48C9.20833 52.7083 9.57292 55.3438 10.0938 55.9062C10.6771 56.9062 10.9688 57.5833 10.9688 57.9375C10.7396 58.5417 10.5521 58.8542 10.4062 58.875L10.4688 59.25C10.2812 59.6875 10.0417 60.0521 9.75 60.3438L9.375 60.2812L9.09375 60.4062C7.96875 60.4062 7.23958 59.8542 6.90625 58.75L5.5 52.6875C5.3125 52 5.07292 50.5833 4.78125 48.4375C4.67708 48.2708 4.45833 46.6667 4.125 43.625C4.0625 43.625 4.01042 43.4792 3.96875 43.1875L4.03125 42.8125L3.90625 42.25L3.96875 41.6562C3.90625 40.8229 3.78125 40.1458 3.59375 39.625L3.6875 39.3125L3.46875 37.625L3.53125 37.4062C3.40625 37.0312 3.13542 34.0208 2.71875 28.375L2.65625 28.2812L2.59375 28.0625L2.65625 28L2.4375 27.0625L2.5 26.8438L1.125 18.2188L1.1875 18L1.125 17.6875C1.64583 16.375 2.15625 15.7188 2.65625 15.7188L3.09375 15.8125L3.375 15.7188C4.08333 15.8229 4.84375 16.2396 5.65625 16.9688C6.40625 16.9688 7.08333 17.3854 7.6875 18.2188C9.64583 20.6562 11.4792 23.3542 13.1875 26.3125C16.0625 31.375 19.25 36.4167 22.75 41.4375L24.1875 43.625L25.5938 45.4375H25.7188L25.8125 45.2188L25.6562 43.25H25.5938L25.6562 43.1875V42.5312L25.4375 40.3438H25.375L25.4375 39.9688V39.6875C25.4375 39.4375 25.3854 39.3125 25.2812 39.3125L25.375 39.0938L25.2812 38.0625L25.375 38V37.9375L25 35.6562C25.1042 35.3646 25.1562 34.9062 25.1562 34.2812H25.0625L25.1562 34.0625C25.1562 33.8125 25.1042 33.6875 25 33.6875L25.0625 33.3438V33.25L24.8438 32.5312L24.9375 32.0938V31.9375L24.7188 30.7812L24.7812 30.25L24.7188 29.25L24.7812 29.1562V29.0938L24.5 27.5L24.625 27.0625L24.5 25.5938V25.5312L24.4062 25.4375L24.5 25.375V25.3125C24.1458 20.7083 23.9479 17.125 23.9062 14.5625H23.8438L23.9062 14.5L23.6875 12.3125L23.75 12L23.625 11.6562L23.6875 11.5625V11.5L23.4688 9.09375V8.9375L23.3125 8.71875V8.21875C23.5625 7.42708 24.1979 7.03125 25.2188 7.03125ZM47.5 26.9375C49.8542 27.3958 51.5625 28.1979 52.625 29.3438C52.75 29.3438 52.8229 29.8333 52.8438 30.8125L52.75 31.2812C54.0208 31.2812 55.4688 32.6458 57.0938 35.375C57.6771 36.2292 58.0521 37.1458 58.2188 38.125C58.9062 39.375 59.25 40.4062 59.25 41.2188L59.125 41.6562L59.8125 44.5312L59.5938 45.1875L59.7188 46.4688V46.8125L59.375 49.7812L59.4688 49.875V50C58.8646 52.6458 57.4167 55.1562 55.125 57.5312C53.125 58.9688 51.0729 59.6875 48.9688 59.6875L48.875 59.8125C47.2708 59.8125 45.2083 59.2812 42.6875 58.2188C39.1875 56.0521 36.6458 52.8125 35.0625 48.5L34.25 44.9688L34.375 44.8438L34.25 44.2812V43.375C34.25 42.4792 34.9688 40.1562 36.4062 36.4062H36.3125C36.9167 34.7396 37.4896 33.6354 38.0312 33.0938C38.8646 30.9271 40.5729 29.1458 43.1562 27.75C44.2396 27.2083 45.6875 26.9375 47.5 26.9375ZM41.0938 43.1562C41.0938 49.1354 42.7708 53.0521 46.125 54.9062L46.8125 55.0312C50.2083 55.0312 52.4167 51.8333 53.4375 45.4375V44.9688C53.4375 43.5938 52.4062 41.1979 50.3438 37.7812C50.1771 37.7812 49.3438 36.6042 47.8438 34.25H47.5938C44.9688 35.0625 43.3021 35.9688 42.5938 36.9688C41.5938 39.0521 41.0938 41.1146 41.0938 43.1562ZM73.4375 27.0938L73.8125 27.1875H74.0312V27.0938C76.7396 27.0938 79.1667 28.4896 81.3125 31.2812C81.4167 31.9062 81.5833 32.3438 81.8125 32.5938C81.8125 33.4271 81.2812 34.0208 80.2188 34.375L79.625 34.4688C78.1042 33.6771 76.5417 33.2812 74.9375 33.2812C72.375 33.2812 70.1771 34.7083 68.3438 37.5625C68.3854 37.7708 68.7812 38.0104 69.5312 38.2812C69.7812 38.5521 71.5417 39.1146 74.8125 39.9688C79.125 40.6771 81.8958 41.375 83.125 42.0625C84.625 42.625 86.1875 43.7604 87.8125 45.4688C88.6042 46.6562 89 48.0521 89 49.6562V49.9688C89 50.8646 88.5 52.2292 87.5 54.0625C85.6042 56.1875 83.9792 57.5104 82.625 58.0312C79.5208 59.1771 76.8854 59.75 74.7188 59.75L74.625 59.8438H74.5312L74.4375 59.75H74.3125L73.2188 59.8438H72.4375L72.3438 59.9375L72.2188 59.8438H71.0312C66.1354 59.8438 62.8125 57.9167 61.0625 54.0625C60.9167 54.0625 60.8125 53.7604 60.75 53.1562L60.9375 52.9375L61.75 53.4375H62.0625V53.25H62.25C62.5417 53.25 63.2396 53.7188 64.3438 54.6562H64.6562V54.0625L64.5312 53.6562C64.6979 53.1354 64.9688 52.7292 65.3438 52.4375C65.3438 51.8125 65.6042 51.3542 66.125 51.0625L66.625 49.75H66.8438L66.9375 50.25H67.0312L67.8438 50.0625H68.125C68.7292 50.2708 69.0312 50.7708 69.0312 51.5625C69.0312 52.1458 69.1979 52.5729 69.5312 52.8438L69.4375 54.0625C70.0208 54.5 71.5833 54.8646 74.125 55.1562L74.2188 55.0312L74.9375 55.1562C77.2083 55.1562 79.3958 54.5833 81.5 53.4375C82.9792 52.1875 83.7188 51.0625 83.7188 50.0625C83.7188 48.7917 82.2812 47.2917 79.4062 45.5625L77.9062 44.9688C77.9062 44.5729 76.6146 44.1354 74.0312 43.6562C70.6979 43.4062 68.2708 42.9792 66.75 42.375C64.3542 41 63.1562 39.4375 63.1562 37.6875L62.5312 35.375C62.5312 31.2708 66 28.5417 72.9375 27.1875L73.4375 27.0938ZM102.25 27.0938L102.625 27.1875H102.844V27.0938C105.552 27.0938 107.979 28.4896 110.125 31.2812C110.229 31.9062 110.396 32.3438 110.625 32.5938C110.625 33.4271 110.094 34.0208 109.031 34.375L108.438 34.4688C106.917 33.6771 105.354 33.2812 103.75 33.2812C101.188 33.2812 98.9896 34.7083 97.1562 37.5625C97.1979 37.7708 97.5938 38.0104 98.3438 38.2812C98.5938 38.5521 100.354 39.1146 103.625 39.9688C107.938 40.6771 110.708 41.375 111.938 42.0625C113.438 42.625 115 43.7604 116.625 45.4688C117.417 46.6562 117.812 48.0521 117.812 49.6562V49.9688C117.812 50.8646 117.312 52.2292 116.312 54.0625C114.417 56.1875 112.792 57.5104 111.438 58.0312C108.333 59.1771 105.698 59.75 103.531 59.75L103.438 59.8438H103.344L103.25 59.75H103.125L102.031 59.8438H101.25L101.156 59.9375L101.031 59.8438H99.8438C94.9479 59.8438 91.625 57.9167 89.875 54.0625C89.7292 54.0625 89.625 53.7604 89.5625 53.1562L89.75 52.9375L90.5625 53.4375H90.875V53.25H91.0625C91.3542 53.25 92.0521 53.7188 93.1562 54.6562H93.4688V54.0625L93.3438 53.6562C93.5104 53.1354 93.7812 52.7292 94.1562 52.4375C94.1562 51.8125 94.4167 51.3542 94.9375 51.0625L95.4375 49.75H95.6562L95.75 50.25H95.8438L96.6562 50.0625H96.9375C97.5417 50.2708 97.8438 50.7708 97.8438 51.5625C97.8438 52.1458 98.0104 52.5729 98.3438 52.8438L98.25 54.0625C98.8333 54.5 100.396 54.8646 102.938 55.1562L103.031 55.0312L103.75 55.1562C106.021 55.1562 108.208 54.5833 110.312 53.4375C111.792 52.1875 112.531 51.0625 112.531 50.0625C112.531 48.7917 111.094 47.2917 108.219 45.5625L106.719 44.9688C106.719 44.5729 105.427 44.1354 102.844 43.6562C99.5104 43.4062 97.0833 42.9792 95.5625 42.375C93.1667 41 91.9688 39.4375 91.9688 37.6875L91.3438 35.375C91.3438 31.2708 94.8125 28.5417 101.75 27.1875L102.25 27.0938ZM129.938 27.125C131.208 27.2083 131.844 27.5417 131.844 28.125C133.219 31.2292 134.49 35.0729 135.656 39.6562C135.802 40.7604 135.958 41.3125 136.125 41.3125L136.75 41.25C137 41.25 137.125 41.3021 137.125 41.4062L137.188 41.3125H137.281C137.927 41.3125 138.333 41.7708 138.5 42.6875C138.5 43.3333 137.885 43.9479 136.656 44.5312H136.594C137.385 50.0938 138.271 54.3125 139.25 57.1875L139.344 57.5625C139.094 58.3333 138.604 58.7188 137.875 58.7188C137.875 58.7812 137.698 58.8333 137.344 58.875C137.344 59.2708 137.146 59.4688 136.75 59.4688L135.906 59.4062L135.812 59.4688H135.75C135.562 59.4688 135.104 58.7083 134.375 57.1875C133.604 55.375 133.042 53.3125 132.688 51L132.781 50.4688C132.615 50.1979 132.406 49.3333 132.156 47.875L132.094 47.8125H132L129.094 49.0938C127.531 49.6146 126.75 50.0521 126.75 50.4062C126.104 52.9479 125.615 54.2188 125.281 54.2188C124.573 54.4271 124.219 55.0833 124.219 56.1875L123.312 61.1562C123 61.4688 122.771 61.625 122.625 61.625L122.531 61.5312H122.469L121.938 61.6875L121.844 61.4688H121.562L121.469 61.5312H121.406L121.094 60.7188C121.094 58.8438 121.604 55.7083 122.625 51.3125L122.531 51.25H122.469L120.406 51.5625H119.875C119 51.1875 118.562 50.7708 118.562 50.3125L118.5 50.0938C118.854 49.3438 119.292 48.9688 119.812 48.9688C119.875 48.7812 120.458 48.625 121.562 48.5L121.625 48.4062V48.3438L121.469 47.875V47.8125C121.469 47.0417 122.281 46.3021 123.906 45.5938C124.198 45.3229 124.406 44.8125 124.531 44.0625C124.656 43.9375 124.885 42.8229 125.219 40.7188C125.99 38.4271 126.677 34.5312 127.281 29.0312C127.76 28.3229 128.219 27.9688 128.656 27.9688C128.781 27.7396 129.208 27.4583 129.938 27.125ZM129.875 36.6562C129.458 37.7396 129 40.0104 128.5 43.4688H128.656C129.99 43.1146 130.854 42.8021 131.25 42.5312C130.542 38.7396 130.104 36.7812 129.938 36.6562H129.875ZM152.688 27.0938L153.062 27.1875H153.281V27.0938C155.99 27.0938 158.417 28.4896 160.562 31.2812C160.667 31.9062 160.833 32.3438 161.062 32.5938C161.062 33.4271 160.531 34.0208 159.469 34.375L158.875 34.4688C157.354 33.6771 155.792 33.2812 154.188 33.2812C151.625 33.2812 149.427 34.7083 147.594 37.5625C147.635 37.7708 148.031 38.0104 148.781 38.2812C149.031 38.5521 150.792 39.1146 154.062 39.9688C158.375 40.6771 161.146 41.375 162.375 42.0625C163.875 42.625 165.438 43.7604 167.062 45.4688C167.854 46.6562 168.25 48.0521 168.25 49.6562V49.9688C168.25 50.8646 167.75 52.2292 166.75 54.0625C164.854 56.1875 163.229 57.5104 161.875 58.0312C158.771 59.1771 156.135 59.75 153.969 59.75L153.875 59.8438H153.781L153.688 59.75H153.562L152.469 59.8438H151.688L151.594 59.9375L151.469 59.8438H150.281C145.385 59.8438 142.062 57.9167 140.312 54.0625C140.167 54.0625 140.062 53.7604 140 53.1562L140.188 52.9375L141 53.4375H141.312V53.25H141.5C141.792 53.25 142.49 53.7188 143.594 54.6562H143.906V54.0625L143.781 53.6562C143.948 53.1354 144.219 52.7292 144.594 52.4375C144.594 51.8125 144.854 51.3542 145.375 51.0625L145.875 49.75H146.094L146.188 50.25H146.281L147.094 50.0625H147.375C147.979 50.2708 148.281 50.7708 148.281 51.5625C148.281 52.1458 148.448 52.5729 148.781 52.8438L148.688 54.0625C149.271 54.5 150.833 54.8646 153.375 55.1562L153.469 55.0312L154.188 55.1562C156.458 55.1562 158.646 54.5833 160.75 53.4375C162.229 52.1875 162.969 51.0625 162.969 50.0625C162.969 48.7917 161.531 47.2917 158.656 45.5625L157.156 44.9688C157.156 44.5729 155.865 44.1354 153.281 43.6562C149.948 43.4062 147.521 42.9792 146 42.375C143.604 41 142.406 39.4375 142.406 37.6875L141.781 35.375C141.781 31.2708 145.25 28.5417 152.188 27.1875L152.688 27.0938ZM194.5 12.4062C195.958 12.4062 197.062 13.1979 197.812 14.7812C198.667 16.0104 199.49 17.7188 200.281 19.9062C200.448 20.0104 201.302 22.2188 202.844 26.5312L205.406 34.2188L205.688 34.3125L210.062 32.875L211.188 32.6875L211.469 32.7812L212.25 32.5L212.906 32.7812V32.6875L213.656 33.2812H214.031L218.688 31.6562C220.583 32.4062 221.531 33.2292 221.531 34.125C221.531 35.5208 220.99 36.2188 219.906 36.2188C217.698 36.5729 216.594 36.9479 216.594 37.3438L216.219 37.25C213.302 38.4167 210.49 39.7396 207.781 41.2188C210.365 49.8229 211.917 54.7604 212.438 56.0312C212.75 56.9479 213.312 57.9271 214.125 58.9688L214.312 60.0938V60.1875C213.854 60.9583 213.354 61.4062 212.812 61.5312L212.719 61.625L211.562 61.5312H210.531C209.927 60.9479 209.323 59.7396 208.719 57.9062C208.302 56.6562 207.865 56.0312 207.406 56.0312C206.198 53.6354 204.833 49.5521 203.312 43.7812L203.219 43.6875H203.031C201.302 44.6042 198.146 46.5625 193.562 49.5625C193 49.75 192.719 50.1667 192.719 50.8125C192.24 55.5417 191.823 57.9062 191.469 57.9062C191.177 58.1771 190.865 58.3125 190.531 58.3125L190.438 58.4062V59.5312C190.438 60.0312 189.958 60.5417 189 61.0625C188.062 61.0625 187.021 60.6458 185.875 59.8125L185.781 59.3438V59.0625C185.969 58.5208 186.354 55.9896 186.938 51.4688C186.042 50.4896 185.594 49.8542 185.594 49.5625L185.406 49.1875C185.635 48.1042 186.302 47.4479 187.406 47.2188L187.594 46.3438V46.1562C187.344 45.8854 187.219 45.6354 187.219 45.4062C187.219 45.0729 187.438 44.7292 187.875 44.375C188.5 40.3542 189.167 35.3229 189.875 29.2812L189.781 29.1875L190.156 26.0625L190.062 25.9688V25.875L190.438 23.0312L190.344 22.75L190.906 16.875L190.812 16.7812V16.6875C190.917 16.5625 191.01 15.8333 191.094 14.5L191 14.2188C191.188 13.1354 191.667 12.5938 192.438 12.5938L193.375 12.5V12.5938L193.469 12.5H193.562L193.938 12.5938L194.5 12.4062ZM193.938 36.0312L193.844 36.3125L193.938 36.4062V36.5L193.75 40.2812H194.031C194.656 39.8021 195.635 39.1667 196.969 38.375L197.25 38L197.344 38.0938H197.438L201.344 36.3125V35.9375L200.875 35.5312L200.688 35.0625L200.781 34.9688V34.875C200.781 34.6042 200.615 34.3854 200.281 34.2188C200.281 33.6146 199.812 32.3125 198.875 30.3125C197.708 27.4375 196.438 24.6562 195.062 21.9688C194.625 21.9688 194.25 26.6562 193.938 36.0312ZM235.375 27.125C237.104 27.2917 238.812 27.8854 240.5 28.9062C240.875 29.3229 241.365 30.1562 241.969 31.4062L241.844 31.5V31.625L241.969 32.0312C241.531 33.0104 240.802 33.5 239.781 33.5C238.552 33.2083 237.5 32.5833 236.625 31.625C236 31.4167 234.958 31.2396 233.5 31.0938C232.271 31.3021 230.5 32.7604 228.188 35.4688C227.708 37.6562 227.396 39.4375 227.25 40.8125C227.938 44.25 228.802 47.6146 229.844 50.9062C230.406 52.4479 230.969 53.2188 231.531 53.2188C232.76 54.1146 234.01 54.875 235.281 55.5C238.719 54.2917 241.365 52.4896 243.219 50.0938C243.448 50.0938 243.896 49.6042 244.562 48.625C244.958 48.0625 245.656 47.7812 246.656 47.7812L246.844 48L247.281 47.9062C247.698 47.9062 247.979 48.3229 248.125 49.1562V49.6562C247.938 50.8021 247.031 52.2604 245.406 54.0312C244.969 55.1562 244.479 55.8229 243.938 56.0312C241.271 58.5521 238.625 59.9792 236 60.3125L235.188 60.4062L232.062 60.0938L231.531 60.1875C228.823 59.5 227.188 58.9479 226.625 58.5312C224.292 57.4688 222.312 54.8958 220.688 50.8125C220.688 50.125 220.479 49.2188 220.062 48.0938L220.156 47.7812C219.948 46.8021 219.844 45.625 219.844 44.25V43.0938C220.448 38.8229 221.354 35.6562 222.562 33.5938L222.438 33.2812C223 33.0521 223.281 32.7083 223.281 32.25C225.427 29.9375 227.51 28.5417 229.531 28.0625L234.344 27.25L234.438 27.3438H234.562L235.375 27.125ZM260.75 26.9375C263.104 27.3958 264.812 28.1979 265.875 29.3438C266 29.3438 266.073 29.8333 266.094 30.8125L266 31.2812C267.271 31.2812 268.719 32.6458 270.344 35.375C270.927 36.2292 271.302 37.1458 271.469 38.125C272.156 39.375 272.5 40.4062 272.5 41.2188L272.375 41.6562L273.062 44.5312L272.844 45.1875L272.969 46.4688V46.8125L272.625 49.7812L272.719 49.875V50C272.115 52.6458 270.667 55.1562 268.375 57.5312C266.375 58.9688 264.323 59.6875 262.219 59.6875L262.125 59.8125C260.521 59.8125 258.458 59.2812 255.938 58.2188C252.438 56.0521 249.896 52.8125 248.312 48.5L247.5 44.9688L247.625 44.8438L247.5 44.2812V43.375C247.5 42.4792 248.219 40.1562 249.656 36.4062H249.562C250.167 34.7396 250.74 33.6354 251.281 33.0938C252.115 30.9271 253.823 29.1458 256.406 27.75C257.49 27.2083 258.938 26.9375 260.75 26.9375ZM254.344 43.1562C254.344 49.1354 256.021 53.0521 259.375 54.9062L260.062 55.0312C263.458 55.0312 265.667 51.8333 266.688 45.4375V44.9688C266.688 43.5938 265.656 41.1979 263.594 37.7812C263.427 37.7812 262.594 36.6042 261.094 34.25H260.844C258.219 35.0625 256.552 35.9688 255.844 36.9688C254.844 39.0521 254.344 41.1146 254.344 43.1562ZM291.844 27.0625L291.969 27.1562H292.75L292.844 27.0625L293.125 27.1562L293.625 27.0625C295.104 27.2083 296.01 27.5 296.344 27.9375H296.562V27.8438L297.344 28.0312V28.125L297.219 28.25C296.635 28.4583 296.344 28.6458 296.344 28.8125L297.031 28.9062V29.125C297.031 29.4583 296.219 29.7812 294.594 30.0938C294.031 30.3646 292.854 30.6562 291.062 30.9688C287.542 31.8646 285.781 32.4167 285.781 32.625L285.906 32.7188H286C293.729 31.3021 298.844 30.5938 301.344 30.5938H301.844C303.469 30.9479 304.281 31.5625 304.281 32.4375L304.375 32.9375V33.0312C304.375 33.3229 304.146 33.6458 303.688 34C303.688 34.3333 301.76 34.6562 297.906 34.9688C294.99 35.4271 291.438 36.0833 287.25 36.9375C287.25 37.0625 286.896 37.125 286.188 37.125L285.312 37.4375C285.104 39.1042 285 40.7604 285 42.4062V42.7188L285.312 43L294 41.0312L294.094 41.1562L297.344 40.75L298.312 40.8438H298.594C298.74 40.9688 299 41.0312 299.375 41.0312C300.479 41.9479 301.135 42.4062 301.344 42.4062L301.625 42.9062C301.75 43.3646 301.854 43.5938 301.938 43.5938C301.646 44.4062 300.99 45.0208 299.969 45.4375C296.365 46.4792 292.646 47.2917 288.812 47.875C286.021 48.5417 284.625 49.1979 284.625 49.8438V50.3438C284.625 51.5938 284.562 52.5312 284.438 53.1562L284.625 53.5625L284.531 53.6562V54.0625L284.719 54.25H284.906C286.719 53.9167 288.844 53.4271 291.281 52.7812L291.375 52.875H291.469C292.052 52.8125 292.542 52.6875 292.938 52.5C294.104 52.5 295.052 52.3958 295.781 52.1875L296.344 52.5H296.562C296.792 52.2917 297.01 52.1875 297.219 52.1875H297.438C297.562 52.1875 297.625 52.2917 297.625 52.5C298.812 52.2917 300.312 51.8958 302.125 51.3125L303.312 51.2188C304.938 51.4688 305.75 51.9896 305.75 52.7812L305.938 53.5625C305.458 54.5417 304.906 55.0312 304.281 55.0312C303.677 55.2604 302.302 55.5208 300.156 55.8125C294.01 57.0417 290.49 57.8542 289.594 58.25C289.26 58.25 287.927 58.8021 285.594 59.9062C284.448 60.5104 283.667 60.8125 283.25 60.8125L281.594 60.2188L279.531 61.0938C277.635 60.7396 276.688 60.1562 276.688 59.3438C276.583 59.3438 276.49 59.0833 276.406 58.5625L276.5 57.9688L276.406 57.5625L277.281 56.0938C277.552 51.4896 277.812 48.5312 278.062 47.2188L277.969 46.8125L278.656 38.7812C278.656 38.5938 278.031 38.1146 276.781 37.3438C276.406 36.8229 276.219 36.3646 276.219 35.9688C276.26 35.6354 276.49 35.2396 276.906 34.7812C276.906 34.6771 276.417 34.5208 275.438 34.3125C274.583 33.7083 274.156 33.1771 274.156 32.7188V32.3438C274.156 31.1771 274.646 30.4896 275.625 30.2812L275.906 30.1875L276 30.2812H276.125C278.25 29.9688 281.802 29.1875 286.781 27.9375L291.844 27.0625ZM285.312 32.625L285.219 32.7188V32.9375H285.312L285.5 32.7188L285.406 32.625H285.312ZM317.938 27.0938L318.312 27.1875H318.531V27.0938C321.24 27.0938 323.667 28.4896 325.812 31.2812C325.917 31.9062 326.083 32.3438 326.312 32.5938C326.312 33.4271 325.781 34.0208 324.719 34.375L324.125 34.4688C322.604 33.6771 321.042 33.2812 319.438 33.2812C316.875 33.2812 314.677 34.7083 312.844 37.5625C312.885 37.7708 313.281 38.0104 314.031 38.2812C314.281 38.5521 316.042 39.1146 319.312 39.9688C323.625 40.6771 326.396 41.375 327.625 42.0625C329.125 42.625 330.688 43.7604 332.312 45.4688C333.104 46.6562 333.5 48.0521 333.5 49.6562V49.9688C333.5 50.8646 333 52.2292 332 54.0625C330.104 56.1875 328.479 57.5104 327.125 58.0312C324.021 59.1771 321.385 59.75 319.219 59.75L319.125 59.8438H319.031L318.938 59.75H318.812L317.719 59.8438H316.938L316.844 59.9375L316.719 59.8438H315.531C310.635 59.8438 307.312 57.9167 305.562 54.0625C305.417 54.0625 305.312 53.7604 305.25 53.1562L305.438 52.9375L306.25 53.4375H306.562V53.25H306.75C307.042 53.25 307.74 53.7188 308.844 54.6562H309.156V54.0625L309.031 53.6562C309.198 53.1354 309.469 52.7292 309.844 52.4375C309.844 51.8125 310.104 51.3542 310.625 51.0625L311.125 49.75H311.344L311.438 50.25H311.531L312.344 50.0625H312.625C313.229 50.2708 313.531 50.7708 313.531 51.5625C313.531 52.1458 313.698 52.5729 314.031 52.8438L313.938 54.0625C314.521 54.5 316.083 54.8646 318.625 55.1562L318.719 55.0312L319.438 55.1562C321.708 55.1562 323.896 54.5833 326 53.4375C327.479 52.1875 328.219 51.0625 328.219 50.0625C328.219 48.7917 326.781 47.2917 323.906 45.5625L322.406 44.9688C322.406 44.5729 321.115 44.1354 318.531 43.6562C315.198 43.4062 312.771 42.9792 311.25 42.375C308.854 41 307.656 39.4375 307.656 37.6875L307.031 35.375C307.031 31.2708 310.5 28.5417 317.438 27.1875L317.938 27.0938Z" fill="#3E3E3E"/>
<path d="M227.087 63.315L229.611 60.4066L232.975 57.889L235.599 58.3453L234.021 60.9283L230.127 67.0276L228.97 68.7857L225.399 68.6549L226.032 66.3974L227.087 63.315Z" fill="#3E3E3E"/>
<path d="M259.028 18.5383L262.867 18.8423L266.89 20.054L268.081 22.4369L265.065 22.7004L257.846 23.1892L255.744 23.3018L253.729 20.3514L255.921 19.5203L259.028 18.5383Z" fill="#3E3E3E"/>
</svg>
