<svg width="715" height="405" viewBox="0 0 715 405" fill="none" xmlns="http://www.w3.org/2000/svg">
<path d="M47.8376 145.251C43.0119 150.222 36.2279 152.708 27.4857 152.708C18.8133 152.708 12.0643 150.222 7.23859 145.251C2.41286 140.21 0 133.103 0 123.931V98.5145H17.8342V120.885C17.8342 126.486 18.4986 130.477 19.8274 132.858C21.2262 135.239 23.6391 136.429 27.066 136.429C30.6329 136.429 33.1157 135.239 34.5144 132.858C35.9132 130.477 36.6126 126.486 36.6126 120.885V101.14C36.6126 93.7183 33.7451 88.1169 28.0102 84.336L16.3655 76.8791C10.4907 73.1682 6.29443 68.8971 3.77666 64.0659C1.25889 59.2347 0 53.1782 0 45.8964V28.042C0 19.2898 2.30796 12.4281 6.92387 7.45685C11.6097 2.48562 18.1839 0 26.6464 0C35.1089 0 41.6831 2.45061 46.3689 7.35183C51.1247 12.253 53.5026 19.1498 53.5026 28.042V46.9467H35.6684V30.5626C35.6684 25.3813 35.004 21.7404 33.6752 19.6399C32.4163 17.4693 30.2132 16.3841 27.066 16.3841C23.9188 16.3841 21.6808 17.4693 20.352 19.6399C19.0931 21.7404 18.4636 25.3813 18.4636 30.5626V44.7411C18.4636 52.163 21.3311 57.7644 27.066 61.5453L38.7107 69.1072C44.5855 72.8181 48.7818 77.0892 51.2996 81.9204C53.8174 86.6815 55.0762 92.738 55.0762 100.09V123.931C55.0762 133.103 52.6634 140.21 47.8376 145.251Z" fill="black"/>
<path d="M115.398 145.251C110.642 150.222 104.033 152.708 95.5704 152.708C87.1079 152.708 80.4638 150.222 75.638 145.251C70.8822 140.21 68.5043 133.243 68.5043 124.351V2.20555H86.968V121.62C86.968 127.082 87.5975 130.933 88.8563 133.173C90.1852 135.344 92.4931 136.429 95.7802 136.429C99.0673 136.429 101.34 135.309 102.599 133.068C103.928 130.828 104.592 127.012 104.592 121.62V2.20555H122.636V124.351C122.636 133.243 120.224 140.21 115.398 145.251Z" fill="black"/>
<path d="M133.652 150.607L150.856 2.20555H175.51L192.714 150.607H174.041L170.579 116.159H154.738L151.276 150.607H133.652ZM155.997 100.3H169.32L162.816 22.7907H162.396L155.997 100.3Z" fill="black"/>
<path d="M233.418 150.607V2.20555H280.836V18.0645H251.882V62.8056H277.06V78.7696H251.882V134.643H280.836V150.607H233.418Z" fill="black"/>
<path d="M293.635 150.607V2.20555H322.17L334.654 93.9984H335.073L347.557 2.20555H377.456V150.607H359.202V21.1102H358.677L341.053 150.607H328.045L310.42 21.1102H310.001V150.607H293.635Z" fill="black"/>
<path d="M394.136 150.607V2.20555H421.622C440.225 2.20555 449.527 11.8679 449.527 31.1928V53.1432C449.527 72.468 440.225 82.1654 421.622 82.2354H412.6V150.607H394.136ZM412.6 66.2715H419.733C424.349 66.2715 427.392 65.2212 428.86 63.1207C430.329 60.9501 431.063 56.7841 431.063 50.6226V33.8184C431.063 27.6569 430.294 23.4908 428.755 21.3203C427.287 19.1498 424.279 18.0645 419.733 18.0645H412.6V66.2715Z" fill="black"/>
<path d="M462.745 150.607V2.20555H489.602C508.205 2.20555 517.507 11.8679 517.507 31.1928V47.1567C517.507 59.6198 513.555 67.6368 505.652 71.2077V71.6278C513.555 75.1987 517.507 83.1807 517.507 95.5738V150.607H499.043V95.9939C499.043 89.8323 498.064 85.6663 496.106 83.4957C494.217 81.3252 490.686 80.2399 485.51 80.2399H481.209V150.607H462.745ZM481.209 64.381H487.608C492.224 64.381 495.267 63.2957 496.735 61.1252C498.274 58.9547 499.043 54.7886 499.043 48.6271V33.8184C499.043 27.6569 498.274 23.4908 496.735 21.3203C495.267 19.1498 492.224 18.0645 487.608 18.0645H481.209V64.381Z" fill="black"/>
<path d="M533.243 150.607V2.20555H580.661V18.0645H551.707V62.8056H576.884V78.7696H551.707V134.643H580.661V150.607H533.243Z" fill="black"/>
<path d="M639.514 145.251C634.688 150.222 627.904 152.708 619.162 152.708C610.489 152.708 603.74 150.222 598.915 145.251C594.089 140.21 591.676 133.103 591.676 123.931V98.5145H609.51V120.885C609.51 126.486 610.175 130.477 611.504 132.858C612.902 135.239 615.315 136.429 618.742 136.429C622.309 136.429 624.792 135.239 626.191 132.858C627.589 130.477 628.289 126.486 628.289 120.885V101.14C628.289 93.7183 625.421 88.1169 619.686 84.336L608.042 76.8791C602.167 73.1682 597.971 68.8971 595.453 64.0659C592.935 59.2347 591.676 53.1782 591.676 45.8964V28.042C591.676 19.2898 593.984 12.4281 598.6 7.45685C603.286 2.48562 609.86 0 618.323 0C626.785 0 633.359 2.45061 638.045 7.35183C642.801 12.253 645.179 19.1498 645.179 28.042V46.9467H627.345V30.5626C627.345 25.3813 626.68 21.7404 625.351 19.6399C624.092 17.4693 621.889 16.3841 618.742 16.3841C615.595 16.3841 613.357 17.4693 612.028 19.6399C610.769 21.7404 610.14 25.3813 610.14 30.5626V44.7411C610.14 52.163 613.007 57.7644 618.742 61.5453L630.387 69.1072C636.262 72.8181 640.458 77.0892 642.976 81.9204C645.493 86.6815 646.752 92.738 646.752 100.09V123.931C646.752 133.103 644.339 140.21 639.514 145.251Z" fill="black"/>
<path d="M655.879 150.607L673.084 2.20555H697.737L714.942 150.607H696.268L692.807 116.159H676.966L673.504 150.607H655.879ZM678.225 100.3H691.548L685.043 22.7907H684.624L678.225 100.3Z" fill="black"/>
<path d="M2.05573 307.732V165.646H24.4545L41.9316 255.644H42.3334V165.646H58.0025V307.732H39.1192L18.1266 198.829H17.7248V307.732H2.05573Z" fill="#671DF7"/>
<path d="M118.469 302.604C113.916 307.364 107.588 309.744 99.4854 309.744C91.383 309.744 85.0216 307.364 80.4013 302.604C75.8478 297.777 73.5711 291.107 73.5711 282.593V165.646H91.2491V279.979C91.2491 285.208 91.8518 288.895 93.0571 291.04C94.3294 293.118 96.5391 294.157 99.6863 294.157C102.834 294.157 105.01 293.085 106.215 290.939C107.487 288.794 108.124 285.141 108.124 279.979V165.646H125.4V282.593C125.4 291.107 123.09 297.777 118.469 302.604Z" fill="#671DF7"/>
<path d="M141.069 307.732V165.646H163.468L180.945 255.644H181.346V165.646H197.016V307.732H178.132L157.14 198.829H156.738V307.732H141.069Z" fill="#671DF7"/>
<path d="M237.695 309.744C229.593 309.744 223.265 307.431 218.711 302.805C214.225 298.112 211.982 291.509 211.982 282.995V190.383C211.982 181.869 214.225 175.265 218.711 170.573C223.265 165.88 229.593 163.534 237.695 163.534C245.931 163.534 252.293 165.88 256.779 170.573C261.333 175.265 263.609 181.869 263.609 190.383V213.812H246.534V192.796C246.534 187.835 245.864 184.349 244.525 182.338C243.253 180.26 241.11 179.221 238.097 179.221C235.083 179.221 232.907 180.26 231.568 182.338C230.296 184.349 229.66 187.835 229.66 192.796V280.582C229.66 285.543 230.296 289.062 231.568 291.141C232.907 293.152 235.083 294.157 238.097 294.157C241.11 294.157 243.253 293.118 244.525 291.04C245.864 288.962 246.534 285.476 246.534 280.582V252.527H263.609V282.995C263.609 291.509 261.333 298.112 256.779 302.805C252.293 307.431 245.931 309.744 237.695 309.744Z" fill="#671DF7"/>
<path d="M272.951 307.732L289.423 165.646H313.027L329.5 307.732H311.621L308.306 274.75H293.139L289.825 307.732H272.951ZM294.345 259.566H307.101L300.874 185.355H300.472L294.345 259.566Z" fill="#671DF7"/>
<path d="M368.472 307.732V165.646H413.872V180.83H386.15V223.667H410.256V238.952H386.15V292.448H413.872V307.732H368.472Z" fill="#671DF7"/>
<path d="M470.22 302.604C465.6 307.364 459.105 309.744 450.735 309.744C442.431 309.744 435.969 307.364 431.349 302.604C426.729 297.777 424.418 290.973 424.418 282.191V257.856H441.494V279.275C441.494 284.638 442.13 288.459 443.402 290.738C444.741 293.018 447.052 294.157 450.333 294.157C453.748 294.157 456.125 293.018 457.464 290.738C458.803 288.459 459.473 284.638 459.473 279.275V260.37C459.473 253.264 456.728 247.901 451.237 244.281L440.088 237.141C434.463 233.588 430.445 229.499 428.034 224.874C425.624 220.248 424.418 214.449 424.418 207.477V190.383C424.418 182.003 426.628 175.433 431.048 170.673C435.534 165.914 441.829 163.534 449.931 163.534C458.033 163.534 464.328 165.88 468.814 170.573C473.368 175.265 475.644 181.869 475.644 190.383V208.483H458.569V192.796C458.569 187.835 457.933 184.349 456.661 182.338C455.455 180.26 453.346 179.221 450.333 179.221C447.319 179.221 445.177 180.26 443.904 182.338C442.699 184.349 442.096 187.835 442.096 192.796V206.371C442.096 213.477 444.842 218.84 450.333 222.46L461.482 229.7C467.107 233.253 471.124 237.343 473.535 241.968C475.946 246.527 477.151 252.326 477.151 259.365V282.191C477.151 290.973 474.841 297.777 470.22 302.604Z" fill="#671DF7"/>
<path d="M502.764 307.732V180.83H485.488V165.646H537.718V180.83H520.442V307.732H502.764Z" fill="#671DF7"/>
<path d="M549.068 307.732V165.646H594.468V180.83H566.746V223.667H590.852V238.952H566.746V292.448H594.468V307.732H549.068Z" fill="#671DF7"/>
<path d="M618.876 307.732L602.805 165.646H620.684L630.728 279.677H631.13L641.275 165.646H658.149L642.078 307.732H618.876Z" fill="#671DF7"/>
<path d="M669.6 307.732V165.646H715V180.83H687.278V223.667H711.384V238.952H687.278V292.448H715V307.732H669.6Z" fill="#671DF7"/>
<path d="M368.936 403.838V321.743H384.141C394.432 321.743 399.578 327.089 399.578 337.779V387.803C399.578 398.493 394.432 403.838 384.141 403.838H368.936ZM379.15 395.007H383.096C385.65 395.007 387.333 394.426 388.145 393.264C388.958 392.063 389.364 389.759 389.364 386.35V339.231C389.364 335.823 388.938 333.518 388.087 332.317C387.275 331.117 385.611 330.516 383.096 330.516H379.15V395.007Z" fill="black"/>
<path d="M423.023 405C418.265 405 414.512 403.586 411.765 400.759C409.057 397.893 407.703 393.922 407.703 388.848V336.733C407.703 331.659 409.057 327.689 411.765 324.823C414.512 321.956 418.265 320.523 423.023 320.523C427.86 320.523 431.612 321.956 434.282 324.823C436.99 327.689 438.344 331.659 438.344 336.733V388.848C438.344 393.922 436.99 397.893 434.282 400.759C431.612 403.586 427.86 405 423.023 405ZM419.019 394.019C419.793 395.336 421.128 395.995 423.023 395.995C424.919 395.995 426.235 395.336 426.97 394.019C427.744 392.702 428.13 390.495 428.13 387.396V338.186C428.13 335.087 427.744 332.879 426.97 331.562C426.235 330.245 424.919 329.587 423.023 329.587C421.128 329.587 419.793 330.245 419.019 331.562C418.284 332.879 417.916 335.087 417.916 338.186V387.396C417.916 390.495 418.284 392.702 419.019 394.019Z" fill="black"/>
<path d="M488.079 400.875C485.41 403.625 481.657 405 476.821 405C472.023 405 468.29 403.625 465.62 400.875C462.951 398.086 461.616 394.155 461.616 389.081V375.021H471.482V387.396C471.482 390.495 471.849 392.702 472.584 394.019C473.358 395.336 474.693 395.995 476.589 395.995C478.562 395.995 479.935 395.336 480.709 394.019C481.483 392.702 481.87 390.495 481.87 387.396V376.473C481.87 372.367 480.283 369.269 477.111 367.177L470.669 363.052C467.419 360.999 465.098 358.637 463.705 355.964C462.312 353.291 461.616 349.941 461.616 345.913V336.036C461.616 331.194 462.893 327.398 465.446 324.648C468.038 321.898 471.675 320.523 476.356 320.523C481.038 320.523 484.675 321.879 487.267 324.59C489.898 327.302 491.213 331.117 491.213 336.036V346.494H481.347V337.43C481.347 334.564 480.98 332.55 480.245 331.388C479.548 330.187 478.33 329.587 476.589 329.587C474.848 329.587 473.609 330.187 472.874 331.388C472.178 332.55 471.83 334.564 471.83 337.43V345.274C471.83 349.379 473.416 352.478 476.589 354.57L483.03 358.753C486.28 360.806 488.602 363.168 489.994 365.841C491.387 368.475 492.084 371.825 492.084 375.892V389.081C492.084 394.155 490.749 398.086 488.079 400.875Z" fill="black"/>
<path d="M525.453 400.875C522.822 403.625 519.166 405 514.485 405C509.803 405 506.128 403.625 503.458 400.875C500.827 398.086 499.512 394.232 499.512 389.313V321.743H509.726V387.803C509.726 390.824 510.074 392.954 510.77 394.193C511.505 395.394 512.782 395.995 514.601 395.995C516.419 395.995 517.676 395.375 518.373 394.135C519.108 392.896 519.475 390.785 519.475 387.803V321.743H529.457V389.313C529.457 394.232 528.122 398.086 525.453 400.875Z" fill="black"/>
<path d="M552.787 405C548.105 405 544.449 403.664 541.818 400.991C539.226 398.28 537.93 394.465 537.93 389.546V336.036C537.93 331.117 539.226 327.302 541.818 324.59C544.449 321.879 548.105 320.523 552.787 320.523C557.546 320.523 561.221 321.879 563.813 324.59C566.444 327.302 567.76 331.117 567.76 336.036V349.573H557.894V337.43C557.894 334.564 557.507 332.55 556.733 331.388C555.998 330.187 554.76 329.587 553.019 329.587C551.278 329.587 550.021 330.187 549.247 331.388C548.512 332.55 548.144 334.564 548.144 337.43V388.151C548.144 391.017 548.512 393.051 549.247 394.252C550.021 395.414 551.278 395.995 553.019 395.995C554.76 395.995 555.998 395.394 556.733 394.193C557.507 392.993 557.894 390.979 557.894 388.151V371.941H567.76V389.546C567.76 394.465 566.444 398.28 563.813 400.991C561.221 403.664 557.546 405 552.787 405Z" fill="black"/>
<path d="M575.768 403.838V321.743H601.999V330.516H585.982V355.267H599.91V364.098H585.982V395.007H601.999V403.838H575.768Z" fill="black"/>
<path d="M634.556 400.875C631.887 403.625 628.134 405 623.298 405C618.5 405 614.767 403.625 612.097 400.875C609.428 398.086 608.093 394.155 608.093 389.081V375.021H617.959V387.396C617.959 390.495 618.326 392.702 619.061 394.019C619.835 395.336 621.17 395.995 623.066 395.995C625.039 395.995 626.412 395.336 627.186 394.019C627.96 392.702 628.347 390.495 628.347 387.396V376.473C628.347 372.367 626.76 369.269 623.588 367.177L617.146 363.052C613.896 360.999 611.575 358.637 610.182 355.964C608.789 353.291 608.093 349.941 608.093 345.913V336.036C608.093 331.194 609.37 327.398 611.923 324.648C614.515 321.898 618.152 320.523 622.833 320.523C627.515 320.523 631.152 321.879 633.744 324.59C636.375 327.302 637.69 331.117 637.69 336.036V346.494H627.824V337.43C627.824 334.564 627.457 332.55 626.722 331.388C626.025 330.187 624.807 329.587 623.066 329.587C621.325 329.587 620.087 330.187 619.352 331.388C618.655 332.55 618.307 334.564 618.307 337.43V345.274C618.307 349.379 619.893 352.478 623.066 354.57L629.507 358.753C632.757 360.806 635.079 363.168 636.471 365.841C637.864 368.475 638.561 371.825 638.561 375.892V389.081C638.561 394.155 637.226 398.086 634.556 400.875Z" fill="black"/>
<path d="M671.35 400.875C668.68 403.625 664.927 405 660.091 405C655.294 405 651.56 403.625 648.891 400.875C646.221 398.086 644.886 394.155 644.886 389.081V375.021H654.752V387.396C654.752 390.495 655.12 392.702 655.855 394.019C656.628 395.336 657.963 395.995 659.859 395.995C661.832 395.995 663.206 395.336 663.979 394.019C664.753 392.702 665.14 390.495 665.14 387.396V376.473C665.14 372.367 663.554 369.269 660.381 367.177L653.94 363.052C650.69 360.999 648.368 358.637 646.976 355.964C645.583 353.291 644.886 349.941 644.886 345.913V336.036C644.886 331.194 646.163 327.398 648.717 324.648C651.309 321.898 654.946 320.523 659.627 320.523C664.308 320.523 667.945 321.879 670.537 324.59C673.168 327.302 674.484 331.117 674.484 336.036V346.494H664.618V337.43C664.618 334.564 664.25 332.55 663.515 331.388C662.819 330.187 661.6 329.587 659.859 329.587C658.118 329.587 656.88 330.187 656.145 331.388C655.448 332.55 655.1 334.564 655.1 337.43V345.274C655.1 349.379 656.687 352.478 659.859 354.57L666.301 358.753C669.551 360.806 671.872 363.168 673.265 365.841C674.658 368.475 675.354 371.825 675.354 375.892V389.081C675.354 394.155 674.019 398.086 671.35 400.875Z" fill="black"/>
<path d="M697.755 405C692.996 405 689.244 403.586 686.497 400.759C683.788 397.893 682.434 393.922 682.434 388.848V336.733C682.434 331.659 683.788 327.689 686.497 324.823C689.244 321.956 692.996 320.523 697.755 320.523C702.591 320.523 706.344 321.956 709.014 324.823C711.722 327.689 713.076 331.659 713.076 336.733V388.848C713.076 393.922 711.722 397.893 709.014 400.759C706.344 403.586 702.591 405 697.755 405ZM693.751 394.019C694.525 395.336 695.859 395.995 697.755 395.995C699.651 395.995 700.966 395.336 701.701 394.019C702.475 392.702 702.862 390.495 702.862 387.396V338.186C702.862 335.087 702.475 332.879 701.701 331.562C700.966 330.245 699.651 329.587 697.755 329.587C695.859 329.587 694.525 330.245 693.751 331.562C693.016 332.879 692.648 335.087 692.648 338.186V387.396C692.648 390.495 693.016 392.702 693.751 394.019Z" fill="black"/>
<path d="M43.9263 321.456L44.0424 321.572H44.1198L44.8935 321.456L45.3965 321.572L45.6673 321.456C48.0919 321.611 49.3041 322.063 49.3041 322.811C49.7426 323.535 50.1682 323.896 50.5809 323.896C51.9221 323.896 52.5927 324.116 52.5927 324.555L53.173 325.135V325.329C53.0183 325.329 52.9409 325.394 52.9409 325.523V325.639C53.0956 326.026 53.2633 326.22 53.4439 326.22V326.917C52.928 327.485 52.0639 327.769 50.8517 327.769C50.439 328.002 49.6652 328.17 48.5303 328.273C48.5303 328.376 47.4857 328.57 45.3965 328.854H45.1644L45.0483 328.738C44.842 328.867 43.4621 329.06 40.9086 329.319L40.8312 329.435L40.5604 329.512L40.483 329.435H40.4056L38.858 329.706L38.5872 329.629L37.6587 329.822L37.1944 329.706C37.1944 329.913 36.7946 330.042 35.995 330.093H35.4147L35.0665 330.403L34.0219 330.287C33.5834 330.494 31.3008 330.92 27.1739 331.565L25.7424 332.069L25.8198 332.534L25.7424 332.843L25.8972 334.199C25.794 334.509 25.7424 335.09 25.7424 335.942V339.234L25.8198 339.351L25.7424 339.428V339.622L25.8198 339.738L25.7424 339.815L25.8972 346.71L25.9746 346.826V346.903L25.8972 347.291V347.911L26.0519 349.654L25.9746 350.041L26.5936 363.752V364.217L26.671 364.333L26.5936 364.411V364.527L26.671 365.185L26.5936 365.495L26.671 366.657V368.594C26.671 369.962 27.3029 372.235 28.5667 375.411V375.488C28.5667 376.263 28.1669 376.65 27.3674 376.65L27.0192 376.573H26.9418L26.8644 376.65H26.7483C26.8773 378.432 27.0192 379.672 27.1739 380.369C26.6323 381.324 26.1164 381.802 25.6264 381.802H25.549L24.0014 381.415C23.434 380.898 23.06 380.382 22.8794 379.865L22.9568 378.781V378.393L22.8794 378.316L22.9568 378.2L22.802 375.024L22.8794 374.133V373.939L22.802 372.971L22.8794 372.583L22.686 370.918C22.8149 370.918 22.9052 370.66 22.9568 370.143L22.8794 369.678L22.9568 369.175L22.183 362.745V362.552L22.3378 362.358C22.0541 361.79 21.8864 361.144 21.8348 360.421L22.0283 359.569V359.453C21.7961 359.246 21.6156 358.73 21.4866 357.904L21.564 357.594C21.3319 357.594 20.6483 352.546 19.5135 342.449L19.5908 342.139C19.4877 342.139 19.3458 340.758 19.1653 337.995C18.9331 335.129 18.7268 333.695 18.5462 333.695H18.3141C14.8837 334.677 12.9492 335.361 12.5107 335.748L10.1894 336.717C8.28072 337.698 6.74605 338.343 5.58537 338.653H4.65683C3.85726 338.653 3.10927 337.814 2.41286 336.136V335.826L2.49024 335.438L2.41286 334.857L3.61223 333.618C2.21942 333.618 1.2135 332.572 0.594474 330.481V330.287C1.47143 329.383 2.271 328.931 2.9932 328.931L3.53485 329.048C7.04267 328.583 9.33822 328.092 10.4215 327.576L10.5376 327.692H10.615C12.8073 326.891 17.953 325.626 26.0519 323.896C26.9289 323.638 29.0697 323.212 32.4743 322.618L32.7065 322.54L33.0547 322.618L33.3255 322.424L33.4029 322.54H33.4803L36.8462 322.037L36.9623 322.153L38.9354 321.959H39.2836L39.98 321.766L43.9263 321.572V321.456ZM6.28178 333.037V333.231H6.47522V333.037H6.28178ZM4.38601 333.618V333.812H4.92766L5.00504 333.502L4.92766 333.424H4.57946L4.38601 333.618ZM3.88305 333.618V333.889H4.03781L4.23125 333.695L4.15388 333.618H3.88305Z" fill="#671DF7"/>
<path d="M56.7711 336.872C58.3445 336.975 59.1312 337.388 59.1312 338.111C60.8335 341.959 62.4068 346.723 63.8512 352.404C64.0318 353.772 64.2252 354.456 64.4316 354.456L65.2054 354.379C65.5149 354.379 65.6696 354.443 65.6696 354.573L65.747 354.456H65.8631C66.6626 354.456 67.1656 355.025 67.3719 356.161C67.3719 356.961 66.6111 357.723 65.0893 358.446H65.0119C65.992 365.34 67.0882 370.569 68.3005 374.133L68.4165 374.598C68.107 375.553 67.5009 376.031 66.5982 376.031C66.5982 376.108 66.3789 376.173 65.9404 376.224C65.9404 376.715 65.6954 376.96 65.2054 376.96L64.1607 376.883L64.0447 376.96H63.9673C63.7352 376.96 63.1677 376.018 62.265 374.133C61.3106 371.886 60.6142 369.33 60.1758 366.464L60.2918 365.805C60.0855 365.469 59.8276 364.398 59.518 362.59L59.4407 362.513H59.3246L55.7265 364.101C53.7921 364.746 52.8248 365.289 52.8248 365.728C52.0253 368.878 51.4191 370.453 51.0064 370.453C50.1295 370.711 49.691 371.525 49.691 372.893L48.569 379.052C48.1821 379.439 47.8984 379.633 47.7179 379.633L47.6018 379.517H47.5244L46.8667 379.71L46.7506 379.439H46.4024L46.2864 379.517H46.209L45.8221 378.51C45.8221 376.186 46.454 372.299 47.7179 366.851L47.6018 366.773H47.5244L44.9709 367.161H44.3132C43.2299 366.696 42.6883 366.18 42.6883 365.612L42.6109 365.34C43.0494 364.411 43.591 363.946 44.2358 363.946C44.3132 363.714 45.0354 363.52 46.4024 363.365L46.4798 363.249V363.171L46.2864 362.59V362.513C46.2864 361.557 47.2923 360.641 49.3041 359.763C49.6652 359.427 49.9231 358.794 50.0779 357.865C50.2327 357.71 50.5164 356.328 50.9291 353.72C51.8834 350.88 52.7346 346.051 53.4825 339.234C54.0758 338.356 54.6432 337.917 55.1849 337.917C55.3396 337.633 55.8684 337.285 56.7711 336.872ZM56.6937 348.685C56.1779 350.028 55.6104 352.842 54.9914 357.129H55.1849C56.8356 356.69 57.906 356.303 58.3961 355.967C57.5191 351.267 56.9775 348.84 56.7711 348.685H56.6937Z" fill="#671DF7"/>
<path d="M85.9427 336.639C88.8573 337.207 90.9723 338.201 92.2878 339.622C92.4425 339.622 92.5328 340.228 92.5586 341.442L92.4425 342.023C94.0159 342.023 95.8085 343.714 97.8203 347.097C98.5425 348.156 99.0068 349.292 99.2131 350.506C100.064 352.055 100.49 353.333 100.49 354.34L100.335 354.882L101.186 358.446L100.915 359.259L101.07 360.847V361.273L100.645 364.953L100.761 365.069V365.224C100.013 368.504 98.2201 371.615 95.3829 374.559C92.9068 376.341 90.3662 377.231 87.7611 377.231L87.6451 377.386C85.659 377.386 83.1055 376.728 79.9846 375.411C75.6514 372.725 72.5047 368.71 70.5444 363.365L69.5385 358.988L69.6933 358.833L69.5385 358.136V357.013C69.5385 355.902 70.4284 353.023 72.2081 348.375H72.092C72.84 346.31 73.5493 344.941 74.2199 344.27C75.2516 341.584 77.3666 339.376 80.5649 337.646C81.9062 336.975 83.6988 336.639 85.9427 336.639ZM78.0115 356.742C78.0115 364.153 80.0878 369.007 84.2404 371.305L85.0916 371.46C89.2958 371.46 92.0298 367.497 93.2937 359.569V358.988C93.2937 357.284 92.0169 354.314 89.4635 350.08C89.2571 350.08 88.2254 348.621 86.3683 345.703H86.0588C82.8089 346.71 80.7455 347.833 79.8685 349.073C78.6305 351.655 78.0115 354.211 78.0115 356.742Z" fill="#671DF7"/>
<path d="M127.108 336.755C127.624 336.755 128.23 336.975 128.926 337.414H129.159L130.435 337.104L133.143 337.491L133.685 337.414L134.343 337.491L134.575 337.414C139.166 337.775 142.094 338.318 143.357 339.041C144.26 339.221 145.202 339.919 146.182 341.132C146.569 341.674 146.762 342.333 146.762 343.108C147.407 343.753 147.729 344.295 147.729 344.734C147.368 346.387 145.769 348.117 142.932 349.925L134.923 353.411C134.923 354.237 135.22 357.103 135.813 362.009C136.019 363.43 136.29 366.928 136.626 372.506L136.548 373.397C136.677 373.784 136.858 375.243 137.09 377.774C137.219 377.774 137.283 378.096 137.283 378.742C137.283 379.026 136.922 379.491 136.2 380.136L135.813 380.059C135.271 380.214 134.885 380.395 134.652 380.601C133.414 380.601 132.615 379.981 132.254 378.742C131.48 376.056 130.745 372.157 130.048 367.045C129.404 363.739 128.643 359.414 127.766 354.069H127.611V353.992L124.632 355.425C123.703 355.425 123.02 355.128 122.581 354.534H122.504V354.146C122.504 353.604 123.587 352.765 125.754 351.629L127.224 350.738V350.234C127.224 349.641 127.134 349.344 126.953 349.344L127.031 348.763V348.453L126.644 345.858L126.721 345.78L126.566 343.65H126.489L126.566 343.572C126.489 342.178 126.347 341.481 126.141 341.481H125.986L125.909 341.558C124.232 341.223 123.394 340.512 123.394 339.428C123.394 338.886 123.716 338.408 124.361 337.995L124.438 338.072H124.516C125.083 338.021 125.444 337.93 125.599 337.801L125.909 337.917C126.115 337.917 126.218 337.724 126.218 337.336C126.45 336.949 126.747 336.755 127.108 336.755ZM133.879 341.403L133.763 341.636C133.763 342.824 133.93 344.747 134.265 347.407H134.498L138.328 345.548C139.153 345.031 140.043 344.399 140.997 343.65V343.572C139.63 342.798 137.786 342.152 135.465 341.636L133.879 341.403ZM129.816 346.981V347.252H129.971V346.981H129.816ZM129.894 347.484V347.988H130.048V347.484H129.894ZM129.971 348.143V348.298L130.048 348.763L129.971 349.111L130.048 349.189H130.203L130.281 348.879H130.203L130.281 348.763V348.608C130.281 348.324 130.203 348.169 130.048 348.143H129.971Z" fill="#671DF7"/>
<path d="M164.366 336.872L165.758 336.988H167.267C170.259 337.84 172.529 338.64 174.077 339.389C174.979 339.777 176.282 340.913 177.984 342.798C178.01 343.288 178.139 343.753 178.371 344.192L178.255 344.812V345.083L178.371 345.587C178.062 347.497 176.836 349.731 174.696 352.287C173.612 353.888 171.807 355.567 169.279 357.323C167.938 357.917 167.267 358.343 167.267 358.601C167.267 358.885 168.183 359.311 170.014 359.879C172.052 360.989 174.876 361.867 178.487 362.513C185.761 364.579 190.481 367.535 192.647 371.383L192.493 371.886L192.647 372.622C192.338 374.017 191.99 374.74 191.603 374.791L190.597 374.636L190.249 375.024H189.862C188.727 375.024 186.702 374.094 183.788 372.235C181.492 370.97 178.681 369.549 175.353 367.974C173.961 366.941 172.31 366.425 170.401 366.425V366.58C169.369 366.141 167.861 365.921 165.875 365.921V366.076L164.095 365.805L163.708 366.076C163.734 368.659 163.992 371.305 164.482 374.017L164.366 374.133V374.288L165.372 378.084C165.372 378.781 164.314 379.323 162.199 379.71C161.632 379.71 160.587 378.703 159.065 376.689C158.627 377.18 158.162 377.425 157.672 377.425L157.518 377.58L157.015 377.696C156.06 377.309 155.39 376.676 155.003 375.798C153.842 372.7 152.746 368.607 151.714 363.52C150.812 363.133 150.18 362.758 149.819 362.397C149.406 362.268 149.032 361.545 148.697 360.228C148.697 359.401 149.29 358.73 150.476 358.214C150.038 356.122 149.702 353.85 149.47 351.396C149.625 348.014 149.96 346.322 150.476 346.322L150.979 346.71C151.134 346.71 151.263 346.464 151.366 345.974L150.979 345.315V345.083C150.979 343.74 152.153 342.139 154.5 340.28C156.667 338.989 158.433 338.189 159.8 337.879C159.8 337.62 161.322 337.285 164.366 336.872ZM160.961 346.206C161.709 348.04 162.289 350.867 162.702 354.689L162.818 354.805H162.973C163.953 354.805 165.629 353.127 168.002 349.77C169.524 348.324 170.62 347.007 171.291 345.819L171.407 344.812C171.407 344.502 170.195 344.295 167.77 344.192V344.308L167.616 344.192H167.113C165.178 344.192 163.205 344.734 161.193 345.819L160.961 346.206ZM156.899 367.316V367.819C157.157 368.078 157.286 368.504 157.286 369.098H157.402L157.286 369.214V369.33C157.518 370.595 157.724 371.228 157.905 371.228H158.021L157.788 368.207L157.905 367.703L157.672 366.928V366.58C157.157 366.58 156.899 366.825 156.899 367.316ZM157.905 371.383L157.788 371.499V371.615L158.175 372.002V371.615L157.905 371.383Z" fill="#671DF7"/>
<path d="M207.736 336.639C210.651 337.207 212.766 338.201 214.081 339.622C214.236 339.622 214.326 340.228 214.352 341.442L214.236 342.023C215.809 342.023 217.602 343.714 219.614 347.097C220.336 348.156 220.8 349.292 221.007 350.506C221.858 352.055 222.283 353.333 222.283 354.34L222.129 354.882L222.98 358.446L222.709 359.259L222.864 360.847V361.273L222.438 364.953L222.554 365.069V365.224C221.806 368.504 220.014 371.615 217.176 374.559C214.7 376.341 212.16 377.231 209.555 377.231L209.439 377.386C207.452 377.386 204.899 376.728 201.778 375.411C197.445 372.725 194.298 368.71 192.338 363.365L191.332 358.988L191.487 358.833L191.332 358.136V357.013C191.332 355.902 192.222 353.023 194.002 348.375H193.885C194.633 346.31 195.343 344.941 196.013 344.27C197.045 341.584 199.16 339.376 202.358 337.646C203.7 336.975 205.492 336.639 207.736 336.639ZM199.805 356.742C199.805 364.153 201.881 369.007 206.034 371.305L206.885 371.46C211.089 371.46 213.823 367.497 215.087 359.569V358.988C215.087 357.284 213.81 354.314 211.257 350.08C211.051 350.08 210.019 348.621 208.162 345.703H207.852C204.602 346.71 202.539 347.833 201.662 349.073C200.424 351.655 199.805 354.211 199.805 356.742Z" fill="#671DF7"/>
<path d="M256.523 337.646C257.839 337.646 258.883 338.537 259.657 340.319L259.773 341.403C259.773 342.178 258.806 343.895 256.871 346.555C253.338 352.623 251.571 356.044 251.571 356.819C251.752 356.819 252.757 357.865 254.589 359.956C257.039 361.919 259.412 364.204 261.708 366.812L263.642 368.245L263.874 369.833C263.642 371.047 262.997 371.654 261.94 371.654L260.74 371.77C258.161 370.97 256.871 370.285 256.871 369.717L250.642 363.442C250.462 363.442 250.178 363.081 249.791 362.358L248.708 361.506C248.063 362.126 246.941 363.701 245.342 366.231C245.084 366.231 244.762 366.67 244.375 367.548C243.472 368.426 242.35 369.795 241.009 371.654C240.519 371.938 240.029 372.532 239.539 373.436C238.816 374.03 238.262 374.714 237.875 375.488C236.56 376.65 235.309 378.458 234.122 380.911C233.477 382.047 233.039 382.654 232.807 382.732L232.072 382.615L231.259 382.848C230.331 382.099 229.763 381.531 229.557 381.143C229.918 378.716 230.395 377.154 230.988 376.457L232.459 374.171V373.939C230.292 373.164 229.209 372.041 229.209 370.569C229.518 368.865 229.957 368.013 230.524 368.013V367.897L230.408 367.316L231.104 366.58L231.375 366.812C231.968 365.986 232.368 365.224 232.575 364.527C235.051 361.351 236.289 359.66 236.289 359.453C238.868 356.148 240.158 354.301 240.158 353.914C235.489 349.783 230.988 346.774 226.655 344.889C224.979 343.96 224.14 342.746 224.14 341.248C224.347 340.216 224.863 339.699 225.688 339.699H225.959L226.423 339.815C226.862 339.454 227.584 339.131 228.59 338.847C230.988 338.847 232.51 339.376 233.155 340.435C235.889 342.682 237.256 343.882 237.256 344.037C237.798 344.347 239.526 345.793 242.44 348.375L243.408 349.111L248.476 342.101C249.508 341.068 250.346 339.944 250.991 338.731C251.635 338.24 252.113 337.995 252.422 337.995H253.273L253.389 337.879C253.75 338.059 254.395 338.15 255.324 338.15H255.556L256.523 337.646ZM238.455 357.168V357.4H238.571L238.842 357.168V356.935H238.726L238.455 357.168ZM240.893 362.59V362.823H241.125V362.59H240.893ZM239.809 364.062V364.411L240.506 363.907V363.326H240.39L239.809 364.062ZM239.307 364.643L239.19 364.992H239.539V364.643H239.307ZM237.991 366.58V366.696H238.223V366.347L237.991 366.58ZM237.14 367.548L237.024 367.897H237.372V367.548H237.14ZM236.56 368.245L236.405 368.749H236.56L236.908 368.4V368.245H236.56Z" fill="#671DF7"/>
<path d="M267.279 336.833C268.955 336.833 269.794 337.078 269.794 337.569C270.387 337.956 270.877 338.95 271.264 340.551H271.535C272.128 340.293 273.031 340.125 274.243 340.048C275.61 340.048 276.68 341.042 277.454 343.03L277.338 343.146L277.454 343.263L277.338 343.418L277.454 343.534H277.338L277.454 343.65V343.766L277.609 346.632H277.725L277.609 346.749V346.865L277.957 351.977L277.841 353.566L277.957 353.953L277.841 354.689V355.309L277.957 355.812L277.841 355.928V356.083L277.957 356.819L277.841 359.685V359.918L277.957 361.041L277.841 362.048L277.725 369.485H277.841L277.725 369.601C277.725 371.77 278.099 373.965 278.847 376.186C278.847 376.935 278.305 377.515 277.222 377.929C274.978 377.929 273.495 377.219 272.773 375.798L271.38 377.309L271.264 377.193H271.148L270.529 377.309C269.368 376.069 268.788 373.952 268.788 370.957L268.904 370.221L268.788 369.872L268.904 368.749V368.478L268.788 367.858L269.02 366.115C269.02 363.507 268.078 355.941 266.195 343.418L265.809 339.815C265.809 338.214 266.299 337.22 267.279 336.833Z" fill="#671DF7"/>
<path d="M303.298 336.794C304.562 336.794 305.504 337.737 306.123 339.622C307 340.68 307.98 343.069 309.063 346.787L311.384 355.386C311.384 356.341 312.661 359.905 315.215 366.076C319.109 374.081 321.057 378.393 321.057 379.013L320.979 379.129H320.863L320.979 380.136C320.979 380.498 320.67 380.834 320.051 381.143H319.973C319.019 380.524 318.542 380.046 318.542 379.71H318.155C317.613 381.001 316.801 381.647 315.718 381.647C314.144 381.131 313.1 380.395 312.584 379.439C311.268 376.573 310.056 372.39 308.947 366.89C307.142 360.615 305.594 355.631 304.304 351.939C304.175 351.913 304.072 351.681 303.995 351.242H303.917C303.608 351.577 302.963 354.198 301.983 359.104V359.221H302.099L301.596 362.048L301.673 362.939H301.596L301.673 363.055V363.442C301.673 364.449 301.415 365.16 300.9 365.573C300.9 365.754 301.261 366.502 301.983 367.819L302.099 368.207V368.904C302.099 369.446 301.699 369.717 300.9 369.717C299.223 369.717 296.695 367.161 293.317 362.048C292.594 361.248 292.117 360.602 291.885 360.111H291.614V360.228L291.498 366.773L291.382 367.509L291.498 367.587L291.382 368.09V370.531L291.305 370.647L291.382 370.724V373.358L291.498 374.365C291.343 376.199 290.866 377.115 290.067 377.115H289.37C287.823 376.496 287.049 376.018 287.049 375.682C287.049 375.217 286.752 374.546 286.159 373.668C285.54 371.421 284.766 365.766 283.838 356.703L283.915 356.587V356.47C283.322 351.022 282.754 348.298 282.213 348.298C281.001 347.472 280.394 346.736 280.394 346.09C280.394 345.444 280.665 344.941 281.207 344.579L281.284 344.657H281.4L283.606 344.27C284.998 344.528 285.914 344.928 286.353 345.47L287.358 345.354C288.983 345.354 290.26 346.271 291.189 348.104C293.742 350.79 295.664 353.307 296.953 355.657H297.263L299.159 349.731C299.7 347.794 300.577 343.921 301.789 338.111C301.789 337.595 302.292 337.156 303.298 336.794Z" fill="#671DF7"/>
<path d="M334.637 336.872C336.21 336.975 336.997 337.388 336.997 338.111C338.699 341.959 340.272 346.723 341.717 352.404C341.897 353.772 342.091 354.456 342.297 354.456L343.071 354.379C343.38 354.379 343.535 354.443 343.535 354.573L343.612 354.456H343.729C344.528 354.456 345.031 355.025 345.237 356.161C345.237 356.961 344.477 357.723 342.955 358.446H342.877C343.858 365.34 344.954 370.569 346.166 374.133L346.282 374.598C345.973 375.553 345.366 376.031 344.464 376.031C344.464 376.108 344.244 376.173 343.806 376.224C343.806 376.715 343.561 376.96 343.071 376.96L342.026 376.883L341.91 376.96H341.833C341.601 376.96 341.033 376.018 340.13 374.133C339.176 371.886 338.48 369.33 338.041 366.464L338.157 365.805C337.951 365.469 337.693 364.398 337.384 362.59L337.306 362.513H337.19L333.592 364.101C331.658 364.746 330.69 365.289 330.69 365.728C329.891 368.878 329.285 370.453 328.872 370.453C327.995 370.711 327.556 371.525 327.556 372.893L326.434 379.052C326.048 379.439 325.764 379.633 325.583 379.633L325.467 379.517H325.39L324.732 379.71L324.616 379.439H324.268L324.152 379.517H324.074L323.688 378.51C323.688 376.186 324.319 372.299 325.583 366.851L325.467 366.773H325.39L322.836 367.161H322.179C321.095 366.696 320.554 366.18 320.554 365.612L320.476 365.34C320.915 364.411 321.456 363.946 322.101 363.946C322.179 363.714 322.901 363.52 324.268 363.365L324.345 363.249V363.171L324.152 362.59V362.513C324.152 361.557 325.158 360.641 327.17 359.763C327.531 359.427 327.789 358.794 327.943 357.865C328.098 357.71 328.382 356.328 328.795 353.72C329.749 350.88 330.6 346.051 331.348 339.234C331.941 338.356 332.509 337.917 333.05 337.917C333.205 337.633 333.734 337.285 334.637 336.872ZM334.559 348.685C334.043 350.028 333.476 352.842 332.857 357.129H333.05C334.701 356.69 335.771 356.303 336.262 355.967C335.385 351.267 334.843 348.84 334.637 348.685H334.559Z" fill="#671DF7"/>
<path d="M214.965 327.564L208.87 331.922V332.794H208.108L207.346 331.922V333.666H210.394C211.003 333.666 211.918 333.085 211.918 332.794L212.679 331.922H214.965L215.727 329.307H217.251L218.013 327.564H217.251V328.435L216.489 327.564H214.965Z" fill="#671DF7"/>
<path d="M62.9999 334.174H60.4798C60.4417 334.174 57.8828 334.175 57.8434 334.176C55.8428 334.237 52.2104 335.814 50.5101 336.661L50.3993 334.174L55.4396 329.089L57.9597 331.632H62.9999C63.84 332.479 65.016 334.174 62.9999 334.174Z" fill="#671DF7"/>
</svg>
