<?xml version="1.0" encoding="UTF-8"?>
<svg id="Camada_2" data-name="Camada 2" xmlns="http://www.w3.org/2000/svg" viewBox="0 0 558 558">
  <defs>
    <style>
      .cls-1 {
        fill: #fff;
      }

      .cls-1, .cls-2 {
        stroke-width: 0px;
      }

      .cls-2 {
        fill: #671df7;
      }
    </style>
  </defs>
  <g id="Camada_1-2" data-name="Camada 1">
    <circle class="cls-2" cx="279" cy="279" r="279"/>
    <g>
      <path class="cls-1" d="m342.72,371.92v45.13c-1.65.13-3.08.34-4.52.34-52.99.02-105.99.05-158.98,0-19.26-.02-33.22-10.99-37.62-29.39-.5-2.07-.65-4.28-.65-6.42-.03-78.66-.03-157.31-.02-235.97,0-1.31.14-2.62.24-4.44,1.9-.09,3.67-.24,5.43-.24,77.82-.01,155.65-.04,233.47.01,21.14.01,37.19,15.65,37.26,36.77.18,53.99.05,107.99.04,161.98,0,.82-.15,1.63-.27,2.86h-45.17c0-1.74,0-3.65,0-5.56,0-45.33,0-90.65,0-135.98,0-10.59-3.89-14.62-14.34-14.62-55.33-.03-110.65.03-165.98-.1-4.18,0-5.31,1.22-5.3,5.34.13,55.16.07,110.32.1,165.48,0,11.22,3.8,14.82,15.13,14.82,45.16-.01,90.32,0,135.48,0,1.79,0,3.58,0,5.7,0Z"/>
      <path class="cls-1" d="m315.11,315.1c-11.37,0-21.99,0-32.61,0-10.15,0-20.3.06-30.45-.03-5.37-.05-8.9-3.28-8.93-8.63-.12-20.47-.02-40.93.02-61.4,0-.46.29-.91.65-1.99,1.65,0,3.42,0,5.2,0,18.14,0,36.27,0,54.41,0,9.07,0,11.7,2.57,11.7,11.44.02,18.3.01,36.61.02,54.91,0,1.64,0,3.28,0,5.69Z"/>
      <path class="cls-1" d="m422.69,422.82h-56.2c-.13-1.71-.33-3.15-.33-4.6-.02-15.64.07-31.29-.08-46.93-.03-3.65.62-5.31,4.87-5.25,17.11.25,34.22.1,51.74.1v56.68Z"/>
    </g>
  </g>
</svg>