<svg width="843" height="74" viewBox="0 0 843 74" fill="none" xmlns="http://www.w3.org/2000/svg">
<path d="M26.8768 0H27.9371C30.6417 0.214094 33.8227 1.46807 37.48 3.76193C42.1823 8.0744 44.5334 10.5212 44.5334 11.1023C44.5334 11.2858 44.9176 11.7446 45.6859 12.4786C46.6694 14.4666 48.3598 17.1122 50.757 20.4154C51.341 22.281 52.4167 24.6514 53.9841 27.5263L53.8919 27.664V27.9851C55.2749 32.8481 55.9664 36.8394 55.9664 39.9591C55.4439 44.5468 54.6295 47.7888 53.5231 49.6851C53.5231 50.572 52.5703 52.3765 50.6648 55.0986C49.8043 56.0161 49.374 56.5514 49.374 56.7043C54.1378 61.3532 57.3802 63.9529 59.1013 64.5034C60.0233 65.1457 60.4843 65.8339 60.4843 66.5679L60.2538 67.6231C61.2066 67.9289 62.0056 68.5406 62.651 69.4582L62.7893 69.5499V69.6875C62.6357 70.9109 62.0517 71.5226 61.0375 71.5226C58.7632 71.5226 56.9499 71.0639 55.5976 70.1463C51.1412 67.149 47.1458 64.1976 43.6114 61.292H43.3809C39.1089 63.8611 35.3747 65.2374 32.1784 65.421C32.1784 65.5739 31.533 65.6503 30.2422 65.6503H28.8591C23.2656 65.6503 17.9179 63.7082 12.816 59.8239C12.816 59.671 12.0784 58.9828 10.6032 57.7595C10.6032 57.4842 9.68118 56.3678 7.83714 54.4104L4.51788 47.6206C3.25779 46.336 1.9516 43.4305 0.599311 38.9039L0 34.6832L0.138303 33.261L0 32.9399C0.307339 28.9333 1.65963 24.4526 4.05687 19.4978C5.90091 16.1335 8.00618 13.1515 10.3727 10.5518C12.1245 8.56375 14.0454 7.11097 16.1353 6.19343C20.1 3.96074 22.1899 2.84439 22.405 2.84439C23.1734 2.66088 23.5575 2.43149 23.5575 2.15623C23.5575 1.94214 23.7112 1.75863 24.0185 1.6057V1.83509H24.3412V1.6057C24.0339 1.6057 23.8802 1.52924 23.8802 1.37632C24.8945 0.581112 25.8933 0.122339 26.8768 0ZM23.5575 1.0093V1.14693C23.5575 1.33044 23.2502 1.48336 22.6355 1.6057V1.46807C22.6355 1.28456 22.9429 1.13164 23.5575 1.0093ZM8.52866 37.5276C8.52866 44.4398 9.68118 48.3852 11.9862 49.3639C12.355 49.9144 14.0147 51.2143 16.9651 53.2635C22.3128 56.4137 27.3071 57.9888 31.9479 57.9888C34.13 57.9888 36.0201 57.4077 37.6183 56.2455L32.0862 50.832C27.2302 46.1219 24.8023 43.1858 24.8023 42.0236C24.8023 40.8613 25.7243 40.2802 27.5683 40.2802L29.5506 40.9684H29.8733C30.15 40.6625 30.6878 40.4026 31.4869 40.1885L31.6252 40.2802H32.7777C34.9291 40.2802 36.4965 41.1978 37.48 43.0329L42.8277 49.3639H43.1504C44.7793 46.1525 45.9779 41.4119 46.7463 35.142L46.8385 32.0223L46.7463 30.646L46.8385 30.1872L45.5937 23.3974L45.6859 23.0763C44.0263 18.3356 42.4896 15.4912 41.0759 14.5431C37.941 11.6681 34.2068 9.75656 29.8733 8.80843L27.7066 8.57905C27.2456 8.57905 26.7385 8.77785 26.1853 9.17545L25.4938 9.03782C24.6025 9.52717 23.911 9.80244 23.4192 9.86361C23.4192 9.58834 23.0812 9.16016 22.405 8.57905L22.4972 8.02852H22.405C21.6981 8.24261 21.1603 8.50258 20.7915 8.80843C17.1956 11.2246 14.491 14.9866 12.6777 20.0942C12.5241 20.0942 11.9555 21.5011 10.972 24.3149C10.2651 25.8442 9.60434 28.4133 8.98966 32.0223C8.68233 33.5516 8.52866 35.3867 8.52866 37.5276ZM50.2038 43.4916V43.6293H50.4343V43.4916H50.2038ZM17.1956 57.8512V58.0806C19.5929 60.0686 22.2513 61.292 25.1711 61.7508L27.9371 62.3472L28.4903 62.2095L29.4123 62.3472C30.1192 62.3472 31.4254 62.1178 33.3309 61.659V61.4296C28.3213 61.4296 24.1415 60.665 20.7915 59.1358L17.9793 58.0806L17.1956 57.8512Z" fill="#3E3E3E"/>
<path d="M86.5313 17.8462C87.3304 17.8462 88.3599 18.5191 89.62 19.8648C89.62 20.2625 90.6035 21.287 92.5705 22.9386C93.4925 24.9572 93.9535 27.664 93.9535 31.0589L94.5528 38.6286L94.4145 39.5462L94.5528 39.6838L94.4145 40.3261L94.7372 42.9411L94.5528 43.0787C95.4134 51.4896 96.3969 56.5666 97.5033 58.31L99.3473 63.6776L98.748 64.7787V64.9163L101.975 71.8438L102.159 72.8989C101.852 73.633 101.391 74 100.776 74H99.9927C98.5175 74 96.4583 71.9967 93.8152 67.9901C91.879 64.8704 90.1732 61.032 88.698 56.4749L88.5597 55.695H88.3753C86.4083 58.6311 84.7641 60.7262 83.4425 61.9802C80.9223 63.6317 79.1244 64.4575 78.0487 64.4575C75.6822 64.0599 74.3914 63.7541 74.1763 63.54C73.162 63.8153 71.8251 64.0141 70.1655 64.1364C67.6146 63.647 65.3864 62.6224 63.4809 61.0626C60.7763 58.1876 59.3318 55.4809 59.1474 52.9423C58.5634 49.6698 58.21 46.7336 58.0871 44.1339L58.2254 43.2164V41.5189L58.0871 41.3813L58.2254 41.2436V39.3627L58.0871 38.7663L58.2254 38.1699L58.0871 37.5276C58.4251 30.8601 58.9937 25.676 59.7928 21.9752C60.2231 19.8343 61.1451 18.7638 62.5588 18.7638C63.6653 19.2837 64.4951 19.8037 65.0483 20.3236H65.9703C67.6607 20.446 69.0591 20.9047 70.1655 21.6999C71.0875 22.7704 71.5485 24.1008 71.5485 25.6913L71.3641 26.15L71.5485 26.6088L71.3641 27.7099L71.5485 28.6274L71.3641 29.3614L71.5485 30.0037L71.3641 30.9213L71.5485 31.5177L71.2258 34.4538L71.3641 35.0961L71.2258 36.0136L71.5485 41.2436L71.3641 41.3813V41.5189C71.7944 47.483 72.5166 51.7495 73.5308 54.3187C74.0533 55.4809 74.5297 56.1385 74.96 56.2914C76.6811 55.6797 78.7863 53.9364 81.2758 51.0614C83.1198 48.7675 84.0418 46.7183 84.0418 44.9138L85.2866 40.4637L84.5028 34.775V33.5363C83.8882 29.8049 83.5808 26.0583 83.5808 22.2963C83.5808 20.186 84.5182 18.7026 86.393 17.8462H86.5313ZM63.9419 44.9138L64.1263 45.6937L63.9419 46.6113C64.0955 47.0089 64.2492 47.2077 64.4029 47.2077L64.2646 47.9876V48.1711L64.4029 48.9051L64.2646 49.8227C65.2173 55.2668 66.4621 57.9888 67.9987 57.9888L68.137 57.8512V57.6677C66.7233 55.1292 65.6476 52.2695 64.91 49.0887L64.7256 48.9051V46.9324L64.4029 44.9138H63.9419Z" fill="#3E3E3E"/>
<path d="M117.834 17.8921C119.709 18.0145 120.646 18.5038 120.646 19.3602C122.674 23.9173 124.549 29.5602 126.27 36.2889C126.485 37.9099 126.716 38.7204 126.962 38.7204L127.884 38.6286C128.253 38.6286 128.437 38.7051 128.437 38.858L128.529 38.7204H128.667C129.62 38.7204 130.22 39.3933 130.465 40.739C130.465 41.6871 129.559 42.5894 127.745 43.4458H127.653C128.821 51.6119 130.127 57.8053 131.572 62.026L131.71 62.5766C131.341 63.7082 130.619 64.274 129.543 64.274C129.543 64.3658 129.282 64.4422 128.76 64.5034C128.76 65.0845 128.468 65.3751 127.884 65.3751L126.639 65.2833L126.501 65.3751H126.409C126.132 65.3751 125.456 64.2587 124.38 62.026C123.243 59.3652 122.413 56.3373 121.891 52.9423L122.029 52.1624C121.783 51.7648 121.476 50.4956 121.107 48.3546L121.015 48.2629H120.876L116.589 50.1438C114.284 50.9085 113.131 51.5507 113.131 52.0707C112.179 55.802 111.456 57.6677 110.965 57.6677C109.92 57.9735 109.397 58.937 109.397 60.558L108.06 67.8524C107.599 68.3112 107.261 68.5406 107.046 68.5406L106.908 68.403H106.816L106.032 68.6324L105.894 68.3112H105.479L105.34 68.403H105.248L104.787 67.2102C104.787 64.4575 105.54 59.8545 107.046 53.4011L106.908 53.3094H106.816L103.773 53.7681H102.989C101.698 53.2176 101.053 52.6059 101.053 51.933L100.961 51.6119C101.483 50.5108 102.129 49.9603 102.897 49.9603C102.989 49.6851 103.85 49.4557 105.479 49.2722L105.571 49.1345V49.0428L105.34 48.3546V48.2629C105.34 47.1312 106.539 46.0455 108.936 45.0056C109.367 44.608 109.674 43.8587 109.858 42.7576C110.043 42.5741 110.381 40.9378 110.873 37.8487C112.01 34.4844 113.024 28.765 113.915 20.6906C114.622 19.6508 115.298 19.1308 115.944 19.1308C116.128 18.7944 116.758 18.3815 117.834 17.8921ZM117.742 31.8847C117.127 33.4751 116.451 36.8088 115.713 41.8859H115.944C117.911 41.366 119.186 40.9072 119.77 40.5096C118.725 34.9432 118.08 32.0682 117.834 31.8847H117.742Z" fill="#3E3E3E"/>
<path d="M136.136 17.9839L137.242 18.2591V18.1215L138.349 18.5344L140.008 18.2591C142.621 19.0543 143.927 20.0178 143.927 21.1494C144.142 21.1494 144.372 22.2505 144.618 24.4526H144.757L144.618 25.0031L145.033 28.2145L144.895 28.3521V28.4898L145.172 29.3156L145.31 35.509L145.172 38.3993L145.31 42.5741V44.088L145.172 46.4278H145.31L145.172 46.5654L145.31 48.9051V50.9696L145.448 51.1073L145.31 51.2449V51.3825L145.448 55.7867L145.863 56.062C158.034 51.6578 165.333 49.4557 167.761 49.4557H168.314C170.343 49.4557 171.68 50.465 172.325 52.4836L171.91 53.9975C173.57 54.7621 174.399 55.6797 174.399 56.7502L174.538 57.7136C173.677 59.304 172.663 60.0992 171.495 60.0992L170.389 59.9616C159.263 61.5214 151.364 63.2647 146.693 65.1916C144.88 66.1091 143.681 66.5679 143.097 66.5679C142.544 66.5679 141.238 66.0632 139.178 65.0539H139.04L138.21 65.3292C136.182 65.3292 134.937 64.5952 134.476 63.1271L134.338 62.3013V62.1637C135.106 61.0626 135.936 60.3745 136.827 60.0992V59.8239H136.966L136.689 57.9888L136.827 57.8512L136.689 54.8233V53.447L136.551 52.6212L136.966 46.9783L136.827 46.2901L136.966 44.088C136.966 40.3567 135.951 32.2517 133.923 19.7731C133.923 19.0085 134.661 18.4121 136.136 17.9839Z" fill="#3E3E3E"/>
<path d="M217.504 17.6169C220.977 18.2897 223.497 19.4672 225.064 21.1494C225.249 21.1494 225.356 21.8682 225.387 23.3056L225.249 23.9938C227.123 23.9938 229.259 25.9971 231.657 30.0037C232.517 31.2577 233.07 32.6034 233.316 34.0409C234.331 35.876 234.838 37.39 234.838 38.5828L234.653 39.225L235.668 43.4458L235.345 44.4092L235.529 46.2901V46.7948L235.022 51.1531L235.16 51.2908V51.4743C234.269 55.3585 232.133 59.044 228.752 62.5307C225.802 64.641 222.775 65.6962 219.671 65.6962L219.532 65.8797C217.166 65.8797 214.123 65.0998 210.404 63.54C205.241 60.3592 201.491 55.6032 199.156 49.2722L197.957 44.088L198.141 43.9045L197.957 43.0787V41.7483C197.957 40.4331 199.017 37.0229 201.138 31.5177H201C201.891 29.0709 202.736 27.4499 203.535 26.6547C204.765 23.4739 207.285 20.8589 211.096 18.8097C212.694 18.0145 214.83 17.6169 217.504 17.6169ZM208.053 41.4272C208.053 50.205 210.527 55.9549 215.475 58.677L216.49 58.8605C221.499 58.8605 224.757 54.1657 226.263 44.7762V44.088C226.263 42.0694 224.742 38.5522 221.699 33.5363C221.453 33.5363 220.224 31.8082 218.011 28.3521H217.642C213.77 29.5449 211.311 30.8754 210.266 32.3435C208.791 35.4019 208.053 38.4298 208.053 41.4272Z" fill="#3E3E3E"/>
<path d="M282.368 17.204C284.55 17.9992 285.641 19.2073 285.641 20.8283C285.702 22.3881 285.856 23.168 286.102 23.168C286.563 23.168 286.993 23.7032 287.393 24.7737C287.639 24.7737 287.792 25.3548 287.854 26.517L287.531 27.4346C287.685 32.1752 287.869 34.5456 288.084 34.5456L287.992 34.6832C289.006 40.0967 289.974 44.1645 290.896 46.8865L292.556 53.1717C294.185 60.0533 295.23 64.0905 295.691 65.2833C296.09 65.895 296.367 66.5067 296.521 67.1184C296.521 67.9136 296.136 68.4641 295.368 68.77C295.368 69.1676 294.938 69.4276 294.077 69.5499L293.939 69.6875C292.556 69.6875 290.881 68.6018 288.914 66.4303C284.212 61.7202 281.645 58.8911 281.215 57.943L276.052 51.6578C274.577 49.6698 273.639 48.5381 273.24 48.2629L273.009 48.4923L273.147 50.7402L273.009 52.1166C273.347 59.3957 273.731 63.4635 274.162 64.3199L274.07 64.4575L274.162 64.9163C274.162 65.895 273.701 66.6749 272.779 67.256C271.088 66.9196 269.92 66.3691 269.275 65.6045L267.984 63.0353L266.832 61.8884C265.295 58.3712 263.927 53.1717 262.729 46.2901C262.606 46.2901 262.252 44.3174 261.668 40.372L261.438 38.6286L261.576 38.491L261.438 37.8029L261.576 33.9492V33.7198L261.668 32.7105C261.361 31.8541 261.207 31.1507 261.207 30.6001C261.207 30.019 261.837 29.4685 263.098 28.9485H263.559C264.204 28.9485 265.018 29.3461 266.002 30.1414C266.002 30.386 266.355 30.7378 267.062 31.1965L267.154 31.0589C268.783 31.0589 269.874 31.4412 270.428 32.2058C270.919 32.2058 271.503 33.5363 272.179 36.1971L277.204 40.9684C280.985 45.2503 283.566 48.3087 284.949 50.1438L285.042 50.0062V49.9144C284.519 45.1126 283.428 37.6652 281.768 27.5722L280.478 19.9107C280.754 18.1062 281.384 17.204 282.368 17.204Z" fill="#3E3E3E"/>
<path d="M316.252 17.6169C319.725 18.2897 322.245 19.4672 323.812 21.1494C323.997 21.1494 324.104 21.8682 324.135 23.3056L323.997 23.9938C325.871 23.9938 328.008 25.9971 330.405 30.0037C331.265 31.2577 331.819 32.6034 332.064 34.0409C333.079 35.876 333.586 37.39 333.586 38.5828L333.401 39.225L334.416 43.4458L334.093 44.4092L334.277 46.2901V46.7948L333.77 51.1531L333.908 51.2908V51.4743C333.017 55.3585 330.881 59.044 327.5 62.5307C324.55 64.641 321.523 65.6962 318.419 65.6962L318.28 65.8797C315.914 65.8797 312.871 65.0998 309.152 63.54C303.989 60.3592 300.239 55.6032 297.904 49.2722L296.705 44.088L296.889 43.9045L296.705 43.0787V41.7483C296.705 40.4331 297.765 37.0229 299.886 31.5177H299.748C300.639 29.0709 301.484 27.4499 302.283 26.6547C303.513 23.4739 306.033 20.8589 309.844 18.8097C311.442 18.0145 313.578 17.6169 316.252 17.6169ZM306.801 41.4272C306.801 50.205 309.275 55.9549 314.223 58.677L315.238 58.8605C320.247 58.8605 323.505 54.1657 325.011 44.7762V44.088C325.011 42.0694 323.49 38.5522 320.447 33.5363C320.201 33.5363 318.972 31.8082 316.759 28.3521H316.39C312.518 29.5449 310.059 30.8754 309.014 32.3435C307.539 35.4019 306.801 38.4298 306.801 41.4272Z" fill="#3E3E3E"/>
<path d="M354.516 17.8462L355.069 17.9839H355.391V17.8462C359.387 17.8462 362.967 19.8954 366.133 23.9938C366.287 24.9113 366.532 25.5536 366.871 25.9206C366.871 27.144 366.087 28.0157 364.519 28.5356L363.643 28.6733C361.4 27.5111 359.095 26.9299 356.728 26.9299C352.948 26.9299 349.706 29.025 347.001 33.2151C347.063 33.521 347.646 33.8727 348.753 34.2703C349.122 34.6679 351.719 35.4937 356.544 36.7477C362.906 37.7876 366.993 38.8122 368.807 39.8215C371.02 40.6472 373.325 42.3141 375.722 44.8221C376.89 46.5654 377.474 48.6146 377.474 50.9696V51.4284C377.474 52.7435 376.736 54.7468 375.261 57.4383C372.464 60.558 370.067 62.5001 368.069 63.2647C363.49 64.9469 359.602 65.788 356.406 65.788L356.267 65.9256H356.129L355.991 65.788H355.806L354.193 65.9256H353.04L352.902 66.0632L352.718 65.9256H350.966C343.743 65.9256 338.841 63.0965 336.26 57.4383C336.044 57.4383 335.891 56.9948 335.799 56.1079L336.075 55.7867L337.274 56.5208H337.735V56.2455H338.011C338.442 56.2455 339.471 56.9337 341.1 58.31H341.561V57.4383L341.377 56.8419C341.623 56.0773 342.022 55.4809 342.575 55.0527C342.575 54.1352 342.96 53.4623 343.728 53.0341L344.466 51.1073H344.788L344.927 51.8413H345.065L346.263 51.566H346.678C347.57 51.8719 348.015 52.6059 348.015 53.7681C348.015 54.6245 348.261 55.2515 348.753 55.6491L348.615 57.4383C349.475 58.0806 351.78 58.6158 355.53 59.044L355.668 58.8605L356.728 59.044C360.078 59.044 363.305 58.2029 366.41 56.5208C368.592 54.6857 369.683 53.0341 369.683 51.566C369.683 49.7004 367.562 47.4982 363.321 44.9597L361.108 44.088C361.108 43.5069 359.202 42.8646 355.391 42.1612C350.474 41.7942 346.893 41.1672 344.65 40.2802C341.116 38.2616 339.348 35.9678 339.348 33.3986L338.426 30.0037C338.426 23.9785 343.543 19.9719 353.778 17.9839L354.516 17.8462Z" fill="#3E3E3E"/>
<path d="M397.02 17.8462L397.574 17.9839H397.896V17.8462C401.892 17.8462 405.472 19.8954 408.638 23.9938C408.792 24.9113 409.037 25.5536 409.375 25.9206C409.375 27.144 408.592 28.0157 407.024 28.5356L406.148 28.6733C403.905 27.5111 401.6 26.9299 399.233 26.9299C395.453 26.9299 392.211 29.025 389.506 33.2151C389.568 33.521 390.151 33.8727 391.258 34.2703C391.627 34.6679 394.224 35.4937 399.049 36.7477C405.411 37.7876 409.498 38.8122 411.312 39.8215C413.525 40.6472 415.83 42.3141 418.227 44.8221C419.395 46.5654 419.979 48.6146 419.979 50.9696V51.4284C419.979 52.7435 419.241 54.7468 417.766 57.4383C414.969 60.558 412.572 62.5001 410.574 63.2647C405.995 64.9469 402.107 65.788 398.911 65.788L398.772 65.9256H398.634L398.496 65.788H398.311L396.698 65.9256H395.545L395.407 66.0632L395.223 65.9256H393.471C386.248 65.9256 381.346 63.0965 378.765 57.4383C378.549 57.4383 378.396 56.9948 378.304 56.1079L378.58 55.7867L379.779 56.5208H380.24V56.2455H380.516C380.947 56.2455 381.976 56.9337 383.605 58.31H384.066V57.4383L383.882 56.8419C384.128 56.0773 384.527 55.4809 385.08 55.0527C385.08 54.1352 385.465 53.4623 386.233 53.0341L386.97 51.1073H387.293L387.431 51.8413H387.57L388.768 51.566H389.183C390.075 51.8719 390.52 52.6059 390.52 53.7681C390.52 54.6245 390.766 55.2515 391.258 55.6491L391.12 57.4383C391.98 58.0806 394.285 58.6158 398.035 59.044L398.173 58.8605L399.233 59.044C402.583 59.044 405.81 58.2029 408.914 56.5208C411.097 54.6857 412.188 53.0341 412.188 51.566C412.188 49.7004 410.067 47.4982 405.826 44.9597L403.613 44.088C403.613 43.5069 401.707 42.8646 397.896 42.1612C392.979 41.7942 389.398 41.1672 387.155 40.2802C383.62 38.2616 381.853 35.9678 381.853 33.3986L380.931 30.0037C380.931 23.9785 386.048 19.9719 396.283 17.9839L397.02 17.8462Z" fill="#3E3E3E"/>
<path d="M440.724 17.6169C444.197 18.2897 446.717 19.4672 448.285 21.1494C448.469 21.1494 448.577 21.8682 448.607 23.3056L448.469 23.9938C450.344 23.9938 452.48 25.9971 454.877 30.0037C455.738 31.2577 456.291 32.6034 456.537 34.0409C457.551 35.876 458.058 37.39 458.058 38.5828L457.874 39.225L458.888 43.4458L458.565 44.4092L458.749 46.2901V46.7948L458.242 51.1531L458.381 51.2908V51.4743C457.489 55.3585 455.353 59.044 451.973 62.5307C449.022 64.641 445.995 65.6962 442.891 65.6962L442.753 65.8797C440.386 65.8797 437.343 65.0998 433.625 63.54C428.461 60.3592 424.712 55.6032 422.376 49.2722L421.177 44.088L421.362 43.9045L421.177 43.0787V41.7483C421.177 40.4331 422.238 37.0229 424.358 31.5177H424.22C425.111 29.0709 425.956 27.4499 426.756 26.6547C427.985 23.4739 430.505 20.8589 434.316 18.8097C435.914 18.0145 438.05 17.6169 440.724 17.6169ZM431.273 41.4272C431.273 50.205 433.747 55.9549 438.696 58.677L439.71 58.8605C444.719 58.8605 447.977 54.1657 449.483 44.7762V44.088C449.483 42.0694 447.962 38.5522 444.919 33.5363C444.673 33.5363 443.444 31.8082 441.231 28.3521H440.862C436.99 29.5449 434.531 30.8754 433.486 32.3435C432.011 35.4019 431.273 38.4298 431.273 41.4272Z" fill="#3E3E3E"/>
<path d="M503.606 17.6169C507.079 18.2897 509.599 19.4672 511.166 21.1494C511.351 21.1494 511.458 21.8682 511.489 23.3056L511.351 23.9938C513.225 23.9938 515.361 25.9971 517.759 30.0037C518.619 31.2577 519.172 32.6034 519.418 34.0409C520.432 35.876 520.94 37.39 520.94 38.5828L520.755 39.225L521.769 43.4458L521.447 44.4092L521.631 46.2901V46.7948L521.124 51.1531L521.262 51.2908V51.4743C520.371 55.3585 518.235 59.044 514.854 62.5307C511.904 64.641 508.876 65.6962 505.772 65.6962L505.634 65.8797C503.268 65.8797 500.225 65.0998 496.506 63.54C491.343 60.3592 487.593 55.6032 485.257 49.2722L484.059 44.088L484.243 43.9045L484.059 43.0787V41.7483C484.059 40.4331 485.119 37.0229 487.24 31.5177H487.102C487.993 29.0709 488.838 27.4499 489.637 26.6547C490.866 23.4739 493.387 20.8589 497.198 18.8097C498.796 18.0145 500.932 17.6169 503.606 17.6169ZM494.155 41.4272C494.155 50.205 496.629 55.9549 501.577 58.677L502.591 58.8605C507.601 58.8605 510.859 54.1657 512.365 44.7762V44.088C512.365 42.0694 510.843 38.5522 507.801 33.5363C507.555 33.5363 506.326 31.8082 504.113 28.3521H503.744C499.871 29.5449 497.413 30.8754 496.368 32.3435C494.893 35.4019 494.155 38.4298 494.155 41.4272Z" fill="#3E3E3E"/>
<path d="M535.507 17.204C539.595 17.204 543.898 18.4121 548.416 20.8283C550.936 22.3575 552.503 23.5656 553.118 24.4526L553.533 25.8748C552.918 27.8934 552.257 30.5848 551.55 33.9492C550.506 36.4265 549.122 39.1027 547.401 41.9777V42.3906L553.395 43.5375C556.099 44.0574 558.927 44.9597 561.877 46.2443C563.567 47.0395 564.951 48.1252 566.026 49.5015L566.303 50.6944C565.688 54.6092 564.766 57.3619 563.537 58.9523C562.953 60.2674 561.616 61.5673 559.526 62.8518C557.989 63.9223 556.161 64.7481 554.04 65.3292C552.841 65.635 551.151 65.895 548.969 66.1091L548.323 65.9715H548.185L544.912 66.1091L541.547 65.1916C540.686 64.6716 540.117 64.4117 539.841 64.4117H539.564L537.859 64.5493L537.351 64.4117L536.706 64.5493C533.51 64.5493 531.681 63.8153 531.22 62.3472H531.358L531.635 62.0719L531.22 61.7049L532.004 60.925L531.635 59.2275L531.727 59.0899V58.9523C531.573 58.7076 531.404 57.683 531.22 55.8785L531.358 55.7409L531.082 53.2635L531.358 50.2815L531.082 48.584L531.22 48.217C530.021 47.5135 529.422 46.7336 529.422 45.8772C529.422 45.2961 529.975 44.6844 531.082 44.0422L531.22 43.6751C530.605 38.384 530.129 35.2643 529.791 34.3162L529.929 34.1786V34.0868C529.007 29.3156 528.177 26.9299 527.44 26.9299L525.089 26.2877C524.136 26.8994 523.537 27.2052 523.291 27.2052H521.723C520.955 27.2052 520.386 26.5935 520.018 25.3701C520.018 23.7491 522.538 21.6694 527.578 19.1308L530.206 18.2591C532.388 17.5557 534.155 17.204 535.507 17.204ZM536.061 25.3701C536.798 27.7863 537.321 30.6001 537.628 33.8115L537.766 33.9492L537.628 34.3162L537.997 37.8487V38.6286L538.273 38.858C541.47 36.1971 543.514 33.995 544.405 32.2517C545.972 29.7132 546.756 27.6334 546.756 26.0124V25.783C546.756 25.5077 545.834 25.2784 543.99 25.0949L543.852 25.2325C542.991 25.0796 541.608 25.0031 539.703 25.0031H538.135C536.752 25.0031 536.061 25.1254 536.061 25.3701ZM539.195 50.9237L539.841 56.2455C539.472 58.1418 538.811 59.0899 537.859 59.0899L537.49 59.2275H537.351L536.199 58.8605L535.784 60.0074L536.291 60.2827L540.348 60.0074L540.486 60.1451H540.625L541.915 59.8698L542.33 60.0074C547.371 59.1511 550.705 58.3253 552.334 57.5301C555.223 56.429 557.405 54.8386 558.881 52.7588C559.096 52.7588 559.265 52.4071 559.388 51.7037V51.566C559.388 50.4956 555.607 49.0734 548.047 47.2994H547.263C547.109 47.1159 546.464 46.9936 545.327 46.9324C543.544 46.9324 542.146 47.5288 541.132 48.7216C539.841 49.7615 539.195 50.3732 539.195 50.5567V50.9237Z" fill="#3E3E3E"/>
<path d="M596.868 17.8462L597.928 18.1215H598.712C600.341 18.6415 601.355 19.3449 601.754 20.2319C601.939 21.5164 602.999 25.0643 604.935 30.8754C606.257 36.136 606.918 40.0355 606.918 42.5741L607.056 42.7117V42.8493L606.779 45.235L607.056 48.1252C606.656 52.0707 606.042 54.6551 605.212 55.8785C604.413 57.1631 603.521 58.3406 602.538 59.411C602.415 61.3379 601.232 63.9682 598.988 67.3019C597.882 68.1889 596.422 68.6324 594.609 68.6324L593.18 68.4947V68.6324C587.217 67.5925 583.729 66.7208 582.715 66.0174C580.317 65.7727 574.862 62.179 566.349 55.2362C564.659 54.2881 563.644 53.2788 563.306 52.2083L563.03 51.6578V51.5201C563.306 51.5201 563.445 51.4437 563.445 51.2908V51.0155H563.03V50.8779L563.306 50.2356H563.813C565.657 50.3579 568.085 51.3978 571.097 53.3552C572.419 54.5175 573.218 55.0986 573.495 55.0986C573.833 53.9058 574.14 53.2482 574.417 53.1259V53.4929H574.785C575.246 52.453 576.045 51.933 577.183 51.933C578.412 52.7588 579.027 53.554 579.027 54.3187C579.365 55.6338 580.072 56.6278 581.147 57.3007C583.913 58.7993 586.725 59.5487 589.584 59.5487L589.999 59.2734L590.921 59.411C594.762 58.4323 597.236 57.1172 598.343 55.4656C598.466 55.068 598.589 53.5387 598.712 50.8779L598.573 50.465L598.712 50.3273C598.619 47.483 598.45 45.3879 598.205 44.0422L598.343 43.9045V43.7669L597.513 37.3441L597.651 36.9312L595.669 26.6547H595.162C590.613 27.7252 586.772 28.2604 583.637 28.2604H583.498L583.406 28.398L583.268 28.2604H583.13L574.924 27.9851V28.1228C573.756 27.9698 572.834 27.4499 572.158 26.5629C571.543 25.4925 571.236 24.6055 571.236 23.902C571.789 22.5869 572.665 21.9293 573.863 21.9293C574.386 20.3695 575.262 19.5896 576.491 19.5896L578.243 19.452H579.027L579.949 19.6813L580.594 19.5896L582.484 19.6813H583.775L584.466 19.5896L585.25 19.6813H585.388L588.523 19.452V19.5896C592.918 18.9473 595.7 18.3662 596.868 17.8462ZM574.278 52.713H574.509L574.278 52.9882V52.713Z" fill="#3E3E3E"/>
<path d="M634.578 17.8004L634.763 17.938H635.915L636.053 17.8004L636.468 17.938L637.206 17.8004C639.388 18.0145 640.725 18.4427 641.217 19.0849H641.539V18.9473L642.692 19.2226V19.3602L642.507 19.5437C641.647 19.8496 641.217 20.1248 641.217 20.3695L642.231 20.5071V20.8283C642.231 21.3176 641.032 21.7917 638.635 22.2505C637.805 22.6481 636.069 23.0763 633.426 23.535C628.232 24.8502 625.635 25.6607 625.635 25.9665L625.819 26.1042H625.957C637.36 24.0244 644.905 22.9845 648.593 22.9845H649.33C651.728 23.5044 652.926 24.4067 652.926 25.6913L653.065 26.4253V26.5629C653.065 26.9911 652.727 27.4652 652.05 27.9851C652.05 28.4745 649.207 28.9485 643.522 29.4073C639.219 30.0802 633.979 31.0436 627.801 32.2976C627.801 32.4811 627.279 32.5728 626.234 32.5728L624.943 33.0316C624.636 35.4784 624.482 37.9099 624.482 40.3261V40.7849L624.943 41.1978L637.759 38.3075L637.897 38.491L642.692 37.8946L644.121 38.0322H644.536C644.751 38.2157 645.135 38.3075 645.688 38.3075C647.317 39.6532 648.285 40.3261 648.593 40.3261L649.008 41.0601C649.192 41.733 649.346 42.0694 649.469 42.0694C649.038 43.2622 648.07 44.1645 646.564 44.7762C641.247 46.3054 635.761 47.4982 630.106 48.3546C625.988 49.3333 623.929 50.2968 623.929 51.2449V51.9789C623.929 53.814 623.837 55.1903 623.652 56.1079L623.929 56.7043L623.791 56.8419V57.4383L624.067 57.7136H624.344C627.018 57.2242 630.152 56.5055 633.748 55.5573L633.887 55.695H634.025C634.885 55.6032 635.608 55.4197 636.192 55.1445C637.913 55.1445 639.311 54.9915 640.387 54.6857L641.217 55.1445H641.539C641.877 54.8386 642.2 54.6857 642.507 54.6857H642.83C643.015 54.6857 643.107 54.8386 643.107 55.1445C644.859 54.8386 647.071 54.2575 649.745 53.4011L651.497 53.2635C653.894 53.6305 655.093 54.3951 655.093 55.5573L655.37 56.7043C654.663 58.1418 653.848 58.8605 652.926 58.8605C652.035 59.1969 650.007 59.5793 646.841 60.0074C637.774 61.8119 632.58 63.0048 631.259 63.5859C630.767 63.5859 628.8 64.3964 625.358 66.0174C623.668 66.9043 622.515 67.3478 621.9 67.3478L619.457 66.4761L616.414 67.7607C613.618 67.2408 612.219 66.3844 612.219 65.1916C612.066 65.1916 611.927 64.8093 611.804 64.0446L611.943 63.173L611.804 62.5766L613.095 60.4203C613.495 53.6611 613.879 49.318 614.248 47.3912L614.109 46.7948L615.124 35.0043C615.124 34.7291 614.202 34.0256 612.357 32.894C611.804 32.1294 611.528 31.4565 611.528 30.8754C611.589 30.386 611.927 29.8049 612.542 29.1321C612.542 28.9791 611.82 28.7497 610.375 28.4439C609.115 27.5569 608.485 26.777 608.485 26.1042V25.5536C608.485 23.8409 609.207 22.8316 610.652 22.5257L611.067 22.3881L611.205 22.5257H611.389C614.524 22.067 619.764 20.92 627.11 19.0849L634.578 17.8004ZM624.943 25.9665L624.805 26.1042V26.4253H624.943L625.22 26.1042L625.081 25.9665H624.943Z" fill="#3E3E3E"/>
<path d="M698.336 17.7086L700.871 17.8462H702.9L703.729 18.1674L705.85 17.8462L707.279 18.305L707.464 18.1674H707.602C708.954 18.1674 711.367 18.5803 714.84 19.4061V19.5437L714.563 19.8648C714.625 20.2319 714.963 20.4154 715.577 20.4154V20.553C715.577 21.1953 715.239 21.8529 714.563 22.5257L714.701 22.6634C714.763 23.061 715.009 23.2598 715.439 23.2598L715.854 25.6454C715.854 25.9818 715.285 26.41 714.148 26.9299L708.293 26.2418L708.155 26.3794H708.017L707.279 26.2418L701.148 26.6547L700.456 26.517C700.057 26.7006 697.583 26.9911 693.034 27.3887L692.757 27.8016L692.896 27.9392L692.757 28.0769H692.896L692.757 28.2145V28.3521C692.942 29.0862 693.126 31.2577 693.311 34.8667L693.449 35.0502L693.311 35.1879V35.3255L693.449 36.2889L693.311 38.1699L693.449 38.3075V38.4451L693.311 38.5828L693.449 40.1426L693.034 58.4476C693.034 59.3346 693.218 60.4203 693.587 61.7049V62.8518C692.973 63.8 692.22 64.274 691.328 64.274C689.515 63.8458 688.286 63.3259 687.64 62.7142L687.456 62.8518L687.779 63.6776V64.6869C687.779 65.1763 687.44 65.6503 686.764 66.1091C685.75 66.1091 684.413 65.3598 682.753 63.8611C681.524 61.5061 680.909 59.3652 680.909 57.4383L681.048 56.8878V56.7502L680.909 56.6125L681.048 56.4749V55.1903L680.909 51.7954L681.048 51.6119V51.4743L680.771 51.0614L681.048 50.2356V50.0521L680.909 49.6392L681.048 48.951V47.3912C680.495 39.4391 680.018 35.4631 679.619 35.4631L679.757 34.8667C679.542 34.8667 679.219 33.1234 678.789 29.6367C677.283 29.6367 673.718 30.4013 668.093 31.9306L658.366 36.7477L657.675 36.8853C654.632 36.1513 653.111 34.9126 653.111 33.1693C653.111 32.0376 653.771 31.2883 655.093 30.9213C658.166 29.392 660.21 28.4898 661.224 28.2145C661.993 27.2664 662.623 26.7923 663.115 26.7923C663.698 26.4559 665.312 25.9359 667.955 25.2325C671.889 23.428 676.499 21.8223 681.785 20.4154L682.062 20.1401H682.615C683.506 20.1401 684.797 19.8037 686.488 19.1308L686.903 19.2684C688.716 19.1461 689.622 18.9167 689.622 18.5803L690.637 18.7179L692.342 18.305L692.481 18.4427H692.619L698.336 17.7086ZM684.505 28.9485C684.598 31.6706 684.736 33.0316 684.92 33.0316L684.782 33.1693V33.3069L685.612 38.5828L685.473 38.7204L686.211 44.8221L686.073 45.3726L686.211 46.9324L686.073 47.5288L686.211 48.0794H686.488L686.764 43.3999L686.626 40.5555V40.1426L686.488 40.005L686.626 39.8673V39.4086H686.488L686.626 38.4451V38.1699C686.626 37.497 686.534 36.9771 686.349 36.61L686.488 36.1513L686.211 34.5914L686.349 34.1786C686.042 30.386 685.704 28.4898 685.335 28.4898H684.92L684.505 28.9485ZM686.211 48.4923L685.888 49.9144V50.9237L686.211 51.199L686.488 50.9237V49.6392L686.349 49.0887L686.488 48.4923H686.211ZM686.073 52.7588V53.2176H686.211L686.349 52.7588H686.073ZM685.888 53.9058V54.181L686.211 54.4563H686.349V53.9058H685.888ZM686.073 55.4656V56.3373H686.211C686.395 56.3373 686.488 56.1843 686.488 55.8785L686.349 55.4656H686.073Z" fill="#3E3E3E"/>
<path d="M716.361 17.8462C718.359 17.8462 719.358 18.1368 719.358 18.7179C720.064 19.1767 720.648 20.3542 721.109 22.2505H721.432C722.139 21.9446 723.215 21.7458 724.659 21.6541C726.288 21.6541 727.564 22.8316 728.486 25.1866L728.347 25.3242L728.486 25.4619L728.347 25.6454L728.486 25.783H728.347L728.486 25.9206V26.0583L728.67 29.4532H728.808L728.67 29.5908V29.7285L729.085 35.7843L728.947 37.6652L729.085 38.124L728.947 38.9957V39.7297L729.085 40.3261L728.947 40.4637V40.6472L729.085 41.5189L728.947 44.9138V45.1891L729.085 46.5195L728.947 47.7123L728.808 56.5208H728.947L728.808 56.6584C728.808 59.2275 729.254 61.8272 730.145 64.4575C730.145 65.3445 729.5 66.0327 728.209 66.522C725.535 66.522 723.768 65.6809 722.907 63.9988L721.248 65.788L721.109 65.6503H720.971L720.233 65.788C718.85 64.3199 718.159 61.8119 718.159 58.2641L718.297 57.3924L718.159 56.9795L718.297 55.6491V55.328L718.159 54.5939L718.436 52.5294C718.436 49.4404 717.314 40.479 715.07 25.6454L714.609 21.3788C714.609 19.4825 715.193 18.305 716.361 17.8462Z" fill="#3E3E3E"/>
<path d="M755.777 17.8004L756.377 17.938L756.653 17.8004C756.961 17.8004 757.252 18.2439 757.529 19.1308C757.652 19.1308 757.806 19.6202 757.99 20.5989L758.082 20.6906V20.7824C758.052 21.1188 757.606 21.6846 756.745 22.4799L756.93 22.6634H757.621C758.82 22.6634 759.742 23.4433 760.387 25.0031L758.866 29.7743C757.514 35.1267 755.562 45.602 753.011 61.2002C753.011 63.0048 752.658 64.1823 751.951 64.7328L750.337 64.9622C749.354 64.5952 748.678 64.2281 748.309 63.8611L748.217 63.7694H748.125L747.848 64.1823L747.94 64.641C747.725 66.2009 747.341 66.9808 746.788 66.9808C746.788 67.0725 746.403 67.1796 745.635 67.3019C744.406 67.3019 742.531 63.9376 740.011 57.2089C736.937 49.8074 734.694 43.614 733.28 38.6286C732.85 37.4053 732.373 35.2337 731.851 32.1141L731.759 31.4259C732.005 30.3249 732.45 29.7743 733.096 29.7743H733.28C733.772 29.7743 734.448 30.3249 735.308 31.4259H735.585C735.923 31.4259 736.277 31.3189 736.645 31.1048C739.135 32.0835 740.38 33.001 740.38 33.8574C741.209 34.989 742.393 37.6193 743.929 41.7483C744.421 42.9411 745.343 45.6326 746.695 49.8227H746.88L748.724 32.2058C749.277 28.0463 750.138 25.0184 751.305 23.1221C753.149 19.5743 754.64 17.8004 755.777 17.8004ZM751.305 38.3075H751.398L750.43 44.8221H750.522L750.337 46.3819H750.43L750.337 46.4737V47.1618L750.522 47.3912C750.768 46.8407 751.029 45.8772 751.305 44.5009L751.398 44.3633H751.49V44.9138L751.213 45.3726L751.305 45.6937H751.398C751.551 45.6937 751.705 45.2197 751.859 44.2715L751.49 44.1798V42.62L752.135 38.7204L752.55 38.0781H752.642V38.3075H752.735C752.857 38.3075 753.073 37.5276 753.38 35.9678V35.876L753.196 35.6466L752.919 35.876L752.827 35.4172L754.947 25.3242V25.0949H754.855C754.425 25.5842 753.841 26.7006 753.103 28.4439C752.396 30.4319 751.797 33.7198 751.305 38.3075ZM753.196 35.0961V35.4172H753.472L753.61 34.3162V34.1786H753.472C753.288 34.2397 753.196 34.5456 753.196 35.0961ZM736.277 35.6466V35.7384C736.277 36.7783 736.999 39.3627 738.443 43.4916C740.103 48.2323 741.67 52.4377 743.146 56.1079C744.16 58.5852 744.805 59.9157 745.082 60.0992C745.236 59.8851 745.358 59.3346 745.451 58.4476C744.098 55.4809 742.177 50.2356 739.688 42.7117C738.643 40.0203 737.537 37.6652 736.369 35.6466H736.277ZM752.55 38.858V39.1792H752.735V38.858H752.55ZM752.043 41.3813L751.951 41.5189V41.6107L752.135 41.84L752.227 41.7483V41.6107L752.043 41.3813ZM750.983 46.4737V46.8407H751.398V46.1525H751.305L750.983 46.4737ZM750.798 47.8041V48.1252H750.891L751.121 47.9417V47.8041H750.798ZM749.969 49.8227L750.061 49.9144H750.245V49.5933H750.153L749.969 49.8227ZM750.43 50.1438V50.6026L750.614 50.3732V50.1438H750.43ZM750.153 50.7861L750.337 51.0155L750.43 50.9237V50.7861H750.153Z" fill="#3E3E3E"/>
<path d="M781.502 17.6169C784.974 18.2897 787.495 19.4672 789.062 21.1494C789.246 21.1494 789.354 21.8682 789.385 23.3056L789.246 23.9938C791.121 23.9938 793.257 25.9971 795.654 30.0037C796.515 31.2577 797.068 32.6034 797.314 34.0409C798.328 35.876 798.835 37.39 798.835 38.5828L798.651 39.225L799.665 43.4458L799.343 44.4092L799.527 46.2901V46.7948L799.02 51.1531L799.158 51.2908V51.4743C798.267 55.3585 796.131 59.044 792.75 62.5307C789.8 64.641 786.772 65.6962 783.668 65.6962L783.53 65.8797C781.163 65.8797 778.121 65.0998 774.402 63.54C769.239 60.3592 765.489 55.6032 763.153 49.2722L761.955 44.088L762.139 43.9045L761.955 43.0787V41.7483C761.955 40.4331 763.015 37.0229 765.136 31.5177H764.997C765.889 29.0709 766.734 27.4499 767.533 26.6547C768.762 23.4739 771.282 20.8589 775.094 18.8097C776.692 18.0145 778.828 17.6169 781.502 17.6169ZM772.051 41.4272C772.051 50.205 774.525 55.9549 779.473 58.677L780.487 58.8605C785.497 58.8605 788.755 54.1657 790.261 44.7762V44.088C790.261 42.0694 788.739 38.5522 785.697 33.5363C785.451 33.5363 784.221 31.8082 782.009 28.3521H781.64C777.767 29.5449 775.309 30.8754 774.264 32.3435C772.788 35.4019 772.051 38.4298 772.051 41.4272Z" fill="#3E3E3E"/>
<path d="M826.957 0.596404C830.338 0.596404 832.412 2.09506 833.181 5.09237L833.273 5.45939V6.97334C833.273 8.77785 833.104 10.1083 832.766 10.9647L832.858 11.3776L830.553 16.2405L828.985 18.8097L824.283 25.5995L822.946 27.8016C822.946 27.9851 822.547 28.4745 821.748 29.2697C821.748 29.4532 821.394 30.019 820.687 30.9671C820.687 31.2118 820.119 32.1752 818.982 33.8574C818.889 34.255 818.413 35.0808 817.552 36.3348C817.122 36.8241 816.861 37.2982 816.769 37.757C816.338 38.2157 815.831 38.9804 815.247 40.0508C814.602 40.479 814.279 41.0448 814.279 41.7483L811.836 45.3267C809.039 49.8533 807.641 52.2083 807.641 52.3918L807.456 53.5846L807.548 53.6764H807.641C808.225 53.6764 810.668 51.6578 814.971 47.6206C815.647 46.7948 817.906 44.9291 821.748 42.0236C821.748 41.9012 821.993 41.84 822.485 41.84C822.915 41.3201 823.837 40.7237 825.251 40.0508L828.294 38.3534L830.691 37.5735C831.49 37.5735 832.059 37.8946 832.397 38.5369H832.489L832.259 39.6379L832.397 40.0508L832.259 40.1426L832.858 40.3261L839.266 38.2616V38.3534L841.479 37.8487L841.571 37.9405V38.0322L841.479 38.3534L841.571 38.2616H842.078L843 39.0415C842.539 39.5309 842.309 40.0355 842.309 40.5555C841.786 41.1978 840.08 41.993 837.191 42.9411L830.691 45.7396L825.666 48.3087C824.928 49.8074 823.791 51.0002 822.255 51.8872C822.193 52.0707 820.733 52.8047 817.875 54.0893C815.447 55.2821 813.572 56.0773 812.251 56.4749C810.56 58.0041 809.024 59.0746 807.641 59.6863C806.35 60.3898 805.09 60.7415 803.86 60.7415C802.877 60.7415 802.001 59.9463 801.233 58.3559C801.11 58.1112 801.048 57.7442 801.048 57.2548V56.9795C801.048 55.9702 801.817 54.2116 803.353 51.7037C803.753 49.3792 805.581 45.9843 808.839 41.5189C809.239 40.5402 810.284 38.9192 811.974 36.6559C812.159 36.0136 812.988 34.7138 814.464 32.7564L815.34 31.2883C815.954 30.4625 816.262 29.9578 816.262 29.7743L817.875 27.8016C818.213 27.0064 819.074 25.676 820.457 23.8103L826.081 14.6348L827.464 11.4693L828.57 7.75325L828.663 5.78053H828.57L827.879 5.45939C822.285 5.45939 816.707 8.71668 811.144 15.2312C809.177 17.8615 807.948 20.553 807.456 23.3056V23.4892L807.963 24.0856C808.056 24.7584 808.148 25.0949 808.24 25.0949L808.148 25.5995L808.24 26.2877L807.456 26.6088C806.504 26.6088 805.643 26.0124 804.875 24.8196L804.552 24.2232H804.46C804.214 24.2844 804.014 24.5749 803.86 25.0949L803.953 25.1866V25.2784L803.86 26.0124L803.953 26.1042V26.1959C803.953 26.3794 803.784 26.5476 803.445 26.7006L803.538 27.2052V27.297H803.261C802.739 27.297 802.139 26.1347 801.463 23.8103C801.463 22.067 802.431 20.0025 804.367 17.6169C805.105 16.4852 806.995 14.0384 810.038 10.2765C810.683 9.38954 811.759 8.28849 813.265 6.97334C815.816 4.55714 819.012 2.73734 822.854 1.51395C823.038 1.36102 824.406 1.05518 826.957 0.596404ZM820.457 58.4476C821.071 58.4476 821.748 58.9523 822.485 59.9616L823.177 59.8698L823.776 59.9616L823.868 59.8698H823.96C824.729 59.8698 825.267 60.4662 825.574 61.659C825.789 61.659 826.189 62.0872 826.773 62.9436C827.141 62.9436 827.449 63.5706 827.695 64.8246V64.9622C827.695 66.1244 826.757 67.8066 824.882 70.0087C824.575 70.3145 823.976 70.6815 823.084 71.1097V71.2015L823.684 72.119V72.2108C823.684 72.8225 823.177 73.2813 822.162 73.5871C820.472 73.5871 818.874 72.4708 817.368 70.2381C816.63 68.6477 816.262 67.6536 816.262 67.256L816.354 66.9349L816.262 66.0174C816.446 63.9988 817.383 61.8425 819.074 59.5487C819.074 59.1205 819.535 58.7535 820.457 58.4476Z" fill="#3E3E3E"/>
</svg>
