<?xml version="1.0" encoding="UTF-8"?>
<svg id="Camada_2" data-name="Camada 2" xmlns="http://www.w3.org/2000/svg" viewBox="0 0 1981.57 255.86">
  <defs>
    <style>
      .cls-1 {
        fill: #fff;
        stroke-width: 0px;
      }
    </style>
  </defs>
  <g id="Camada_1-2" data-name="Camada 1">
    <path class="cls-1" d="m0,255.86V15.88c4.96,1.49,9.49,3.31,10.82,5.46,17.27.09,35.91-2.05,24,2.86,2.73,3.07,18.81,2.08,26.41,1.71,5.67-2.3,19.51-6.1,23.3-5.2,5.25-6.25,18.94,8.15,22.14,10.75-.22-1.97,22.55-8.9,25.77-7.18-11.08,3.13.02,6.5,23.79,9.17-5.28,5.99,13.05-2.19,24.49-1.27,1.95-6.22,21.66,6.03,25.67,1.46,7.03,4.37,26.96,11.47,25.63,5.43,5.09-1.45,20.25-5.65,25.85-2-5.85-2.86,25.79-13.56,25.79-8.42s25.61,11.34,25.61-1.09c0,11.85,25.46-2.17,25.46-2.07,0,1.03,26.33,8.19,26.33,6.36,0-7.29,24.58-13.7,24.58-8.03,0,5.34,26.1,1.2,26.1,1.82,0,8.56,25.5,3.53,25.5-1.8,0-3.37,27.77-6.13,27.77,4.03,0,1.98,23.21-4.07,23.21-8.62,0-2.11,21.93-16.61,21.93-11.33,0-.06,27.01-3.94,27.01-1.2,0-5.68,25.9-7.85,25.9-6.14,0-3.93,26.82,14.12,26.82,12.76,0-1.2,25.07-.08,25.07-.75,0,1.62,27.91-.58,27.91-2.27,0,10.68,12.32,20.83,12.32,16.84,0-8.8,23.26,2.65,23.26,5.13,0-3.65,25.31,1.48,25.31-1.32,0-8.69,24.84,3.04,24.84-2.91,0-4.76,25.14-.12,25.14,2.66,0-.75,24.44,7.54,24.44,5.04,0,4.61,26.22-3.8,26.22-2.28,0,.47,23.19,11.03,23.19,14.04,0,.63,26.45-12.39,26.45-4.47,0,5.8,25.72-3.39,25.72.27,0,3.23,26.69-8.83,26.69,4.93,0-1.46,23.78-12.48,23.78-10.35,0-2.1,26.72-5.81,26.72-9.41,0,2.81,31.33-5.1,31.33.72,0-10.5,29.31-13.98,29.31-4.31,0-3.54,27.21.58,27.21,3.06,0-4.51,25.75-1.45,25.75-1.29,0-6.34,26.2-4.85,26.2-5.44,0,7.35,25.25,5.98,25.25,8.94,0-1.88,27.84-13.77,27.84-8.28,0-1.7,26.19-.28,26.19,2.26,0,9.93,25.24,4.4,25.24,5.16,0,1.12,23.04,12.26,23.04,11.38,0,1.92,26.48-4.79,26.48.71,0,.07,29.85-18.58,29.85-9.82,0,1.42,21.9,20.13,21.9,15.81,0-3.03,25.78-.17,25.78,4.19s27.23.29,27.23,1.12c0,6,27.74-5.49,27.74-3.69,0,1.63,27.32-1.27,27.32-4.61,0,1.89,26.51,3.02,26.51,5.57,0,1.2,26.91-4.77,26.91-3.96,0,1.59,26.95-6.83,26.95,5.83,0-1.49,26.4-2.67,26.4-10.27,0-4.98,27.53,9.87,27.53,10.75,0,11.59,26.25-3.25,26.25-8.31,0,7.9,27.2-3.11,27.2,3.39,0-1.64,26.28-12.97,26.28-6.52,0,4.6,25.59,3.57,25.59,2.57,0,3.29,26,6.66,26,6.89,0,15.88,25.31,3.95,25.31-.27,0-4.71,24.06-15.48,24.06-13.26,0-9.85,25.8-2.29,25.8,4.81,0-8.13,25.74,8.14,25.74,4.17,0-3.42,25.01-7.05,25.01-3.39,0-4.1,27.58-.8,25.31-.27-1.67,3.09,29.58-.18,27.62-1.49-10.62-.9,22.62-6.3,26.74-4.49,6.09-7.37,32.34-6.41,27.29-1.42,4.27,4.08,31.44-5.69,27.08-7.81,6.34-.58,20.99-1.93,28.47,1.75,1.02-1.15,9.65,1.18,16.92,3.8v223.38H0Z"/>
  </g>
</svg>