<svg width="492" height="83" viewBox="0 0 492 83" fill="none" xmlns="http://www.w3.org/2000/svg">
<path d="M22.1427 22.0602H23.0162C25.2444 22.2365 27.8651 23.2692 30.8782 25.1582C34.7522 28.7096 36.6892 30.7245 36.6892 31.2031C36.6892 31.3542 37.0057 31.732 37.6387 32.3365C38.449 33.9736 39.8416 36.1523 41.8166 38.8725C42.2977 40.4089 43.1839 42.3609 44.4752 44.7285L44.3993 44.8418V45.1063C45.5387 49.111 46.1084 52.3979 46.1084 54.9669C45.6779 58.745 45.0069 61.4148 44.0954 62.9764C44.0954 63.7068 43.3105 65.1928 41.7406 67.4345C41.0317 68.1901 40.6772 68.6309 40.6772 68.7568C44.6018 72.5852 47.2731 74.7261 48.6911 75.1795C49.4507 75.7084 49.8305 76.2751 49.8305 76.8796L49.6406 77.7485C50.4255 78.0004 51.0838 78.5041 51.6156 79.2597L51.7295 79.3353V79.4486C51.6029 80.4561 51.1218 80.9599 50.2862 80.9599C48.4125 80.9599 46.9186 80.5821 45.8045 79.8264C42.1331 77.3581 38.8414 74.9276 35.9296 72.5348H35.7397C32.2202 74.6505 29.1437 75.7839 26.5104 75.9351C26.5104 76.061 25.9787 76.124 24.9152 76.124H23.7758C19.1675 76.124 14.7618 74.5246 10.5586 71.3259C10.5586 71.1999 9.9509 70.6332 8.73553 69.6257C8.73553 69.3991 7.97591 68.4797 6.45669 66.8678L3.72209 61.2763C2.68396 60.2184 1.60784 57.8257 0.493747 54.098L0 50.6222L0.113942 49.451L0 49.1865C0.253204 45.8871 1.3673 42.1972 3.34229 38.1169C4.86151 35.3463 6.59595 32.8906 8.54562 30.7497C9.98888 29.1126 11.5714 27.9162 13.2932 27.1606C16.5595 25.3219 18.2813 24.4026 18.4585 24.4026C19.0916 24.2515 19.4081 24.0626 19.4081 23.8359C19.4081 23.6596 19.5347 23.5085 19.7879 23.3825V23.5714H20.0537V23.3825C19.8005 23.3825 19.6739 23.3196 19.6739 23.1936C20.5095 22.5388 21.3324 22.161 22.1427 22.0602ZM19.4081 22.8914V23.0047C19.4081 23.1558 19.1549 23.2818 18.6484 23.3825V23.2692C18.6484 23.1181 18.9017 22.9921 19.4081 22.8914ZM7.0264 52.9646C7.0264 58.6568 7.97591 61.9059 9.87494 62.7119C10.1788 63.1653 11.5461 64.2357 13.9768 65.9233C18.3826 68.5175 22.4971 69.8146 26.3205 69.8146C28.1183 69.8146 29.6755 69.3361 30.9921 68.379L26.4345 63.9209C22.4338 60.0421 20.4335 57.6242 20.4335 56.6671C20.4335 55.71 21.1931 55.2314 22.7124 55.2314L24.3455 55.7981H24.6114C24.8393 55.5462 25.2824 55.3322 25.9407 55.1558L26.0547 55.2314H27.0042C28.7766 55.2314 30.0679 55.987 30.8782 57.4982L35.2839 62.7119H35.5498C36.8918 60.0673 37.8793 56.1633 38.5123 51L38.5882 48.4309L38.5123 47.2975L38.5882 46.9197L37.5628 41.3282L37.6387 41.0638C36.2714 37.1598 35.0054 34.8174 33.8407 34.0366C31.258 31.669 28.1816 30.0948 24.6114 29.314L22.8263 29.1251C22.4465 29.1251 22.0287 29.2889 21.573 29.6163L21.0032 29.503C20.269 29.9059 19.6992 30.1326 19.2941 30.183C19.2941 29.9563 19.0156 29.6037 18.4585 29.1251L18.5345 28.6718H18.4585C17.8762 28.8481 17.4331 29.0622 17.1292 29.314C14.1667 31.3038 11.9386 34.4018 10.4446 38.608C10.318 38.608 9.84962 39.7666 9.03937 42.0838C8.457 43.3432 7.91261 45.4589 7.40621 48.4309C7.153 49.6903 7.0264 51.2015 7.0264 52.9646ZM41.3608 57.876V57.9894H41.5507V57.876H41.3608ZM14.1667 69.7013V69.8902C16.1417 71.5274 18.3319 72.5348 20.7374 72.9126L23.0162 73.4038L23.472 73.2904L24.2316 73.4038C24.814 73.4038 25.8901 73.2149 27.4599 72.8371V72.6482C23.3327 72.6482 19.8891 72.0185 17.1292 70.7591L14.8124 69.8902L14.1667 69.7013Z" fill="white"/>
<path d="M71.2895 36.7568C71.9478 36.7568 72.796 37.3109 73.8342 38.4191C73.8342 38.7466 74.6444 39.5903 76.2649 40.9504C77.0245 42.6128 77.4044 44.8418 77.4044 47.6375L77.8981 53.8713L77.7842 54.6269L77.8981 54.7403L77.7842 55.2692L78.05 57.4227L77.8981 57.536C78.6071 64.4624 79.4173 68.6434 80.3288 70.0791L81.8481 74.4994L81.3543 75.4061V75.5195L84.013 81.2243L84.1649 82.0933C83.9117 82.6978 83.5319 83 83.0255 83H82.3798C81.1644 83 79.468 81.3503 77.2904 78.0508C75.6952 75.4817 74.2899 72.3207 73.0746 68.5679L72.9606 67.9256H72.8087C71.1882 70.3436 69.8336 72.0689 68.7448 73.1015C66.6685 74.4616 65.1873 75.1417 64.3011 75.1417C62.3514 74.8142 61.2879 74.5624 61.1107 74.3861C60.2751 74.6128 59.1737 74.7765 57.8064 74.8772C55.7048 74.4742 53.8691 73.6305 52.2992 72.3459C50.071 69.9784 48.881 67.7493 48.729 65.6588C48.248 62.9638 47.9568 60.5458 47.8555 58.405L47.9694 57.6493V56.2515L47.8555 56.1381L47.9694 56.0248V54.4758L47.8555 53.9846L47.9694 53.4935L47.8555 52.9646C48.134 47.4738 48.6024 43.2046 49.2608 40.157C49.6153 38.3939 50.3749 37.5124 51.5396 37.5124C52.4511 37.9406 53.1348 38.3688 53.5905 38.7969H54.3502C55.7428 38.8977 56.8949 39.2755 57.8064 39.9303C58.566 40.8119 58.9458 41.9075 58.9458 43.2172L58.7939 43.595L58.9458 43.9728L58.7939 44.8796L58.9458 45.6352L58.7939 46.2397L58.9458 46.7686L58.7939 47.5242L58.9458 48.0153L58.6799 50.4333L58.7939 50.9622L58.6799 51.7178L58.9458 56.0248L58.7939 56.1381V56.2515C59.1484 61.1629 59.7434 64.6765 60.579 66.7922C61.0094 67.7493 61.4019 68.2908 61.7564 68.4168C63.1743 67.913 64.9088 66.4774 66.9597 64.1098C68.4789 62.2208 69.2385 60.5333 69.2385 59.0472L70.264 55.3825L69.6183 50.6978V49.6777C69.1119 46.6049 68.8587 43.5195 68.8587 40.4215C68.8587 38.6836 69.631 37.462 71.1755 36.7568H71.2895ZM52.679 59.0472L52.8309 59.6895L52.679 60.4451C52.8056 60.7725 52.9322 60.9362 53.0588 60.9362L52.9449 61.5785V61.7296L53.0588 62.3341L52.9449 63.0897C53.7298 67.573 54.7553 69.8146 56.0213 69.8146L56.1352 69.7013V69.5502C54.9705 67.4597 54.0843 65.1047 53.4766 62.4852L53.3247 62.3341V60.7096L53.0588 59.0472H52.679Z" fill="white"/>
<path d="M104.712 36.719L104.864 36.8323H105.814L105.928 36.719L106.27 36.8323L106.877 36.719C108.675 36.8953 109.776 37.2479 110.182 37.7769H110.447V37.6635L111.397 37.8902V38.0035L111.245 38.1547C110.536 38.4065 110.182 38.6332 110.182 38.8347L111.017 38.9481V39.2125C111.017 39.6155 110.03 40.0059 108.055 40.3837C107.371 40.7111 105.94 41.0638 103.763 41.4416C99.4837 42.5246 97.3441 43.192 97.3441 43.4439L97.4961 43.5573H97.61C107.004 41.8445 113.22 40.9882 116.258 40.9882H116.866C118.841 41.4164 119.829 42.1594 119.829 43.2172L119.943 43.8217V43.9351C119.943 44.2877 119.664 44.6781 119.107 45.1063C119.107 45.5092 116.765 45.8996 112.081 46.2774C108.536 46.8316 104.219 47.625 99.1292 48.6576C99.1292 48.8087 98.6988 48.8843 97.8379 48.8843L96.7744 49.2621C96.5212 51.2771 96.3946 53.2794 96.3946 55.2692V55.647L96.7744 55.987L107.333 53.6068L107.447 53.758L111.397 53.2668L112.574 53.3802H112.916C113.093 53.5313 113.41 53.6068 113.866 53.6068C115.208 54.7151 116.005 55.2692 116.258 55.2692L116.6 55.8737C116.752 56.4278 116.879 56.7048 116.98 56.7048C116.626 57.6871 115.828 58.4301 114.587 58.9339C110.207 60.1932 105.687 61.1755 101.028 61.8808C97.6353 62.6867 95.9389 63.4801 95.9389 64.2609V64.8654C95.9389 66.3766 95.8629 67.51 95.711 68.2656L95.9389 68.7568L95.8249 68.8701V69.3613L96.0528 69.588H96.2807C98.4836 69.185 101.066 68.5931 104.029 67.8123L104.143 67.9256H104.257C104.966 67.8501 105.561 67.6989 106.042 67.4723C107.46 67.4723 108.612 67.3463 109.498 67.0944L110.182 67.4723H110.447C110.726 67.2204 110.992 67.0944 111.245 67.0944H111.511C111.663 67.0944 111.739 67.2204 111.739 67.4723C113.182 67.2204 115.005 66.7418 117.208 66.0366L118.651 65.9233C120.626 66.2255 121.614 66.8552 121.614 67.8123L121.842 68.7568C121.259 69.9406 120.588 70.5325 119.829 70.5325C119.094 70.8095 117.423 71.1244 114.815 71.477C107.346 72.963 103.067 73.9453 101.978 74.4238C101.573 74.4238 99.9521 75.0913 97.1163 76.4262C95.7236 77.1566 94.7741 77.5218 94.2677 77.5218L92.2547 76.804L89.748 77.8619C87.4439 77.4337 86.2918 76.7285 86.2918 75.7462C86.1652 75.7462 86.0513 75.4313 85.95 74.8017L86.0639 74.0838L85.95 73.5927L87.0134 71.817C87.3426 66.2507 87.6591 62.6741 87.9629 61.0874L87.849 60.5962L88.6846 50.8867C88.6846 50.66 87.925 50.0807 86.4057 49.1488C85.95 48.5191 85.7221 47.965 85.7221 47.4864C85.7727 47.0834 86.0513 46.6049 86.5577 46.0508C86.5577 45.9248 85.9626 45.7359 84.7726 45.4841C83.7344 44.7536 83.2154 44.1114 83.2154 43.5573V43.1039C83.2154 41.6934 83.8104 40.8623 85.0005 40.6104L85.3423 40.497L85.4562 40.6104H85.6081C88.1908 40.2326 92.5079 39.2881 98.5595 37.7769L104.712 36.719ZM96.7744 43.4439L96.6605 43.5573V43.8217H96.7744L97.0023 43.5573L96.8884 43.4439H96.7744Z" fill="white"/>
<path d="M144.022 36.719C145.263 36.719 146.187 37.6383 146.795 39.477C147.656 40.5096 148.618 42.8394 149.681 46.4664L151.96 54.8536C151.96 55.7855 153.214 59.2613 155.72 65.281C159.544 73.0889 161.455 77.2952 161.455 77.8996L161.379 78.013H161.265L161.379 78.9953C161.379 79.3479 161.075 79.6753 160.468 79.9776H160.392C159.455 79.3731 158.987 78.9071 158.987 78.5797H158.607C158.075 79.839 157.277 80.4687 156.214 80.4687C154.669 79.965 153.644 79.2471 153.138 78.3152C151.846 75.5195 150.656 71.4392 149.567 66.0744C147.795 59.954 146.276 55.0929 145.01 51.4911C144.883 51.466 144.782 51.2393 144.706 50.8111H144.63C144.326 51.1385 143.693 53.695 142.731 58.4805V58.5939H142.845L142.351 61.3518L142.427 62.2208H142.351L142.427 62.3341V62.7119C142.427 63.6942 142.174 64.3869 141.667 64.7898C141.667 64.9662 142.022 65.6966 142.731 66.9811L142.845 67.3589V68.039C142.845 68.5679 142.452 68.8323 141.667 68.8323C140.022 68.8323 137.54 66.3388 134.223 61.3518C133.514 60.571 133.046 59.9414 132.818 59.4628H132.552V59.5761L132.438 65.961L132.324 66.6789L132.438 66.7544L132.324 67.2456V69.6257L132.248 69.7391L132.324 69.8146V72.3837L132.438 73.366C132.286 75.1543 131.818 76.0484 131.033 76.0484H130.349C128.83 75.4439 128.07 74.978 128.07 74.6505C128.07 74.1972 127.779 73.5423 127.197 72.6859C126.589 70.4947 125.83 64.9787 124.918 56.1381L124.994 56.0248V55.9114C124.412 50.597 123.855 47.9398 123.323 47.9398C122.133 47.1338 121.538 46.416 121.538 45.7863C121.538 45.1566 121.804 44.6655 122.335 44.3129L122.411 44.3884H122.525L124.69 44.0106C126.057 44.2625 126.956 44.6529 127.387 45.1818L128.374 45.0685C129.969 45.0685 131.223 45.9626 132.134 47.7509C134.641 50.3703 136.527 52.8261 137.793 55.1181H138.097L139.958 49.3377C140.49 47.4486 141.351 43.6706 142.541 38.0035C142.541 37.4998 143.035 37.0716 144.022 36.719Z" fill="white"/>
<path d="M201.715 36.719L201.867 36.8323H202.816L202.93 36.719L203.272 36.8323L203.88 36.719C205.677 36.8953 206.779 37.2479 207.184 37.7769H207.45V37.6635L208.399 37.8902V38.0035L208.247 38.1547C207.538 38.4065 207.184 38.6332 207.184 38.8347L208.019 38.9481V39.2125C208.019 39.6155 207.032 40.0059 205.057 40.3837C204.373 40.7111 202.943 41.0638 200.765 41.4416C196.486 42.5246 194.346 43.192 194.346 43.4439L194.498 43.5573H194.612C204.006 41.8445 210.222 40.9882 213.261 40.9882H213.868C215.843 41.4164 216.831 42.1594 216.831 43.2172L216.945 43.8217V43.9351C216.945 44.2877 216.666 44.6781 216.109 45.1063C216.109 45.5092 213.767 45.8996 209.083 46.2774C205.538 46.8316 201.221 47.625 196.132 48.6576C196.132 48.8087 195.701 48.8843 194.84 48.8843L193.777 49.2621C193.524 51.2771 193.397 53.2794 193.397 55.2692V55.647L193.777 55.987L204.335 53.6068L204.449 53.758L208.399 53.2668L209.577 53.3802H209.918C210.096 53.5313 210.412 53.6068 210.868 53.6068C212.21 54.7151 213.008 55.2692 213.261 55.2692L213.603 55.8737C213.755 56.4278 213.881 56.7048 213.982 56.7048C213.628 57.6871 212.83 58.4301 211.59 58.9339C207.209 60.1932 202.69 61.1755 198.031 61.8808C194.638 62.6867 192.941 63.4801 192.941 64.2609V64.8654C192.941 66.3766 192.865 67.51 192.713 68.2656L192.941 68.7568L192.827 68.8701V69.3613L193.055 69.588H193.283C195.486 69.185 198.069 68.5931 201.031 67.8123L201.145 67.9256H201.259C201.968 67.8501 202.563 67.6989 203.044 67.4723C204.462 67.4723 205.614 67.3463 206.5 67.0944L207.184 67.4723H207.45C207.728 67.2204 207.994 67.0944 208.247 67.0944H208.513C208.665 67.0944 208.741 67.2204 208.741 67.4723C210.184 67.2204 212.007 66.7418 214.21 66.0366L215.654 65.9233C217.629 66.2255 218.616 66.8552 218.616 67.8123L218.844 68.7568C218.262 69.9406 217.591 70.5325 216.831 70.5325C216.097 70.8095 214.425 71.1244 211.818 71.477C204.348 72.963 200.069 73.9453 198.98 74.4238C198.575 74.4238 196.954 75.0913 194.119 76.4262C192.726 77.1566 191.776 77.5218 191.27 77.5218L189.257 76.804L186.75 77.8619C184.446 77.4337 183.294 76.7285 183.294 75.7462C183.168 75.7462 183.054 75.4313 182.952 74.8017L183.066 74.0838L182.952 73.5927L184.016 71.817C184.345 66.2507 184.661 62.6741 184.965 61.0874L184.851 60.5962L185.687 50.8867C185.687 50.66 184.927 50.0807 183.408 49.1488C182.952 48.5191 182.724 47.965 182.724 47.4864C182.775 47.0834 183.054 46.6049 183.56 46.0508C183.56 45.9248 182.965 45.7359 181.775 45.4841C180.737 44.7536 180.218 44.1114 180.218 43.5573V43.1039C180.218 41.6934 180.813 40.8623 182.003 40.6104L182.345 40.497L182.459 40.6104H182.61C185.193 40.2326 189.51 39.2881 195.562 37.7769L201.715 36.719ZM193.777 43.4439L193.663 43.5573V43.8217H193.777L194.005 43.5573L193.891 43.4439H193.777Z" fill="white"/>
<path d="M251.355 36.7946C252.9 36.8953 253.672 37.2983 253.672 38.0035C255.343 41.7564 256.888 46.4034 258.306 51.9445C258.483 53.2794 258.673 53.9469 258.875 53.9469L259.635 53.8713C259.939 53.8713 260.091 53.9343 260.091 54.0602L260.167 53.9469H260.281C261.066 53.9469 261.559 54.501 261.762 55.6092C261.762 56.39 261.015 57.133 259.521 57.8383H259.445C260.407 64.5632 261.483 69.6635 262.673 73.1393L262.787 73.5927C262.484 74.5246 261.889 74.9906 261.002 74.9906C261.002 75.0661 260.787 75.1291 260.357 75.1795C260.357 75.658 260.116 75.8973 259.635 75.8973L258.61 75.8217L258.496 75.8973H258.42C258.192 75.8973 257.635 74.978 256.748 73.1393C255.812 70.9481 255.128 68.4545 254.698 65.6588L254.811 65.0165C254.609 64.6891 254.356 63.6438 254.052 61.8808L253.976 61.8052H253.862L250.33 63.3542C248.431 63.9839 247.481 64.5128 247.481 64.941C246.696 68.0138 246.101 69.5502 245.696 69.5502C244.835 69.802 244.405 70.5954 244.405 71.9303L243.303 77.9374C242.924 78.3152 242.645 78.5041 242.468 78.5041L242.354 78.3908H242.278L241.632 78.5797L241.518 78.3152H241.176L241.063 78.3908H240.987L240.607 77.4085C240.607 75.1417 241.227 71.351 242.468 66.0366L242.354 65.961H242.278L239.771 66.3388H239.126C238.062 65.8855 237.53 65.3817 237.53 64.8276L237.454 64.5632C237.885 63.6564 238.417 63.2031 239.05 63.2031C239.126 62.9764 239.834 62.7875 241.176 62.6364L241.252 62.523V62.4475L241.063 61.8808V61.8052C241.063 60.8733 242.05 59.9791 244.025 59.1228C244.379 58.7954 244.633 58.1783 244.785 57.2715C244.937 57.1204 245.215 55.7729 245.62 53.229C246.557 50.4585 247.393 45.7485 248.127 39.0992C248.709 38.2428 249.266 37.8146 249.798 37.8146C249.95 37.5376 250.469 37.1976 251.355 36.7946ZM251.279 48.3176C250.773 49.6273 250.216 52.3727 249.608 56.5537H249.798C251.419 56.1255 252.469 55.7477 252.95 55.4203C252.09 50.8363 251.558 48.4687 251.355 48.3176H251.279Z" fill="white"/>
<path d="M294.805 19C296.577 19 297.919 19.9571 298.831 21.8713C299.869 23.3573 300.869 25.4227 301.831 28.0673C302.034 28.1932 303.072 30.863 304.946 36.0767L308.06 45.3707L308.402 45.4841L313.719 43.7462L315.087 43.5195L315.428 43.6328L316.378 43.2928L317.176 43.6328V43.5195L318.087 44.2373H318.543L324.202 42.2727C326.506 43.1795 327.658 44.1743 327.658 45.2574C327.658 46.9449 327 47.7887 325.683 47.7887C322.999 48.2168 321.657 48.6702 321.657 49.1488L321.201 49.0354C317.657 50.4459 314.238 52.0453 310.947 53.8335C314.086 64.2357 315.973 70.205 316.606 71.7414C316.986 72.8497 317.669 74.0335 318.657 75.2928L318.885 76.6529V76.7662C318.328 77.6981 317.72 78.2397 317.062 78.3908L316.948 78.5041L315.542 78.3908H314.289C313.555 77.6856 312.82 76.2247 312.086 74.0083C311.58 72.497 311.048 71.7414 310.491 71.7414C309.022 68.8449 307.364 63.9083 305.516 56.9315L305.402 56.8182H305.174C303.072 57.9264 299.236 60.294 293.666 63.9209C292.982 64.1476 292.64 64.6513 292.64 65.4321C292.058 71.1495 291.551 74.0083 291.121 74.0083C290.766 74.3357 290.387 74.4994 289.981 74.4994L289.868 74.6128V75.9728C289.868 76.5773 289.285 77.1944 288.12 77.8241C286.981 77.8241 285.715 77.3203 284.322 76.3129L284.208 75.7462V75.4061C284.436 74.7513 284.905 71.6911 285.614 66.2255C284.525 65.0417 283.981 64.2735 283.981 63.9209L283.753 63.4675C284.031 62.1578 284.841 61.3644 286.183 61.0874L286.411 60.0295V59.8028C286.107 59.4754 285.956 59.1732 285.956 58.8961C285.956 58.4931 286.221 58.0775 286.753 57.6493C287.513 52.7883 288.323 46.7056 289.184 39.4014L289.07 39.2881L289.526 35.51L289.412 35.3967V35.2834L289.868 31.8453L289.754 31.5053L290.437 24.4026L290.323 24.2893V24.1759C290.45 24.0248 290.564 23.1433 290.665 21.5313L290.551 21.1913C290.779 19.8815 291.361 19.2267 292.298 19.2267L293.438 19.1133V19.2267L293.552 19.1133H293.666L294.121 19.2267L294.805 19ZM294.121 47.562L294.007 47.902L294.121 48.0153V48.1287L293.893 52.7001H294.235C294.995 52.1208 296.185 51.3526 297.805 50.3955L298.147 49.9421L298.261 50.0555H298.375L303.123 47.902V47.4486L302.553 46.9575L302.325 46.3908L302.439 46.2774V46.1641C302.439 45.8367 302.237 45.5722 301.831 45.3707C301.831 44.6403 301.262 43.0661 300.122 40.6482C298.704 37.1724 297.16 33.8099 295.489 30.5608C294.957 30.5608 294.501 36.2279 294.121 47.562Z" fill="white"/>
<path d="M327.582 36.8701L328.494 37.0968V36.9835L329.405 37.3235L330.773 37.0968C332.925 37.7517 334.001 38.5451 334.001 39.477C334.178 39.477 334.368 40.3837 334.571 42.1972H334.685L334.571 42.6505L334.912 45.2952L334.798 45.4085V45.5218L335.026 46.2019L335.14 51.3022L335.026 53.6824L335.14 57.1204V58.3672L335.026 60.294H335.14L335.026 60.4073L335.14 62.3341V64.0342L335.254 64.1476L335.14 64.2609V64.3743L335.254 68.0012L335.596 68.2279C345.623 64.6009 351.637 62.7875 353.637 62.7875H354.093C355.764 62.7875 356.865 63.6187 357.397 65.281L357.055 66.5277C358.422 67.1574 359.106 67.913 359.106 68.7946L359.22 69.588C358.511 70.8977 357.675 71.5525 356.713 71.5525L355.802 71.4392C346.636 72.7237 340.128 74.1594 336.28 75.7462C334.786 76.5018 333.798 76.8796 333.317 76.8796C332.862 76.8796 331.785 76.464 330.089 75.6328H329.975L329.291 75.8595C327.62 75.8595 326.595 75.255 326.215 74.046L326.101 73.366V73.2527C326.734 72.3459 327.418 71.7792 328.152 71.5525V71.3259H328.266L328.038 69.8146L328.152 69.7013L328.038 67.2078V66.0744L327.924 65.3943L328.266 60.7473L328.152 60.1806L328.266 58.3672C328.266 55.2944 327.43 48.6198 325.759 38.3436C325.759 37.7139 326.367 37.2227 327.582 36.8701Z" fill="white"/>
<path d="M372.969 36.7946C374.513 36.8953 375.286 37.2983 375.286 38.0035C376.957 41.7564 378.501 46.4034 379.919 51.9445C380.097 53.2794 380.287 53.9469 380.489 53.9469L381.249 53.8713C381.553 53.8713 381.704 53.9343 381.704 54.0602L381.78 53.9469H381.894C382.679 53.9469 383.173 54.501 383.376 55.6092C383.376 56.39 382.629 57.133 381.135 57.8383H381.059C382.021 64.5632 383.097 69.6635 384.287 73.1393L384.401 73.5927C384.097 74.5246 383.502 74.9906 382.616 74.9906C382.616 75.0661 382.401 75.1291 381.97 75.1795C381.97 75.658 381.73 75.8973 381.249 75.8973L380.223 75.8217L380.109 75.8973H380.033C379.805 75.8973 379.248 74.978 378.362 73.1393C377.425 70.9481 376.742 68.4545 376.311 65.6588L376.425 65.0165C376.223 64.6891 375.969 63.6438 375.666 61.8808L375.59 61.8052H375.476L371.943 63.3542C370.044 63.9839 369.095 64.5128 369.095 64.941C368.31 68.0138 367.715 69.5502 367.31 69.5502C366.449 69.802 366.019 70.5954 366.019 71.9303L364.917 77.9374C364.537 78.3152 364.259 78.5041 364.082 78.5041L363.968 78.3908H363.892L363.246 78.5797L363.132 78.3152H362.79L362.676 78.3908H362.6L362.22 77.4085C362.22 75.1417 362.841 71.351 364.082 66.0366L363.968 65.961H363.892L361.385 66.3388H360.739C359.676 65.8855 359.144 65.3817 359.144 64.8276L359.068 64.5632C359.499 63.6564 360.03 63.2031 360.663 63.2031C360.739 62.9764 361.448 62.7875 362.79 62.6364L362.866 62.523V62.4475L362.676 61.8808V61.8052C362.676 60.8733 363.664 59.9791 365.639 59.1228C365.993 58.7954 366.246 58.1783 366.398 57.2715C366.55 57.1204 366.829 55.7729 367.234 53.229C368.171 50.4585 369.006 45.7485 369.741 39.0992C370.323 38.2428 370.88 37.8146 371.412 37.8146C371.564 37.5376 372.083 37.1976 372.969 36.7946ZM372.893 48.3176C372.387 49.6273 371.83 52.3727 371.222 56.5537H371.412C373.032 56.1255 374.083 55.7477 374.564 55.4203C373.703 50.8363 373.172 48.4687 372.969 48.3176H372.893Z" fill="white"/>
<path d="M408.215 36.719C409.456 36.719 410.38 37.6383 410.987 39.477C411.848 40.5096 412.811 42.8394 413.874 46.4664L416.153 54.8536C416.153 55.7855 417.406 59.2613 419.913 65.281C423.736 73.0889 425.648 77.2952 425.648 77.8996L425.572 78.013H425.458L425.572 78.9953C425.572 79.3479 425.268 79.6753 424.66 79.9776H424.585C423.648 79.3731 423.179 78.9071 423.179 78.5797H422.799C422.268 79.839 421.47 80.4687 420.407 80.4687C418.862 79.965 417.837 79.2471 417.33 78.3152C416.039 75.5195 414.849 71.4392 413.76 66.0744C411.988 59.954 410.468 55.0929 409.202 51.4911C409.076 51.466 408.975 51.2393 408.899 50.8111H408.823C408.519 51.1385 407.886 53.695 406.924 58.4805V58.5939H407.038L406.544 61.3518L406.62 62.2208H406.544L406.62 62.3341V62.7119C406.62 63.6942 406.367 64.3869 405.86 64.7898C405.86 64.9662 406.215 65.6966 406.924 66.9811L407.038 67.3589V68.039C407.038 68.5679 406.645 68.8323 405.86 68.8323C404.214 68.8323 401.733 66.3388 398.416 61.3518C397.707 60.571 397.239 59.9414 397.011 59.4628H396.745V59.5761L396.631 65.961L396.517 66.6789L396.631 66.7544L396.517 67.2456V69.6257L396.441 69.7391L396.517 69.8146V72.3837L396.631 73.366C396.479 75.1543 396.01 76.0484 395.226 76.0484H394.542C393.023 75.4439 392.263 74.978 392.263 74.6505C392.263 74.1972 391.972 73.5423 391.39 72.6859C390.782 70.4947 390.022 64.9787 389.111 56.1381L389.187 56.0248V55.9114C388.604 50.597 388.047 47.9398 387.516 47.9398C386.325 47.1338 385.73 46.416 385.73 45.7863C385.73 45.1566 385.996 44.6655 386.528 44.3129L386.604 44.3884H386.718L388.883 44.0106C390.25 44.2625 391.149 44.6529 391.579 45.1818L392.567 45.0685C394.162 45.0685 395.415 45.9626 396.327 47.7509C398.834 50.3703 400.72 52.8261 401.986 55.1181H402.29L404.151 49.3377C404.683 47.4486 405.544 43.6706 406.734 38.0035C406.734 37.4998 407.227 37.0716 408.215 36.719Z" fill="white"/>
<path d="M441.334 36.5679C444.195 37.122 446.271 38.0917 447.563 39.477C447.715 39.477 447.803 40.0689 447.829 41.2527L447.715 41.8194C449.259 41.8194 451.019 43.4691 452.994 46.7686C453.703 47.8013 454.159 48.9095 454.361 50.0933C455.197 51.6045 455.615 52.8512 455.615 53.8335L455.463 54.3625L456.298 57.8383L456.032 58.6316L456.184 60.1806V60.5962L455.767 64.1854L455.88 64.2987V64.4498C455.146 67.6486 453.386 70.6836 450.601 73.5549C448.17 75.2928 445.676 76.1617 443.119 76.1617L443.005 76.3129C441.055 76.3129 438.549 75.6706 435.485 74.3861C431.231 71.7666 428.142 67.8501 426.218 62.6364L425.23 58.3672L425.382 58.2161L425.23 57.536V56.4404C425.23 55.3573 426.104 52.549 427.851 48.0153H427.737C428.471 46.0004 429.168 44.6655 429.826 44.0106C430.839 41.3912 432.915 39.2377 436.055 37.5502C437.371 36.8953 439.131 36.5679 441.334 36.5679ZM433.548 56.1759C433.548 63.4046 435.586 68.1397 439.663 70.3813L440.498 70.5325C444.626 70.5325 447.31 66.6663 448.55 58.9339V58.3672C448.55 56.7048 447.297 53.8083 444.79 49.6777C444.588 49.6777 443.575 48.2546 441.752 45.4085H441.448C438.258 46.3908 436.232 47.4864 435.371 48.6954C434.156 51.2141 433.548 53.7076 433.548 56.1759Z" fill="white"/>
<path d="M478.783 22.5514C481.568 22.5514 483.277 23.7855 483.91 26.2538L483.986 26.5561V27.8028C483.986 29.2889 483.847 30.3845 483.568 31.0897L483.644 31.4298L481.745 35.4345L480.454 37.5502L476.58 43.1417L475.478 44.9551C475.478 45.1063 475.149 45.5092 474.491 46.1641C474.491 46.3152 474.2 46.7812 473.617 47.562C473.617 47.7635 473.149 48.5569 472.212 49.9421C472.136 50.2696 471.744 50.9496 471.035 51.9823C470.68 52.3853 470.465 52.7757 470.389 53.1535C470.035 53.5313 469.617 54.161 469.136 55.0425C468.604 55.3951 468.338 55.8611 468.338 56.4404L466.325 59.3872C464.021 63.1149 462.869 65.0543 462.869 65.2054L462.717 66.1877L462.793 66.2633H462.869C463.35 66.2633 465.363 64.6009 468.908 61.2763C469.465 60.5962 471.326 59.0598 474.491 56.6671C474.491 56.5663 474.694 56.5159 475.099 56.5159C475.453 56.0878 476.213 55.5966 477.377 55.0425L479.884 53.6446L481.859 53.0024C482.518 53.0024 482.986 53.2668 483.264 53.7957H483.34L483.151 54.7025L483.264 55.0425L483.151 55.1181L483.644 55.2692L488.924 53.5691V53.6446L490.747 53.229L490.823 53.3046V53.3802L490.747 53.6446L490.823 53.5691H491.24L492 54.2113C491.62 54.6143 491.43 55.0299 491.43 55.4581C491 55.987 489.595 56.6419 487.214 57.4227L481.859 59.7273L477.719 61.843C477.112 63.0771 476.175 64.0594 474.909 64.7898C474.858 64.941 473.655 65.5455 471.301 66.6033C469.3 67.5856 467.756 68.2405 466.667 68.5679C465.274 69.8272 464.008 70.7088 462.869 71.2125C461.805 71.7918 460.767 72.0815 459.754 72.0815C458.944 72.0815 458.223 71.4266 457.59 70.1169C457.488 69.9154 457.438 69.6131 457.438 69.2102V68.9835C457.438 68.1523 458.071 66.7041 459.337 64.6387C459.666 62.7245 461.172 59.9288 463.856 56.2515C464.186 55.4455 465.046 54.1106 466.439 52.2468C466.591 51.7178 467.275 50.6474 468.49 49.0354L469.212 47.8264C469.718 47.1464 469.971 46.7308 469.971 46.5797L471.301 44.9551C471.579 44.3003 472.288 43.2046 473.427 41.6682L478.061 34.1122L479.201 31.5053L480.112 28.4451L480.188 26.8205H480.112L479.542 26.5561C474.934 26.5561 470.338 29.2385 465.755 34.6033C464.135 36.7694 463.122 38.9858 462.717 41.2527V41.4038L463.135 41.8949C463.211 42.449 463.287 42.7261 463.363 42.7261L463.287 43.1417L463.363 43.7084L462.717 43.9728C461.932 43.9728 461.223 43.4817 460.59 42.4994L460.324 42.0083H460.248C460.046 42.0586 459.881 42.2979 459.754 42.7261L459.83 42.8017V42.8772L459.754 43.4817L459.83 43.5573V43.6328C459.83 43.7839 459.691 43.9225 459.413 44.0484L459.489 44.464V44.5396H459.261C458.83 44.5396 458.337 43.5824 457.78 41.6682C457.78 40.2326 458.577 38.5325 460.172 36.5679C460.78 35.636 462.337 33.621 464.844 30.523C465.376 29.7926 466.262 28.8859 467.503 27.8028C469.604 25.8131 472.237 24.3144 475.402 23.307C475.554 23.181 476.681 22.9292 478.783 22.5514ZM473.427 70.1924C473.934 70.1924 474.491 70.608 475.099 71.4392L475.668 71.3636L476.162 71.4392L476.238 71.3636H476.314C476.947 71.3636 477.39 71.8548 477.643 72.8371C477.821 72.8371 478.15 73.1897 478.631 73.8949C478.935 73.8949 479.188 74.4113 479.39 75.4439V75.5573C479.39 76.5144 478.618 77.8996 477.074 79.7131C476.82 79.965 476.327 80.2672 475.592 80.6198V80.6954L476.086 81.451V81.5266C476.086 82.0303 475.668 82.4081 474.833 82.66C473.44 82.66 472.124 81.7407 470.883 79.902C470.275 78.5923 469.971 77.7737 469.971 77.4463L470.047 77.1818L469.971 76.4262C470.123 74.7639 470.895 72.9882 472.288 71.0992C472.288 70.7466 472.668 70.4443 473.427 70.1924Z" fill="white"/>
<path d="M203.333 22.2143L206.667 20.2857L210.667 19L213 20.2857L210.667 22.2143L205 26.7143L203.333 28L200 26.7143L201.333 24.7857L203.333 22.2143Z" fill="white"/>
<path d="M305.333 3.21429L308.667 1.28571L312.667 0L315 1.28571L312.667 3.21429L307 7.71429L305.333 9L302 7.71429L303.333 5.78571L305.333 3.21429Z" fill="white"/>
</svg>
