<svg width="317" height="158" viewBox="0 0 317 158" fill="none" xmlns="http://www.w3.org/2000/svg">
<path d="M26.7188 1.76562L26.7891 1.83594H26.8359L27.3047 1.76562L27.6094 1.83594L27.7734 1.76562C29.2422 1.85938 29.9766 2.13281 29.9766 2.58594C30.2422 3.02344 30.5 3.24219 30.75 3.24219C31.5625 3.24219 31.9688 3.375 31.9688 3.64062L32.3203 3.99219V4.10938C32.2266 4.10938 32.1797 4.14844 32.1797 4.22656V4.29688C32.2734 4.53125 32.375 4.64844 32.4844 4.64844V5.07031C32.1719 5.41406 31.6484 5.58594 30.9141 5.58594C30.6641 5.72656 30.1953 5.82812 29.5078 5.89062C29.5078 5.95313 28.875 6.07031 27.6094 6.24219H27.4688L27.3984 6.17188C27.2734 6.25 26.4375 6.36719 24.8906 6.52344L24.8438 6.59375L24.6797 6.64062L24.6328 6.59375H24.5859L23.6484 6.75781L23.4844 6.71094L22.9219 6.82812L22.6406 6.75781C22.6406 6.88281 22.3984 6.96094 21.9141 6.99219H21.5625L21.3516 7.17969L20.7188 7.10938C20.4531 7.23437 19.0703 7.49219 16.5703 7.88281L15.7031 8.1875L15.75 8.46875L15.7031 8.65625L15.7969 9.47656C15.7344 9.66406 15.7031 10.0156 15.7031 10.5312V12.5234L15.75 12.5938L15.7031 12.6406V12.7578L15.75 12.8281L15.7031 12.875L15.7969 17.0469L15.8438 17.1172V17.1641L15.7969 17.3984V17.7734L15.8906 18.8281L15.8438 19.0625L16.2188 27.3594V27.6406L16.2656 27.7109L16.2188 27.7578V27.8281L16.2656 28.2266L16.2188 28.4141L16.2656 29.1172V30.2891C16.2656 31.1172 16.6484 32.4922 17.4141 34.4141V34.4609C17.4141 34.9297 17.1719 35.1641 16.6875 35.1641L16.4766 35.1172H16.4297L16.3828 35.1641H16.3125C16.3906 36.2422 16.4766 36.9922 16.5703 37.4141C16.2422 37.9922 15.9297 38.2812 15.6328 38.2812H15.5859L14.6484 38.0469C14.3047 37.7344 14.0781 37.4219 13.9688 37.1094L14.0156 36.4531V36.2188L13.9688 36.1719L14.0156 36.1016L13.9219 34.1797L13.9688 33.6406V33.5234L13.9219 32.9375L13.9688 32.7031L13.8516 31.6953C13.9297 31.6953 13.9844 31.5391 14.0156 31.2266L13.9688 30.9453L14.0156 30.6406L13.5469 26.75V26.6328L13.6406 26.5156C13.4688 26.1719 13.3672 25.7812 13.3359 25.3438L13.4531 24.8281V24.7578C13.3125 24.6328 13.2031 24.3203 13.125 23.8203L13.1719 23.6328C13.0312 23.6328 12.6172 20.5781 11.9297 14.4688L11.9766 14.2812C11.9141 14.2812 11.8281 13.4453 11.7188 11.7734C11.5781 10.0391 11.4531 9.17188 11.3438 9.17188H11.2031C9.125 9.76562 7.95312 10.1797 7.6875 10.4141L6.28125 11C5.125 11.5938 4.19531 11.9844 3.49219 12.1719H2.92969C2.44531 12.1719 1.99219 11.6641 1.57031 10.6484V10.4609L1.61719 10.2266L1.57031 9.875L2.29688 9.125C1.45312 9.125 0.84375 8.49219 0.46875 7.22656V7.10938C1 6.5625 1.48438 6.28906 1.92188 6.28906L2.25 6.35938C4.375 6.07812 5.76562 5.78125 6.42188 5.46875L6.49219 5.53906H6.53906C7.86719 5.05469 10.9844 4.28906 15.8906 3.24219C16.4219 3.08594 17.7188 2.82812 19.7812 2.46875L19.9219 2.42188L20.1328 2.46875L20.2969 2.35156L20.3438 2.42188H20.3906L22.4297 2.11719L22.5 2.1875L23.6953 2.07031H23.9062L24.3281 1.95312L26.7188 1.83594V1.76562ZM3.91406 8.77344V8.89062H4.03125V8.77344H3.91406ZM2.76562 9.125V9.24219H3.09375L3.14062 9.05469L3.09375 9.00781H2.88281L2.76562 9.125ZM2.46094 9.125V9.28906H2.55469L2.67188 9.17188L2.625 9.125H2.46094ZM35.4609 11.0938L36.3047 11.1641H37.2188C39.0312 11.6797 40.4062 12.1641 41.3438 12.6172C41.8906 12.8516 42.6797 13.5391 43.7109 14.6797C43.7266 14.9766 43.8047 15.2578 43.9453 15.5234L43.875 15.8984V16.0625L43.9453 16.3672C43.7578 17.5234 43.0156 18.875 41.7188 20.4219C41.0625 21.3906 39.9688 22.4062 38.4375 23.4688C37.625 23.8281 37.2188 24.0859 37.2188 24.2422C37.2188 24.4141 37.7734 24.6719 38.8828 25.0156C40.1172 25.6875 41.8281 26.2188 44.0156 26.6094C48.4219 27.8594 51.2812 29.6484 52.5938 31.9766L52.5 32.2812L52.5938 32.7266C52.4062 33.5703 52.1953 34.0078 51.9609 34.0391L51.3516 33.9453L51.1406 34.1797H50.9062C50.2188 34.1797 48.9922 33.6172 47.2266 32.4922C45.8359 31.7266 44.1328 30.8672 42.1172 29.9141C41.2734 29.2891 40.2734 28.9766 39.1172 28.9766V29.0703C38.4922 28.8047 37.5781 28.6719 36.375 28.6719V28.7656L35.2969 28.6016L35.0625 28.7656C35.0781 30.3281 35.2344 31.9297 35.5312 33.5703L35.4609 33.6406V33.7344L36.0703 36.0312C36.0703 36.4531 35.4297 36.7812 34.1484 37.0156C33.8047 37.0156 33.1719 36.4062 32.25 35.1875C31.9844 35.4844 31.7031 35.6328 31.4062 35.6328L31.3125 35.7266L31.0078 35.7969C30.4297 35.5625 30.0234 35.1797 29.7891 34.6484C29.0859 32.7734 28.4219 30.2969 27.7969 27.2188C27.25 26.9844 26.8672 26.7578 26.6484 26.5391C26.3984 26.4609 26.1719 26.0234 25.9688 25.2266C25.9688 24.7266 26.3281 24.3203 27.0469 24.0078C26.7812 22.7422 26.5781 21.3672 26.4375 19.8828C26.5312 17.8359 26.7344 16.8125 27.0469 16.8125L27.3516 17.0469C27.4453 17.0469 27.5234 16.8984 27.5859 16.6016L27.3516 16.2031V16.0625C27.3516 15.25 28.0625 14.2812 29.4844 13.1562C30.7969 12.375 31.8672 11.8906 32.6953 11.7031C32.6953 11.5469 33.6172 11.3438 35.4609 11.0938ZM33.3984 16.7422C33.8516 17.8516 34.2031 19.5625 34.4531 21.875L34.5234 21.9453H34.6172C35.2109 21.9453 36.2266 20.9297 37.6641 18.8984C38.5859 18.0234 39.25 17.2266 39.6562 16.5078L39.7266 15.8984C39.7266 15.7109 38.9922 15.5859 37.5234 15.5234V15.5938L37.4297 15.5234H37.125C35.9531 15.5234 34.7578 15.8516 33.5391 16.5078L33.3984 16.7422ZM30.9375 29.5156V29.8203C31.0938 29.9766 31.1719 30.2344 31.1719 30.5938H31.2422L31.1719 30.6641V30.7344C31.3125 31.5 31.4375 31.8828 31.5469 31.8828H31.6172L31.4766 30.0547L31.5469 29.75L31.4062 29.2812V29.0703C31.0938 29.0703 30.9375 29.2188 30.9375 29.5156ZM31.5469 31.9766L31.4766 32.0469V32.1172L31.7109 32.3516V32.1172L31.5469 31.9766ZM60.2812 11.0938C61.2344 11.1562 61.7109 11.4062 61.7109 11.8438C62.7422 14.1719 63.6953 17.0547 64.5703 20.4922C64.6797 21.3203 64.7969 21.7344 64.9219 21.7344L65.3906 21.6875C65.5781 21.6875 65.6719 21.7266 65.6719 21.8047L65.7188 21.7344H65.7891C66.2734 21.7344 66.5781 22.0781 66.7031 22.7656C66.7031 23.25 66.2422 23.7109 65.3203 24.1484H65.2734C65.8672 28.3203 66.5312 31.4844 67.2656 33.6406L67.3359 33.9219C67.1484 34.5 66.7812 34.7891 66.2344 34.7891C66.2344 34.8359 66.1016 34.875 65.8359 34.9062C65.8359 35.2031 65.6875 35.3516 65.3906 35.3516L64.7578 35.3047L64.6875 35.3516H64.6406C64.5 35.3516 64.1562 34.7812 63.6094 33.6406C63.0312 32.2812 62.6094 30.7344 62.3438 29L62.4141 28.6016C62.2891 28.3984 62.1328 27.75 61.9453 26.6562L61.8984 26.6094H61.8281L59.6484 27.5703C58.4766 27.9609 57.8906 28.2891 57.8906 28.5547C57.4062 30.4609 57.0391 31.4141 56.7891 31.4141C56.2578 31.5703 55.9922 32.0625 55.9922 32.8906L55.3125 36.6172C55.0781 36.8516 54.9062 36.9688 54.7969 36.9688L54.7266 36.8984H54.6797L54.2812 37.0156L54.2109 36.8516H54L53.9297 36.8984H53.8828L53.6484 36.2891C53.6484 34.8828 54.0312 32.5312 54.7969 29.2344L54.7266 29.1875H54.6797L53.1328 29.4219H52.7344C52.0781 29.1406 51.75 28.8281 51.75 28.4844L51.7031 28.3203C51.9688 27.7578 52.2969 27.4766 52.6875 27.4766C52.7344 27.3359 53.1719 27.2188 54 27.125L54.0469 27.0547V27.0078L53.9297 26.6562V26.6094C53.9297 26.0312 54.5391 25.4766 55.7578 24.9453C55.9766 24.7422 56.1328 24.3594 56.2266 23.7969C56.3203 23.7031 56.4922 22.8672 56.7422 21.2891C57.3203 19.5703 57.8359 16.6484 58.2891 12.5234C58.6484 11.9922 58.9922 11.7266 59.3203 11.7266C59.4141 11.5547 59.7344 11.3438 60.2812 11.0938ZM60.2344 18.2422C59.9219 19.0547 59.5781 20.7578 59.2031 23.3516H59.3203C60.3203 23.0859 60.9688 22.8516 61.2656 22.6484C60.7344 19.8047 60.4062 18.3359 60.2812 18.2422H60.2344ZM78.9609 10.7422C80.0703 11.1484 80.625 11.7656 80.625 12.5938C80.6562 13.3906 80.7344 13.7891 80.8594 13.7891C81.0938 13.7891 81.3125 14.0625 81.5156 14.6094C81.6406 14.6094 81.7188 14.9062 81.75 15.5L81.5859 15.9688C81.6641 18.3906 81.7578 19.6016 81.8672 19.6016L81.8203 19.6719C82.3359 22.4375 82.8281 24.5156 83.2969 25.9062L84.1406 29.1172C84.9688 32.6328 85.5 34.6953 85.7344 35.3047C85.9375 35.6172 86.0781 35.9297 86.1562 36.2422C86.1562 36.6484 85.9609 36.9297 85.5703 37.0859C85.5703 37.2891 85.3516 37.4219 84.9141 37.4844L84.8438 37.5547C84.1406 37.5547 83.2891 37 82.2891 35.8906C79.8984 33.4844 78.5938 32.0391 78.375 31.5547L75.75 28.3438C75 27.3281 74.5234 26.75 74.3203 26.6094L74.2031 26.7266L74.2734 27.875L74.2031 28.5781C74.375 32.2969 74.5703 34.375 74.7891 34.8125L74.7422 34.8828L74.7891 35.1172C74.7891 35.6172 74.5547 36.0156 74.0859 36.3125C73.2266 36.1406 72.6328 35.8594 72.3047 35.4688L71.6484 34.1562L71.0625 33.5703C70.2812 31.7734 69.5859 29.1172 68.9766 25.6016C68.9141 25.6016 68.7344 24.5938 68.4375 22.5781L68.3203 21.6875L68.3906 21.6172L68.3203 21.2656L68.3906 19.2969V19.1797L68.4375 18.6641C68.2812 18.2266 68.2031 17.8672 68.2031 17.5859C68.2031 17.2891 68.5234 17.0078 69.1641 16.7422H69.3984C69.7266 16.7422 70.1406 16.9453 70.6406 17.3516C70.6406 17.4766 70.8203 17.6562 71.1797 17.8906L71.2266 17.8203C72.0547 17.8203 72.6094 18.0156 72.8906 18.4062C73.1406 18.4062 73.4375 19.0859 73.7812 20.4453L76.3359 22.8828C78.2578 25.0703 79.5703 26.6328 80.2734 27.5703L80.3203 27.5V27.4531C80.0547 25 79.5 21.1953 78.6562 16.0391L78 12.125C78.1406 11.2031 78.4609 10.7422 78.9609 10.7422ZM95.5781 11.0703L95.8594 11.1406H96.0234V11.0703C98.0547 11.0703 99.875 12.1172 101.484 14.2109C101.562 14.6797 101.688 15.0078 101.859 15.1953C101.859 15.8203 101.461 16.2656 100.664 16.5312L100.219 16.6016C99.0781 16.0078 97.9062 15.7109 96.7031 15.7109C94.7812 15.7109 93.1328 16.7812 91.7578 18.9219C91.7891 19.0781 92.0859 19.2578 92.6484 19.4609C92.8359 19.6641 94.1562 20.0859 96.6094 20.7266C99.8438 21.2578 101.922 21.7812 102.844 22.2969C103.969 22.7188 105.141 23.5703 106.359 24.8516C106.953 25.7422 107.25 26.7891 107.25 27.9922V28.2266C107.25 28.8984 106.875 29.9219 106.125 31.2969C104.703 32.8906 103.484 33.8828 102.469 34.2734C100.141 35.1328 98.1641 35.5625 96.5391 35.5625L96.4688 35.6328H96.3984L96.3281 35.5625H96.2344L95.4141 35.6328H94.8281L94.7578 35.7031L94.6641 35.6328H93.7734C90.1016 35.6328 87.6094 34.1875 86.2969 31.2969C86.1875 31.2969 86.1094 31.0703 86.0625 30.6172L86.2031 30.4531L86.8125 30.8281H87.0469V30.6875H87.1875C87.4062 30.6875 87.9297 31.0391 88.7578 31.7422H88.9922V31.2969L88.8984 30.9922C89.0234 30.6016 89.2266 30.2969 89.5078 30.0781C89.5078 29.6094 89.7031 29.2656 90.0938 29.0469L90.4688 28.0625H90.6328L90.7031 28.4375H90.7734L91.3828 28.2969H91.5938C92.0469 28.4531 92.2734 28.8281 92.2734 29.4219C92.2734 29.8594 92.3984 30.1797 92.6484 30.3828L92.5781 31.2969C93.0156 31.625 94.1875 31.8984 96.0938 32.1172L96.1641 32.0234L96.7031 32.1172C98.4062 32.1172 100.047 31.6875 101.625 30.8281C102.734 29.8906 103.289 29.0469 103.289 28.2969C103.289 27.3438 102.211 26.2188 100.055 24.9219L98.9297 24.4766C98.9297 24.1797 97.9609 23.8516 96.0234 23.4922C93.5234 23.3047 91.7031 22.9844 90.5625 22.5312C88.7656 21.5 87.8672 20.3281 87.8672 19.0156L87.3984 17.2812C87.3984 14.2031 90 12.1562 95.2031 11.1406L95.5781 11.0703ZM121.523 11.0938L122.484 11.5859C122.641 11.5859 122.82 11.7969 123.023 12.2188C123.023 12.9844 122.289 13.5234 120.82 13.8359L116.484 14.6797C115.328 14.9297 114.75 15.1641 114.75 15.3828C114.922 17.1797 115.07 18.0781 115.195 18.0781V18.125C116.648 17.7344 118.414 17.4297 120.492 17.2109C120.711 17.2734 120.961 17.4375 121.242 17.7031L121.406 17.75L122.367 17.5859C123.555 17.6797 124.148 18.0234 124.148 18.6172L124.195 18.6641C124.195 19.2266 123.477 19.6562 122.039 19.9531C119.57 20.5156 117.68 21.1406 116.367 21.8281C115.836 22.0781 115.57 22.2734 115.57 22.4141L116.484 30.2422C116.734 32.7734 117 34.8672 117.281 36.5234C117.281 36.6172 117.117 36.7578 116.789 36.9453L116.742 36.8984H116.203L116.156 36.9453C115.875 36.9453 115.555 36.8203 115.195 36.5703C115.086 36.5703 114.961 36.4609 114.82 36.2422L114.586 36.3125C113.758 36.0312 113.156 35.5078 112.781 34.7422C112.422 34.0859 112.148 33.1719 111.961 32H112.031C111.922 32 111.758 29.4141 111.539 24.2422L111.492 24.1719L111.539 24.0312L111.375 22.2031L111.211 22.1562C110.758 22.4375 110.297 22.5781 109.828 22.5781C109.047 22.1094 108.617 21.6953 108.539 21.3359C108.883 20.7109 109.258 20.3203 109.664 20.1641C110.43 19.8672 110.859 19.6719 110.953 19.5781C110.719 18.1094 110.539 17.3047 110.414 17.1641C110.289 17.1641 109.875 17.3203 109.172 17.6328L108.375 17.7031C108.219 17.7031 108.008 17.5234 107.742 17.1641C107.414 16.9141 107.25 16.625 107.25 16.2969C107.25 15.7188 107.734 15.3281 108.703 15.125C108.906 14.9375 109.438 14.6875 110.297 14.375C110.297 13.9531 110.531 13.6797 111 13.5547H111.117L111.328 13.625C111.469 13.5781 111.594 13.4844 111.703 13.3438L111.539 12.5C111.727 12.2344 112.07 12.0547 112.57 11.9609C113.32 12.0391 113.922 12.2734 114.375 12.6641C115.031 12.6641 116.305 12.3359 118.195 11.6797L121.523 11.0938ZM113.695 26.6562V27.2422H113.742C113.805 27.2422 113.859 27.1484 113.906 26.9609C113.859 26.7578 113.805 26.6562 113.742 26.6562H113.695ZM113.695 27.4062V27.6172L113.742 27.9453L113.695 27.9922C113.695 29.3672 113.891 31.0859 114.281 33.1484H114.375L114.445 32.8672L114.375 32.4453L114.445 32.3984V32.3281L114.328 31.8594L114.375 31.3672C114.266 31.1328 114.211 30.8828 114.211 30.6172V30.3594L114.281 30.2891L114 28.9531L114.117 28.625L113.953 28.4609L114 28.0859L113.953 28.0391H113.906L113.953 27.9922V27.9453L113.789 27.4062H113.695ZM133.5 10.9531C135.266 11.2969 136.547 11.8984 137.344 12.7578C137.438 12.7578 137.492 13.125 137.508 13.8594L137.438 14.2109C138.391 14.2109 139.477 15.2344 140.695 17.2812C141.133 17.9219 141.414 18.6094 141.539 19.3438C142.055 20.2812 142.312 21.0547 142.312 21.6641L142.219 21.9922L142.734 24.1484L142.57 24.6406L142.664 25.6016V25.8594L142.406 28.0859L142.477 28.1562V28.25C142.023 30.2344 140.938 32.1172 139.219 33.8984C137.719 34.9766 136.18 35.5156 134.602 35.5156L134.531 35.6094C133.328 35.6094 131.781 35.2109 129.891 34.4141C127.266 32.7891 125.359 30.3594 124.172 27.125L123.562 24.4766L123.656 24.3828L123.562 23.9609V23.2812C123.562 22.6094 124.102 20.8672 125.18 18.0547H125.109C125.562 16.8047 125.992 15.9766 126.398 15.5703C127.023 13.9453 128.305 12.6094 130.242 11.5625C131.055 11.1562 132.141 10.9531 133.5 10.9531ZM128.695 23.1172C128.695 27.6016 129.953 30.5391 132.469 31.9297L132.984 32.0234C135.531 32.0234 137.188 29.625 137.953 24.8281V24.4766C137.953 23.4453 137.18 21.6484 135.633 19.0859C135.508 19.0859 134.883 18.2031 133.758 16.4375H133.57C131.602 17.0469 130.352 17.7266 129.82 18.4766C129.07 20.0391 128.695 21.5859 128.695 23.1172ZM153.07 11.0938L153.914 11.1641H154.828C156.641 11.6797 158.016 12.1641 158.953 12.6172C159.5 12.8516 160.289 13.5391 161.32 14.6797C161.336 14.9766 161.414 15.2578 161.555 15.5234L161.484 15.8984V16.0625L161.555 16.3672C161.367 17.5234 160.625 18.875 159.328 20.4219C158.672 21.3906 157.578 22.4062 156.047 23.4688C155.234 23.8281 154.828 24.0859 154.828 24.2422C154.828 24.4141 155.383 24.6719 156.492 25.0156C157.727 25.6875 159.438 26.2188 161.625 26.6094C166.031 27.8594 168.891 29.6484 170.203 31.9766L170.109 32.2812L170.203 32.7266C170.016 33.5703 169.805 34.0078 169.57 34.0391L168.961 33.9453L168.75 34.1797H168.516C167.828 34.1797 166.602 33.6172 164.836 32.4922C163.445 31.7266 161.742 30.8672 159.727 29.9141C158.883 29.2891 157.883 28.9766 156.727 28.9766V29.0703C156.102 28.8047 155.188 28.6719 153.984 28.6719V28.7656L152.906 28.6016L152.672 28.7656C152.688 30.3281 152.844 31.9297 153.141 33.5703L153.07 33.6406V33.7344L153.68 36.0312C153.68 36.4531 153.039 36.7812 151.758 37.0156C151.414 37.0156 150.781 36.4062 149.859 35.1875C149.594 35.4844 149.312 35.6328 149.016 35.6328L148.922 35.7266L148.617 35.7969C148.039 35.5625 147.633 35.1797 147.398 34.6484C146.695 32.7734 146.031 30.2969 145.406 27.2188C144.859 26.9844 144.477 26.7578 144.258 26.5391C144.008 26.4609 143.781 26.0234 143.578 25.2266C143.578 24.7266 143.938 24.3203 144.656 24.0078C144.391 22.7422 144.188 21.3672 144.047 19.8828C144.141 17.8359 144.344 16.8125 144.656 16.8125L144.961 17.0469C145.055 17.0469 145.133 16.8984 145.195 16.6016L144.961 16.2031V16.0625C144.961 15.25 145.672 14.2812 147.094 13.1562C148.406 12.375 149.477 11.8906 150.305 11.7031C150.305 11.5469 151.227 11.3438 153.07 11.0938ZM151.008 16.7422C151.461 17.8516 151.812 19.5625 152.062 21.875L152.133 21.9453H152.227C152.82 21.9453 153.836 20.9297 155.273 18.8984C156.195 18.0234 156.859 17.2266 157.266 16.5078L157.336 15.8984C157.336 15.7109 156.602 15.5859 155.133 15.5234V15.5938L155.039 15.5234H154.734C153.562 15.5234 152.367 15.8516 151.148 16.5078L151.008 16.7422ZM148.547 29.5156V29.8203C148.703 29.9766 148.781 30.2344 148.781 30.5938H148.852L148.781 30.6641V30.7344C148.922 31.5 149.047 31.8828 149.156 31.8828H149.227L149.086 30.0547L149.156 29.75L149.016 29.2812V29.0703C148.703 29.0703 148.547 29.2188 148.547 29.5156ZM149.156 31.9766L149.086 32.0469V32.1172L149.32 32.3516V32.1172L149.156 31.9766ZM183.422 11.0469C184.188 11.0469 184.758 11.6172 185.133 12.7578C185.664 13.3984 186.258 14.8438 186.914 17.0938L188.32 22.2969C188.32 22.875 189.094 25.0312 190.641 28.7656C193 33.6094 194.18 36.2188 194.18 36.5938L194.133 36.6641H194.062L194.133 37.2734C194.133 37.4922 193.945 37.6953 193.57 37.8828H193.523C192.945 37.5078 192.656 37.2188 192.656 37.0156H192.422C192.094 37.7969 191.602 38.1875 190.945 38.1875C189.992 37.875 189.359 37.4297 189.047 36.8516C188.25 35.1172 187.516 32.5859 186.844 29.2578C185.75 25.4609 184.812 22.4453 184.031 20.2109C183.953 20.1953 183.891 20.0547 183.844 19.7891H183.797C183.609 19.9922 183.219 21.5781 182.625 24.5469V24.6172H182.695L182.391 26.3281L182.438 26.8672H182.391L182.438 26.9375V27.1719C182.438 27.7812 182.281 28.2109 181.969 28.4609C181.969 28.5703 182.188 29.0234 182.625 29.8203L182.695 30.0547V30.4766C182.695 30.8047 182.453 30.9688 181.969 30.9688C180.953 30.9688 179.422 29.4219 177.375 26.3281C176.938 25.8438 176.648 25.4531 176.508 25.1562H176.344V25.2266L176.273 29.1875L176.203 29.6328L176.273 29.6797L176.203 29.9844V31.4609L176.156 31.5312L176.203 31.5781V33.1719L176.273 33.7812C176.18 34.8906 175.891 35.4453 175.406 35.4453H174.984C174.047 35.0703 173.578 34.7812 173.578 34.5781C173.578 34.2969 173.398 33.8906 173.039 33.3594C172.664 32 172.195 28.5781 171.633 23.0938L171.68 23.0234V22.9531C171.32 19.6562 170.977 18.0078 170.648 18.0078C169.914 17.5078 169.547 17.0625 169.547 16.6719C169.547 16.2812 169.711 15.9766 170.039 15.7578L170.086 15.8047H170.156L171.492 15.5703C172.336 15.7266 172.891 15.9688 173.156 16.2969L173.766 16.2266C174.75 16.2266 175.523 16.7812 176.086 17.8906C177.633 19.5156 178.797 21.0391 179.578 22.4609H179.766L180.914 18.875C181.242 17.7031 181.773 15.3594 182.508 11.8438C182.508 11.5312 182.812 11.2656 183.422 11.0469ZM207.117 11.0469L207.211 11.1172H207.797L207.867 11.0469L208.078 11.1172L208.453 11.0469C209.562 11.1562 210.242 11.375 210.492 11.7031H210.656V11.6328L211.242 11.7734V11.8438L211.148 11.9375C210.711 12.0938 210.492 12.2344 210.492 12.3594L211.008 12.4297V12.5938C211.008 12.8438 210.398 13.0859 209.18 13.3203C208.758 13.5234 207.875 13.7422 206.531 13.9766C203.891 14.6484 202.57 15.0625 202.57 15.2188L202.664 15.2891H202.734C208.531 14.2266 212.367 13.6953 214.242 13.6953H214.617C215.836 13.9609 216.445 14.4219 216.445 15.0781L216.516 15.4531V15.5234C216.516 15.7422 216.344 15.9844 216 16.25C216 16.5 214.555 16.7422 211.664 16.9766C209.477 17.3203 206.812 17.8125 203.672 18.4531C203.672 18.5469 203.406 18.5938 202.875 18.5938L202.219 18.8281C202.062 20.0781 201.984 21.3203 201.984 22.5547V22.7891L202.219 23L208.734 21.5234L208.805 21.6172L211.242 21.3125L211.969 21.3828H212.18C212.289 21.4766 212.484 21.5234 212.766 21.5234C213.594 22.2109 214.086 22.5547 214.242 22.5547L214.453 22.9297C214.547 23.2734 214.625 23.4453 214.688 23.4453C214.469 24.0547 213.977 24.5156 213.211 24.8281C210.508 25.6094 207.719 26.2188 204.844 26.6562C202.75 27.1562 201.703 27.6484 201.703 28.1328V28.5078C201.703 29.4453 201.656 30.1484 201.562 30.6172L201.703 30.9219L201.633 30.9922V31.2969L201.773 31.4375H201.914C203.273 31.1875 204.867 30.8203 206.695 30.3359L206.766 30.4062H206.836C207.273 30.3594 207.641 30.2656 207.938 30.125C208.812 30.125 209.523 30.0469 210.07 29.8906L210.492 30.125H210.656C210.828 29.9688 210.992 29.8906 211.148 29.8906H211.312C211.406 29.8906 211.453 29.9688 211.453 30.125C212.344 29.9688 213.469 29.6719 214.828 29.2344L215.719 29.1641C216.938 29.3516 217.547 29.7422 217.547 30.3359L217.688 30.9219C217.328 31.6562 216.914 32.0234 216.445 32.0234C215.992 32.1953 214.961 32.3906 213.352 32.6094C208.742 33.5312 206.102 34.1406 205.43 34.4375C205.18 34.4375 204.18 34.8516 202.43 35.6797C201.57 36.1328 200.984 36.3594 200.672 36.3594L199.43 35.9141L197.883 36.5703C196.461 36.3047 195.75 35.8672 195.75 35.2578C195.672 35.2578 195.602 35.0625 195.539 34.6719L195.609 34.2266L195.539 33.9219L196.195 32.8203C196.398 29.3672 196.594 27.1484 196.781 26.1641L196.711 25.8594L197.227 19.8359C197.227 19.6953 196.758 19.3359 195.82 18.7578C195.539 18.3672 195.398 18.0234 195.398 17.7266C195.43 17.4766 195.602 17.1797 195.914 16.8359C195.914 16.7578 195.547 16.6406 194.812 16.4844C194.172 16.0312 193.852 15.6328 193.852 15.2891V15.0078C193.852 14.1328 194.219 13.6172 194.953 13.4609L195.164 13.3906L195.234 13.4609H195.328C196.922 13.2266 199.586 12.6406 203.32 11.7031L207.117 11.0469ZM202.219 15.2188L202.148 15.2891V15.4531H202.219L202.359 15.2891L202.289 15.2188H202.219ZM237.75 11.0938C238.703 11.1562 239.18 11.4062 239.18 11.8438C240.211 14.1719 241.164 17.0547 242.039 20.4922C242.148 21.3203 242.266 21.7344 242.391 21.7344L242.859 21.6875C243.047 21.6875 243.141 21.7266 243.141 21.8047L243.188 21.7344H243.258C243.742 21.7344 244.047 22.0781 244.172 22.7656C244.172 23.25 243.711 23.7109 242.789 24.1484H242.742C243.336 28.3203 244 31.4844 244.734 33.6406L244.805 33.9219C244.617 34.5 244.25 34.7891 243.703 34.7891C243.703 34.8359 243.57 34.875 243.305 34.9062C243.305 35.2031 243.156 35.3516 242.859 35.3516L242.227 35.3047L242.156 35.3516H242.109C241.969 35.3516 241.625 34.7812 241.078 33.6406C240.5 32.2812 240.078 30.7344 239.812 29L239.883 28.6016C239.758 28.3984 239.602 27.75 239.414 26.6562L239.367 26.6094H239.297L237.117 27.5703C235.945 27.9609 235.359 28.2891 235.359 28.5547C234.875 30.4609 234.508 31.4141 234.258 31.4141C233.727 31.5703 233.461 32.0625 233.461 32.8906L232.781 36.6172C232.547 36.8516 232.375 36.9688 232.266 36.9688L232.195 36.8984H232.148L231.75 37.0156L231.68 36.8516H231.469L231.398 36.8984H231.352L231.117 36.2891C231.117 34.8828 231.5 32.5312 232.266 29.2344L232.195 29.1875H232.148L230.602 29.4219H230.203C229.547 29.1406 229.219 28.8281 229.219 28.4844L229.172 28.3203C229.438 27.7578 229.766 27.4766 230.156 27.4766C230.203 27.3359 230.641 27.2188 231.469 27.125L231.516 27.0547V27.0078L231.398 26.6562V26.6094C231.398 26.0312 232.008 25.4766 233.227 24.9453C233.445 24.7422 233.602 24.3594 233.695 23.7969C233.789 23.7031 233.961 22.8672 234.211 21.2891C234.789 19.5703 235.305 16.6484 235.758 12.5234C236.117 11.9922 236.461 11.7266 236.789 11.7266C236.883 11.5547 237.203 11.3438 237.75 11.0938ZM237.703 18.2422C237.391 19.0547 237.047 20.7578 236.672 23.3516H236.789C237.789 23.0859 238.438 22.8516 238.734 22.6484C238.203 19.8047 237.875 18.3359 237.75 18.2422H237.703ZM266.719 11.0703L267 11.1406H267.164V11.0703C269.195 11.0703 271.016 12.1172 272.625 14.2109C272.703 14.6797 272.828 15.0078 273 15.1953C273 15.8203 272.602 16.2656 271.805 16.5312L271.359 16.6016C270.219 16.0078 269.047 15.7109 267.844 15.7109C265.922 15.7109 264.273 16.7812 262.898 18.9219C262.93 19.0781 263.227 19.2578 263.789 19.4609C263.977 19.6641 265.297 20.0859 267.75 20.7266C270.984 21.2578 273.062 21.7812 273.984 22.2969C275.109 22.7188 276.281 23.5703 277.5 24.8516C278.094 25.7422 278.391 26.7891 278.391 27.9922V28.2266C278.391 28.8984 278.016 29.9219 277.266 31.2969C275.844 32.8906 274.625 33.8828 273.609 34.2734C271.281 35.1328 269.305 35.5625 267.68 35.5625L267.609 35.6328H267.539L267.469 35.5625H267.375L266.555 35.6328H265.969L265.898 35.7031L265.805 35.6328H264.914C261.242 35.6328 258.75 34.1875 257.438 31.2969C257.328 31.2969 257.25 31.0703 257.203 30.6172L257.344 30.4531L257.953 30.8281H258.188V30.6875H258.328C258.547 30.6875 259.07 31.0391 259.898 31.7422H260.133V31.2969L260.039 30.9922C260.164 30.6016 260.367 30.2969 260.648 30.0781C260.648 29.6094 260.844 29.2656 261.234 29.0469L261.609 28.0625H261.773L261.844 28.4375H261.914L262.523 28.2969H262.734C263.188 28.4531 263.414 28.8281 263.414 29.4219C263.414 29.8594 263.539 30.1797 263.789 30.3828L263.719 31.2969C264.156 31.625 265.328 31.8984 267.234 32.1172L267.305 32.0234L267.844 32.1172C269.547 32.1172 271.188 31.6875 272.766 30.8281C273.875 29.8906 274.43 29.0469 274.43 28.2969C274.43 27.3438 273.352 26.2188 271.195 24.9219L270.07 24.4766C270.07 24.1797 269.102 23.8516 267.164 23.4922C264.664 23.3047 262.844 22.9844 261.703 22.5312C259.906 21.5 259.008 20.3281 259.008 19.0156L258.539 17.2812C258.539 14.2031 261.141 12.1562 266.344 11.1406L266.719 11.0703ZM293.648 11.0703C294.055 11.0703 294.578 11.4141 295.219 12.1016C295.219 12.3047 295.719 12.8281 296.719 13.6719C297.188 14.7031 297.422 16.0859 297.422 17.8203L297.727 21.6875L297.656 22.1562L297.727 22.2266L297.656 22.5547L297.82 23.8906L297.727 23.9609C298.164 28.2578 298.664 30.8516 299.227 31.7422L300.164 34.4844L299.859 35.0469V35.1172L301.5 38.6562L301.594 39.1953C301.438 39.5703 301.203 39.7578 300.891 39.7578H300.492C299.742 39.7578 298.695 38.7344 297.352 36.6875C296.367 35.0938 295.5 33.1328 294.75 30.8047L294.68 30.4062H294.586C293.586 31.9062 292.75 32.9766 292.078 33.6172C290.797 34.4609 289.883 34.8828 289.336 34.8828C288.133 34.6797 287.477 34.5234 287.367 34.4141C286.852 34.5547 286.172 34.6562 285.328 34.7188C284.031 34.4688 282.898 33.9453 281.93 33.1484C280.555 31.6797 279.82 30.2969 279.727 29C279.43 27.3281 279.25 25.8281 279.188 24.5L279.258 24.0312V23.1641L279.188 23.0938L279.258 23.0234V22.0625L279.188 21.7578L279.258 21.4531L279.188 21.125C279.359 17.7188 279.648 15.0703 280.055 13.1797C280.273 12.0859 280.742 11.5391 281.461 11.5391C282.023 11.8047 282.445 12.0703 282.727 12.3359H283.195C284.055 12.3984 284.766 12.6328 285.328 13.0391C285.797 13.5859 286.031 14.2656 286.031 15.0781L285.938 15.3125L286.031 15.5469L285.938 16.1094L286.031 16.5781L285.938 16.9531L286.031 17.2812L285.938 17.75L286.031 18.0547L285.867 19.5547L285.938 19.8828L285.867 20.3516L286.031 23.0234L285.938 23.0938V23.1641C286.156 26.2109 286.523 28.3906 287.039 29.7031C287.305 30.2969 287.547 30.6328 287.766 30.7109C288.641 30.3984 289.711 29.5078 290.977 28.0391C291.914 26.8672 292.383 25.8203 292.383 24.8984L293.016 22.625L292.617 19.7188V19.0859C292.305 17.1797 292.148 15.2656 292.148 13.3438C292.148 12.2656 292.625 11.5078 293.578 11.0703H293.648ZM282.164 24.8984L282.258 25.2969L282.164 25.7656C282.242 25.9688 282.32 26.0703 282.398 26.0703L282.328 26.4688V26.5625L282.398 26.9375L282.328 27.4062C282.812 30.1875 283.445 31.5781 284.227 31.5781L284.297 31.5078V31.4141C283.578 30.1172 283.031 28.6562 282.656 27.0312L282.562 26.9375V25.9297L282.398 24.8984H282.164ZM309.562 11.0938C310.516 11.1562 310.992 11.4062 310.992 11.8438C312.023 14.1719 312.977 17.0547 313.852 20.4922C313.961 21.3203 314.078 21.7344 314.203 21.7344L314.672 21.6875C314.859 21.6875 314.953 21.7266 314.953 21.8047L315 21.7344H315.07C315.555 21.7344 315.859 22.0781 315.984 22.7656C315.984 23.25 315.523 23.7109 314.602 24.1484H314.555C315.148 28.3203 315.812 31.4844 316.547 33.6406L316.617 33.9219C316.43 34.5 316.062 34.7891 315.516 34.7891C315.516 34.8359 315.383 34.875 315.117 34.9062C315.117 35.2031 314.969 35.3516 314.672 35.3516L314.039 35.3047L313.969 35.3516H313.922C313.781 35.3516 313.438 34.7812 312.891 33.6406C312.312 32.2812 311.891 30.7344 311.625 29L311.695 28.6016C311.57 28.3984 311.414 27.75 311.227 26.6562L311.18 26.6094H311.109L308.93 27.5703C307.758 27.9609 307.172 28.2891 307.172 28.5547C306.688 30.4609 306.32 31.4141 306.07 31.4141C305.539 31.5703 305.273 32.0625 305.273 32.8906L304.594 36.6172C304.359 36.8516 304.188 36.9688 304.078 36.9688L304.008 36.8984H303.961L303.562 37.0156L303.492 36.8516H303.281L303.211 36.8984H303.164L302.93 36.2891C302.93 34.8828 303.312 32.5312 304.078 29.2344L304.008 29.1875H303.961L302.414 29.4219H302.016C301.359 29.1406 301.031 28.8281 301.031 28.4844L300.984 28.3203C301.25 27.7578 301.578 27.4766 301.969 27.4766C302.016 27.3359 302.453 27.2188 303.281 27.125L303.328 27.0547V27.0078L303.211 26.6562V26.6094C303.211 26.0312 303.82 25.4766 305.039 24.9453C305.258 24.7422 305.414 24.3594 305.508 23.7969C305.602 23.7031 305.773 22.8672 306.023 21.2891C306.602 19.5703 307.117 16.6484 307.57 12.5234C307.93 11.9922 308.273 11.7266 308.602 11.7266C308.695 11.5547 309.016 11.3438 309.562 11.0938ZM309.516 18.2422C309.203 19.0547 308.859 20.7578 308.484 23.3516H308.602C309.602 23.0859 310.25 22.8516 310.547 22.6484C310.016 19.8047 309.688 18.3359 309.562 18.2422H309.516ZM97.0781 47.0469L97.1719 47.1172H97.7578L97.8281 47.0469L98.0391 47.1172L98.4141 47.0469C99.5234 47.1562 100.203 47.375 100.453 47.7031H100.617V47.6328L101.203 47.7734V47.8438L101.109 47.9375C100.672 48.0938 100.453 48.2344 100.453 48.3594L100.969 48.4297V48.5938C100.969 48.8438 100.359 49.0859 99.1406 49.3203C98.7188 49.5234 97.8359 49.7422 96.4922 49.9766C93.8516 50.6484 92.5312 51.0625 92.5312 51.2188L92.625 51.2891H92.6953C98.4922 50.2266 102.328 49.6953 104.203 49.6953H104.578C105.797 49.9609 106.406 50.4219 106.406 51.0781L106.477 51.4531V51.5234C106.477 51.7422 106.305 51.9844 105.961 52.25C105.961 52.5 104.516 52.7422 101.625 52.9766C99.4375 53.3203 96.7734 53.8125 93.6328 54.4531C93.6328 54.5469 93.3672 54.5938 92.8359 54.5938L92.1797 54.8281C92.0234 56.0781 91.9453 57.3203 91.9453 58.5547V58.7891L92.1797 59L98.6953 57.5234L98.7656 57.6172L101.203 57.3125L101.93 57.3828H102.141C102.25 57.4766 102.445 57.5234 102.727 57.5234C103.555 58.2109 104.047 58.5547 104.203 58.5547L104.414 58.9297C104.508 59.2734 104.586 59.4453 104.648 59.4453C104.43 60.0547 103.938 60.5156 103.172 60.8281C100.469 61.6094 97.6797 62.2188 94.8047 62.6562C92.7109 63.1562 91.6641 63.6484 91.6641 64.1328V64.5078C91.6641 65.4453 91.6172 66.1484 91.5234 66.6172L91.6641 66.9219L91.5938 66.9922V67.2969L91.7344 67.4375H91.875C93.2344 67.1875 94.8281 66.8203 96.6562 66.3359L96.7266 66.4062H96.7969C97.2344 66.3594 97.6016 66.2656 97.8984 66.125C98.7734 66.125 99.4844 66.0469 100.031 65.8906L100.453 66.125H100.617C100.789 65.9688 100.953 65.8906 101.109 65.8906H101.273C101.367 65.8906 101.414 65.9688 101.414 66.125C102.305 65.9688 103.43 65.6719 104.789 65.2344L105.68 65.1641C106.898 65.3516 107.508 65.7422 107.508 66.3359L107.648 66.9219C107.289 67.6562 106.875 68.0234 106.406 68.0234C105.953 68.1953 104.922 68.3906 103.312 68.6094C98.7031 69.5312 96.0625 70.1406 95.3906 70.4375C95.1406 70.4375 94.1406 70.8516 92.3906 71.6797C91.5312 72.1328 90.9453 72.3594 90.6328 72.3594L89.3906 71.9141L87.8438 72.5703C86.4219 72.3047 85.7109 71.8672 85.7109 71.2578C85.6328 71.2578 85.5625 71.0625 85.5 70.6719L85.5703 70.2266L85.5 69.9219L86.1562 68.8203C86.3594 65.3672 86.5547 63.1484 86.7422 62.1641L86.6719 61.8594L87.1875 55.8359C87.1875 55.6953 86.7188 55.3359 85.7812 54.7578C85.5 54.3672 85.3594 54.0234 85.3594 53.7266C85.3906 53.4766 85.5625 53.1797 85.875 52.8359C85.875 52.7578 85.5078 52.6406 84.7734 52.4844C84.1328 52.0312 83.8125 51.6328 83.8125 51.2891V51.0078C83.8125 50.1328 84.1797 49.6172 84.9141 49.4609L85.125 49.3906L85.1953 49.4609H85.2891C86.8828 49.2266 89.5469 48.6406 93.2812 47.7031L97.0781 47.0469ZM92.1797 51.2188L92.1094 51.2891V51.4531H92.1797L92.3203 51.2891L92.25 51.2188H92.1797ZM121.336 47.0469C122.102 47.0469 122.672 47.6172 123.047 48.7578C123.578 49.3984 124.172 50.8438 124.828 53.0938L126.234 58.2969C126.234 58.875 127.008 61.0312 128.555 64.7656C130.914 69.6094 132.094 72.2188 132.094 72.5938L132.047 72.6641H131.977L132.047 73.2734C132.047 73.4922 131.859 73.6953 131.484 73.8828H131.438C130.859 73.5078 130.57 73.2188 130.57 73.0156H130.336C130.008 73.7969 129.516 74.1875 128.859 74.1875C127.906 73.875 127.273 73.4297 126.961 72.8516C126.164 71.1172 125.43 68.5859 124.758 65.2578C123.664 61.4609 122.727 58.4453 121.945 56.2109C121.867 56.1953 121.805 56.0547 121.758 55.7891H121.711C121.523 55.9922 121.133 57.5781 120.539 60.5469V60.6172H120.609L120.305 62.3281L120.352 62.8672H120.305L120.352 62.9375V63.1719C120.352 63.7812 120.195 64.2109 119.883 64.4609C119.883 64.5703 120.102 65.0234 120.539 65.8203L120.609 66.0547V66.4766C120.609 66.8047 120.367 66.9688 119.883 66.9688C118.867 66.9688 117.336 65.4219 115.289 62.3281C114.852 61.8438 114.562 61.4531 114.422 61.1562H114.258V61.2266L114.188 65.1875L114.117 65.6328L114.188 65.6797L114.117 65.9844V67.4609L114.07 67.5312L114.117 67.5781V69.1719L114.188 69.7812C114.094 70.8906 113.805 71.4453 113.32 71.4453H112.898C111.961 71.0703 111.492 70.7812 111.492 70.5781C111.492 70.2969 111.312 69.8906 110.953 69.3594C110.578 68 110.109 64.5781 109.547 59.0938L109.594 59.0234V58.9531C109.234 55.6562 108.891 54.0078 108.562 54.0078C107.828 53.5078 107.461 53.0625 107.461 52.6719C107.461 52.2812 107.625 51.9766 107.953 51.7578L108 51.8047H108.07L109.406 51.5703C110.25 51.7266 110.805 51.9688 111.07 52.2969L111.68 52.2266C112.664 52.2266 113.438 52.7812 114 53.8906C115.547 55.5156 116.711 57.0391 117.492 58.4609H117.68L118.828 54.875C119.156 53.7031 119.688 51.3594 120.422 47.8438C120.422 47.5312 120.727 47.2656 121.336 47.0469ZM134.742 47.0234C135.055 47.0234 135.422 47.1562 135.844 47.4219H135.984L136.758 47.2344L138.398 47.4688L138.727 47.4219L139.125 47.4688L139.266 47.4219C142.047 47.6406 143.82 47.9688 144.586 48.4062C145.133 48.5156 145.703 48.9375 146.297 49.6719C146.531 50 146.648 50.3984 146.648 50.8672C147.039 51.2578 147.234 51.5859 147.234 51.8516C147.016 52.8516 146.047 53.8984 144.328 54.9922L139.477 57.1016C139.477 57.6016 139.656 59.3359 140.016 62.3047C140.141 63.1641 140.305 65.2812 140.508 68.6562L140.461 69.1953C140.539 69.4297 140.648 70.3125 140.789 71.8438C140.867 71.8438 140.906 72.0391 140.906 72.4297C140.906 72.6016 140.688 72.8828 140.25 73.2734L140.016 73.2266C139.688 73.3203 139.453 73.4297 139.312 73.5547C138.562 73.5547 138.078 73.1797 137.859 72.4297C137.391 70.8047 136.945 68.4453 136.523 65.3516C136.133 63.3516 135.672 60.7344 135.141 57.5H135.047V57.4531L133.242 58.3203C132.68 58.3203 132.266 58.1406 132 57.7812H131.953V57.5469C131.953 57.2188 132.609 56.7109 133.922 56.0234L134.812 55.4844V55.1797C134.812 54.8203 134.758 54.6406 134.648 54.6406L134.695 54.2891V54.1016L134.461 52.5312L134.508 52.4844L134.414 51.1953H134.367L134.414 51.1484C134.367 50.3047 134.281 49.8828 134.156 49.8828H134.062L134.016 49.9297C133 49.7266 132.492 49.2969 132.492 48.6406C132.492 48.3125 132.688 48.0234 133.078 47.7734L133.125 47.8203H133.172C133.516 47.7891 133.734 47.7344 133.828 47.6562L134.016 47.7266C134.141 47.7266 134.203 47.6094 134.203 47.375C134.344 47.1406 134.523 47.0234 134.742 47.0234ZM138.844 49.8359L138.773 49.9766C138.773 50.6953 138.875 51.8594 139.078 53.4688H139.219L141.539 52.3438C142.039 52.0312 142.578 51.6484 143.156 51.1953V51.1484C142.328 50.6797 141.211 50.2891 139.805 49.9766L138.844 49.8359ZM136.383 53.2109V53.375H136.477V53.2109H136.383ZM136.43 53.5156V53.8203H136.523V53.5156H136.43ZM136.477 53.9141V54.0078L136.523 54.2891L136.477 54.5L136.523 54.5469H136.617L136.664 54.3594H136.617L136.664 54.2891V54.1953C136.664 54.0234 136.617 53.9297 136.523 53.9141H136.477ZM157.312 47.0938L158.156 47.1641H159.07C160.883 47.6797 162.258 48.1641 163.195 48.6172C163.742 48.8516 164.531 49.5391 165.562 50.6797C165.578 50.9766 165.656 51.2578 165.797 51.5234L165.727 51.8984V52.0625L165.797 52.3672C165.609 53.5234 164.867 54.875 163.57 56.4219C162.914 57.3906 161.82 58.4062 160.289 59.4688C159.477 59.8281 159.07 60.0859 159.07 60.2422C159.07 60.4141 159.625 60.6719 160.734 61.0156C161.969 61.6875 163.68 62.2188 165.867 62.6094C170.273 63.8594 173.133 65.6484 174.445 67.9766L174.352 68.2812L174.445 68.7266C174.258 69.5703 174.047 70.0078 173.812 70.0391L173.203 69.9453L172.992 70.1797H172.758C172.07 70.1797 170.844 69.6172 169.078 68.4922C167.688 67.7266 165.984 66.8672 163.969 65.9141C163.125 65.2891 162.125 64.9766 160.969 64.9766V65.0703C160.344 64.8047 159.43 64.6719 158.227 64.6719V64.7656L157.148 64.6016L156.914 64.7656C156.93 66.3281 157.086 67.9297 157.383 69.5703L157.312 69.6406V69.7344L157.922 72.0312C157.922 72.4531 157.281 72.7812 156 73.0156C155.656 73.0156 155.023 72.4062 154.102 71.1875C153.836 71.4844 153.555 71.6328 153.258 71.6328L153.164 71.7266L152.859 71.7969C152.281 71.5625 151.875 71.1797 151.641 70.6484C150.938 68.7734 150.273 66.2969 149.648 63.2188C149.102 62.9844 148.719 62.7578 148.5 62.5391C148.25 62.4609 148.023 62.0234 147.82 61.2266C147.82 60.7266 148.18 60.3203 148.898 60.0078C148.633 58.7422 148.43 57.3672 148.289 55.8828C148.383 53.8359 148.586 52.8125 148.898 52.8125L149.203 53.0469C149.297 53.0469 149.375 52.8984 149.438 52.6016L149.203 52.2031V52.0625C149.203 51.25 149.914 50.2812 151.336 49.1562C152.648 48.375 153.719 47.8906 154.547 47.7031C154.547 47.5469 155.469 47.3438 157.312 47.0938ZM155.25 52.7422C155.703 53.8516 156.055 55.5625 156.305 57.875L156.375 57.9453H156.469C157.062 57.9453 158.078 56.9297 159.516 54.8984C160.438 54.0234 161.102 53.2266 161.508 52.5078L161.578 51.8984C161.578 51.7109 160.844 51.5859 159.375 51.5234V51.5938L159.281 51.5234H158.977C157.805 51.5234 156.609 51.8516 155.391 52.5078L155.25 52.7422ZM152.789 65.5156V65.8203C152.945 65.9766 153.023 66.2344 153.023 66.5938H153.094L153.023 66.6641V66.7344C153.164 67.5 153.289 67.8828 153.398 67.8828H153.469L153.328 66.0547L153.398 65.75L153.258 65.2812V65.0703C152.945 65.0703 152.789 65.2188 152.789 65.5156ZM153.398 67.9766L153.328 68.0469V68.1172L153.562 68.3516V68.1172L153.398 67.9766ZM186.844 47.0469L186.938 47.1172H187.523L187.594 47.0469L187.805 47.1172L188.18 47.0469C189.289 47.1562 189.969 47.375 190.219 47.7031H190.383V47.6328L190.969 47.7734V47.8438L190.875 47.9375C190.438 48.0938 190.219 48.2344 190.219 48.3594L190.734 48.4297V48.5938C190.734 48.8438 190.125 49.0859 188.906 49.3203C188.484 49.5234 187.602 49.7422 186.258 49.9766C183.617 50.6484 182.297 51.0625 182.297 51.2188L182.391 51.2891H182.461C188.258 50.2266 192.094 49.6953 193.969 49.6953H194.344C195.562 49.9609 196.172 50.4219 196.172 51.0781L196.242 51.4531V51.5234C196.242 51.7422 196.07 51.9844 195.727 52.25C195.727 52.5 194.281 52.7422 191.391 52.9766C189.203 53.3203 186.539 53.8125 183.398 54.4531C183.398 54.5469 183.133 54.5938 182.602 54.5938L181.945 54.8281C181.789 56.0781 181.711 57.3203 181.711 58.5547V58.7891L181.945 59L188.461 57.5234L188.531 57.6172L190.969 57.3125L191.695 57.3828H191.906C192.016 57.4766 192.211 57.5234 192.492 57.5234C193.32 58.2109 193.812 58.5547 193.969 58.5547L194.18 58.9297C194.273 59.2734 194.352 59.4453 194.414 59.4453C194.195 60.0547 193.703 60.5156 192.938 60.8281C190.234 61.6094 187.445 62.2188 184.57 62.6562C182.477 63.1562 181.43 63.6484 181.43 64.1328V64.5078C181.43 65.4453 181.383 66.1484 181.289 66.6172L181.43 66.9219L181.359 66.9922V67.2969L181.5 67.4375H181.641C183 67.1875 184.594 66.8203 186.422 66.3359L186.492 66.4062H186.562C187 66.3594 187.367 66.2656 187.664 66.125C188.539 66.125 189.25 66.0469 189.797 65.8906L190.219 66.125H190.383C190.555 65.9688 190.719 65.8906 190.875 65.8906H191.039C191.133 65.8906 191.18 65.9688 191.18 66.125C192.07 65.9688 193.195 65.6719 194.555 65.2344L195.445 65.1641C196.664 65.3516 197.273 65.7422 197.273 66.3359L197.414 66.9219C197.055 67.6562 196.641 68.0234 196.172 68.0234C195.719 68.1953 194.688 68.3906 193.078 68.6094C188.469 69.5312 185.828 70.1406 185.156 70.4375C184.906 70.4375 183.906 70.8516 182.156 71.6797C181.297 72.1328 180.711 72.3594 180.398 72.3594L179.156 71.9141L177.609 72.5703C176.188 72.3047 175.477 71.8672 175.477 71.2578C175.398 71.2578 175.328 71.0625 175.266 70.6719L175.336 70.2266L175.266 69.9219L175.922 68.8203C176.125 65.3672 176.32 63.1484 176.508 62.1641L176.438 61.8594L176.953 55.8359C176.953 55.6953 176.484 55.3359 175.547 54.7578C175.266 54.3672 175.125 54.0234 175.125 53.7266C175.156 53.4766 175.328 53.1797 175.641 52.8359C175.641 52.7578 175.273 52.6406 174.539 52.4844C173.898 52.0312 173.578 51.6328 173.578 51.2891V51.0078C173.578 50.1328 173.945 49.6172 174.68 49.4609L174.891 49.3906L174.961 49.4609H175.055C176.648 49.2266 179.312 48.6406 183.047 47.7031L186.844 47.0469ZM181.945 51.2188L181.875 51.2891V51.4531H181.945L182.086 51.2891L182.016 51.2188H181.945ZM206.414 47.0703L206.695 47.1406H206.859V47.0703C208.891 47.0703 210.711 48.1172 212.32 50.2109C212.398 50.6797 212.523 51.0078 212.695 51.1953C212.695 51.8203 212.297 52.2656 211.5 52.5312L211.055 52.6016C209.914 52.0078 208.742 51.7109 207.539 51.7109C205.617 51.7109 203.969 52.7812 202.594 54.9219C202.625 55.0781 202.922 55.2578 203.484 55.4609C203.672 55.6641 204.992 56.0859 207.445 56.7266C210.68 57.2578 212.758 57.7812 213.68 58.2969C214.805 58.7188 215.977 59.5703 217.195 60.8516C217.789 61.7422 218.086 62.7891 218.086 63.9922V64.2266C218.086 64.8984 217.711 65.9219 216.961 67.2969C215.539 68.8906 214.32 69.8828 213.305 70.2734C210.977 71.1328 209 71.5625 207.375 71.5625L207.305 71.6328H207.234L207.164 71.5625H207.07L206.25 71.6328H205.664L205.594 71.7031L205.5 71.6328H204.609C200.938 71.6328 198.445 70.1875 197.133 67.2969C197.023 67.2969 196.945 67.0703 196.898 66.6172L197.039 66.4531L197.648 66.8281H197.883V66.6875H198.023C198.242 66.6875 198.766 67.0391 199.594 67.7422H199.828V67.2969L199.734 66.9922C199.859 66.6016 200.062 66.2969 200.344 66.0781C200.344 65.6094 200.539 65.2656 200.93 65.0469L201.305 64.0625H201.469L201.539 64.4375H201.609L202.219 64.2969H202.43C202.883 64.4531 203.109 64.8281 203.109 65.4219C203.109 65.8594 203.234 66.1797 203.484 66.3828L203.414 67.2969C203.852 67.625 205.023 67.8984 206.93 68.1172L207 68.0234L207.539 68.1172C209.242 68.1172 210.883 67.6875 212.461 66.8281C213.57 65.8906 214.125 65.0469 214.125 64.2969C214.125 63.3438 213.047 62.2188 210.891 60.9219L209.766 60.4766C209.766 60.1797 208.797 59.8516 206.859 59.4922C204.359 59.3047 202.539 58.9844 201.398 58.5312C199.602 57.5 198.703 56.3281 198.703 55.0156L198.234 53.2812C198.234 50.2031 200.836 48.1562 206.039 47.1406L206.414 47.0703ZM227.18 47.0938C228.133 47.1562 228.609 47.4062 228.609 47.8438C229.641 50.1719 230.594 53.0547 231.469 56.4922C231.578 57.3203 231.695 57.7344 231.82 57.7344L232.289 57.6875C232.477 57.6875 232.57 57.7266 232.57 57.8047L232.617 57.7344H232.688C233.172 57.7344 233.477 58.0781 233.602 58.7656C233.602 59.25 233.141 59.7109 232.219 60.1484H232.172C232.766 64.3203 233.43 67.4844 234.164 69.6406L234.234 69.9219C234.047 70.5 233.68 70.7891 233.133 70.7891C233.133 70.8359 233 70.875 232.734 70.9062C232.734 71.2031 232.586 71.3516 232.289 71.3516L231.656 71.3047L231.586 71.3516H231.539C231.398 71.3516 231.055 70.7812 230.508 69.6406C229.93 68.2812 229.508 66.7344 229.242 65L229.312 64.6016C229.188 64.3984 229.031 63.75 228.844 62.6562L228.797 62.6094H228.727L226.547 63.5703C225.375 63.9609 224.789 64.2891 224.789 64.5547C224.305 66.4609 223.938 67.4141 223.688 67.4141C223.156 67.5703 222.891 68.0625 222.891 68.8906L222.211 72.6172C221.977 72.8516 221.805 72.9688 221.695 72.9688L221.625 72.8984H221.578L221.18 73.0156L221.109 72.8516H220.898L220.828 72.8984H220.781L220.547 72.2891C220.547 70.8828 220.93 68.5312 221.695 65.2344L221.625 65.1875H221.578L220.031 65.4219H219.633C218.977 65.1406 218.648 64.8281 218.648 64.4844L218.602 64.3203C218.867 63.7578 219.195 63.4766 219.586 63.4766C219.633 63.3359 220.07 63.2188 220.898 63.125L220.945 63.0547V63.0078L220.828 62.6562V62.6094C220.828 62.0312 221.438 61.4766 222.656 60.9453C222.875 60.7422 223.031 60.3594 223.125 59.7969C223.219 59.7031 223.391 58.8672 223.641 57.2891C224.219 55.5703 224.734 52.6484 225.188 48.5234C225.547 47.9922 225.891 47.7266 226.219 47.7266C226.312 47.5547 226.633 47.3438 227.18 47.0938ZM227.133 54.2422C226.82 55.0547 226.477 56.7578 226.102 59.3516H226.219C227.219 59.0859 227.867 58.8516 228.164 58.6484C227.633 55.8047 227.305 54.3359 227.18 54.2422H227.133Z" fill="#5700FF"/>
<path d="M10.3065 107.511V91.9943H15.6381C21.6651 91.9943 24.0042 93.6695 24.0042 99.7424C24.0042 105.711 21.4965 107.511 15.4695 107.511H10.3065ZM12.8564 105.166H15.596C20.19 105.166 21.4333 103.721 21.4333 99.7424C21.4333 95.7217 20.4007 94.4025 15.6803 94.4025H12.8564V105.166Z" fill="white"/>
<path d="M31.5813 107.742C26.6501 107.742 25.6807 104.999 25.6807 101.627C25.6807 98.2975 26.7344 95.5123 31.5391 95.5123C36.5125 95.5123 36.681 98.9466 36.5967 102.653H28.062C28.2095 104.496 28.9471 105.648 31.5813 105.648C33.4568 105.648 34.384 105.166 35.2902 104.517L36.5967 106.213C35.2481 107.239 33.8361 107.742 31.5813 107.742ZM31.4759 97.6692C29.0314 97.6692 28.2517 98.8001 28.062 100.538H34.2787C34.1733 98.8629 34.0047 97.6692 31.4759 97.6692Z" fill="white"/>
<path d="M43.183 107.721C41.3918 107.721 39.5162 107.365 37.9147 106.297L39.1791 104.412C40.4856 105.25 42.045 105.606 43.3305 105.606C45.2271 105.606 45.9436 105.334 45.9436 104.161C45.9436 103.198 45.2903 103.009 43.3516 102.695C40.5278 102.255 38.5679 101.816 38.5679 98.9885C38.5679 96.7688 39.8534 95.5123 43.3516 95.5123C45.185 95.5123 46.8287 95.8893 47.9877 96.5594L46.8287 98.5697C45.9647 98.109 44.7214 97.774 43.4148 97.774C41.4761 97.774 40.9914 98.2137 40.9914 98.9885C40.9914 99.9309 41.6236 100.161 43.4148 100.454C46.344 100.936 48.3249 101.292 48.3249 104.035C48.3249 106.716 46.8498 107.721 43.183 107.721Z" fill="white"/>
<path d="M55.7195 107.721C51.0834 107.721 49.8822 105.187 49.8822 101.627C49.8822 98.0881 51.0623 95.5123 55.8249 95.5123C57.9322 95.5123 59.3652 96.2453 60.3346 97.3342L58.5434 99.0095C58.0165 98.465 57.2789 97.8787 55.8249 97.8787C53.1064 97.8787 52.3478 99.3236 52.3478 101.69C52.3478 104.056 53.0643 105.543 55.8249 105.543C57.0471 105.543 57.8058 105.166 58.6698 104.37L60.3135 105.92C59.0491 107.093 57.8901 107.721 55.7195 107.721Z" fill="white"/>
<path d="M67.6762 107.721C63.1454 107.721 62.3446 105.962 62.3446 102.318V95.7846H64.7891V102.381C64.7891 104.14 64.8102 105.48 67.6762 105.48C70.5422 105.48 70.5422 104.14 70.5422 102.339V95.7846H72.9445V102.276C72.9445 105.941 72.207 107.721 67.6762 107.721Z" fill="white"/>
<path d="M82.254 107.721C79.8306 107.721 78.6294 107.281 77.934 106.402L77.4493 107.616L75.7845 107.428V91.2613H78.229V96.8107C78.8823 95.9312 80.1678 95.5123 82.4016 95.5123C86.3844 95.5123 87.4381 98.13 87.4381 101.627C87.4381 105.145 86.3212 107.721 82.254 107.721ZM81.8326 105.543C84.3192 105.543 84.9514 104.014 84.9514 101.732C84.9514 99.4073 84.3614 97.8577 81.8326 97.8577C79.2195 97.8577 78.2501 98.9466 78.2501 101.732C78.2501 104.496 79.1352 105.543 81.8326 105.543Z" fill="white"/>
<path d="M89.7785 107.511V95.9312L91.6962 95.7846L91.9491 97.1248C92.4338 96.329 93.8668 95.7008 95.8688 95.6589V98.109C93.0449 98.1299 92.2441 99.4492 92.2441 101.48V107.511H89.7785Z" fill="white"/>
<path d="M100.893 107.721C97.4155 107.721 96.6147 106.129 96.6147 104.14C96.6147 100.81 98.5113 99.8471 104.307 99.8471H104.897C104.854 98.4441 104.475 97.7949 102.136 97.7949C100.682 97.7949 99.4596 98.3394 98.7221 98.7791L97.4366 96.8735C98.2374 96.329 100.176 95.5123 102.389 95.5123C106.498 95.5123 107.257 96.8735 107.257 100.203V104.14C107.257 105.208 107.341 105.376 108.374 105.376V107.491C108.205 107.532 107.889 107.532 107.362 107.532C106.161 107.532 105.592 107.302 105.276 106.318C104.602 107.218 103.316 107.721 100.893 107.721ZM101.314 105.627C103.843 105.627 104.897 104.664 104.897 102.465V101.857H104.454C99.8179 101.857 98.9328 102.381 98.9328 103.952C98.9328 105.04 99.4386 105.627 101.314 105.627Z" fill="white"/>
<path d="M127.859 107.742C123.603 107.742 121.938 105.606 121.938 101.627C121.938 97.6483 123.603 95.5123 127.859 95.5123C132.116 95.5123 133.781 97.6483 133.781 101.627C133.781 105.606 132.116 107.742 127.859 107.742ZM127.859 105.543C130.451 105.543 131.315 104.119 131.315 101.69C131.315 99.2608 130.451 97.8577 127.859 97.8577C125.246 97.8577 124.403 99.2608 124.403 101.69C124.403 104.119 125.246 105.543 127.859 105.543Z" fill="white"/>
<path d="M140.325 107.721C138.534 107.721 136.658 107.365 135.057 106.297L136.321 104.412C137.628 105.25 139.187 105.606 140.472 105.606C142.369 105.606 143.086 105.334 143.086 104.161C143.086 103.198 142.432 103.009 140.494 102.695C137.67 102.255 135.71 101.816 135.71 98.9885C135.71 96.7688 136.995 95.5123 140.494 95.5123C142.327 95.5123 143.971 95.8893 145.13 96.5594L143.971 98.5697C143.107 98.109 141.863 97.774 140.557 97.774C138.618 97.774 138.133 98.2137 138.133 98.9885C138.133 99.9309 138.766 100.161 140.557 100.454C143.486 100.936 145.467 101.292 145.467 104.035C145.467 106.716 143.992 107.721 140.325 107.721Z" fill="white"/>
<path d="M159.727 107.511V91.9943H166.724C170.538 91.9943 172.182 93.1879 172.182 95.8893C172.182 97.6902 171.507 98.8838 169.969 99.3864C171.802 99.8471 172.582 101.041 172.582 103.219C172.582 106.506 170.559 107.511 166.639 107.511H159.727ZM162.235 105.271H166.913C169.063 105.271 170.011 104.622 170.011 102.988C170.011 101.397 169.084 100.748 166.892 100.748H162.235V105.271ZM162.235 98.4231H166.808C169.021 98.4231 169.59 97.5645 169.59 96.2662C169.59 94.9469 168.852 94.2768 166.808 94.2768H162.235V98.4231Z" fill="white"/>
<path d="M180.158 107.742C175.227 107.742 174.258 104.999 174.258 101.627C174.258 98.2975 175.311 95.5123 180.116 95.5123C185.089 95.5123 185.258 98.9466 185.174 102.653H176.639C176.786 104.496 177.524 105.648 180.158 105.648C182.034 105.648 182.961 105.166 183.867 104.517L185.174 106.213C183.825 107.239 182.413 107.742 180.158 107.742ZM180.053 97.6692C177.608 97.6692 176.829 98.8001 176.639 100.538H182.856C182.75 98.8629 182.582 97.6692 180.053 97.6692Z" fill="white"/>
<path d="M187.607 107.511V95.9312L189.524 95.7846L189.735 96.8107C190.304 96.1196 191.442 95.5123 194.055 95.5123C197.722 95.5123 198.291 97.4808 198.291 100.392V107.511H195.846V100.873C195.846 99.1561 195.678 97.9415 193.233 97.9415C190.536 97.9415 190.072 99.2398 190.072 101.083V107.511H187.607Z" fill="white"/>
<path d="M206.459 107.742C201.528 107.742 200.558 104.999 200.558 101.627C200.558 98.2975 201.612 95.5123 206.417 95.5123C211.39 95.5123 211.559 98.9466 211.474 102.653H202.94C203.087 104.496 203.825 105.648 206.459 105.648C208.334 105.648 209.262 105.166 210.168 104.517L211.474 106.213C210.126 107.239 208.714 107.742 206.459 107.742ZM206.353 97.6692C203.909 97.6692 203.129 98.8001 202.94 100.538H209.156C209.051 98.8629 208.882 97.6692 206.353 97.6692Z" fill="white"/>
<path d="M212.899 98.0043V95.7846H215.133V94.926C215.133 92.4759 215.976 90.9891 219.095 90.9891C219.643 90.9891 220.275 90.9891 220.528 91.01V93.1251H219.411C217.914 93.1251 217.556 93.8371 217.556 94.926V95.7846H220.528V98.0043H217.556V107.511H215.133V98.0043H212.899Z" fill="white"/>
<path d="M222.657 94.6328L224.807 91.0938H227.799L224.891 94.6328H222.657ZM222.615 107.511V95.7846H225.039V107.511H222.615Z" fill="white"/>
<path d="M233.334 107.721C228.698 107.721 227.497 105.187 227.497 101.627C227.497 98.0881 228.677 95.5123 233.439 95.5123C235.547 95.5123 236.98 96.2453 237.949 97.3342L236.158 99.0095C235.631 98.465 234.894 97.8787 233.439 97.8787C230.721 97.8787 229.962 99.3236 229.962 101.69C229.962 104.056 230.679 105.543 233.439 105.543C234.662 105.543 235.42 105.166 236.284 104.37L237.928 105.92C236.664 107.093 235.505 107.721 233.334 107.721Z" fill="white"/>
<path d="M240.313 107.511V95.7846H242.737V107.511H240.313ZM240.292 94.5072V91.8267H242.758V94.5072H240.292Z" fill="white"/>
<path d="M251.117 107.742C246.86 107.742 245.195 105.606 245.195 101.627C245.195 97.6483 246.86 95.5123 251.117 95.5123C255.374 95.5123 257.038 97.6483 257.038 101.627C257.038 105.606 255.374 107.742 251.117 107.742ZM251.117 105.543C253.709 105.543 254.573 104.119 254.573 101.69C254.573 99.2608 253.709 97.8577 251.117 97.8577C248.504 97.8577 247.661 99.2608 247.661 101.69C247.661 104.119 248.504 105.543 251.117 105.543Z" fill="white"/>
<path d="M263.582 107.721C261.791 107.721 259.916 107.365 258.314 106.297L259.578 104.412C260.885 105.25 262.444 105.606 263.73 105.606C265.626 105.606 266.343 105.334 266.343 104.161C266.343 103.198 265.69 103.009 263.751 102.695C260.927 102.255 258.967 101.816 258.967 98.9885C258.967 96.7688 260.253 95.5123 263.751 95.5123C265.584 95.5123 267.228 95.8893 268.387 96.5594L267.228 98.5697C266.364 98.109 265.121 97.774 263.814 97.774C261.875 97.774 261.391 98.2137 261.391 98.9885C261.391 99.9309 262.023 100.161 263.814 100.454C266.743 100.936 268.724 101.292 268.724 104.035C268.724 106.716 267.249 107.721 263.582 107.721Z" fill="white"/>
<path d="M287.241 107.721C283.259 107.721 282.163 105.103 282.163 101.585C282.163 98.109 283.28 95.5333 287.326 95.5333C289.686 95.5333 290.803 95.994 291.351 96.8107V91.2613H293.816V107.407L291.941 107.595L291.667 106.339C290.95 107.26 289.686 107.721 287.241 107.721ZM287.789 105.501C290.402 105.501 291.351 104.37 291.351 101.585C291.351 98.8419 290.487 97.8368 287.789 97.8368C285.26 97.8368 284.649 99.3026 284.649 101.585C284.649 103.91 285.26 105.501 287.789 105.501Z" fill="white"/>
<path d="M302.078 107.742C297.822 107.742 296.157 105.606 296.157 101.627C296.157 97.6483 297.822 95.5123 302.078 95.5123C306.335 95.5123 308 97.6483 308 101.627C308 105.606 306.335 107.742 302.078 107.742ZM302.078 105.543C304.67 105.543 305.534 104.119 305.534 101.69C305.534 99.2608 304.67 97.8577 302.078 97.8577C299.465 97.8577 298.622 99.2608 298.622 101.69C298.622 104.119 299.465 105.543 302.078 105.543Z" fill="white"/>
<path d="M10.3065 132.641V117.123H13.6361L18.5884 129.039L23.5406 117.123H26.8281V132.641H24.3203V121.374L19.5999 132.641H17.4926L12.7721 121.395V132.641H10.3065Z" fill="white"/>
<path d="M33.0087 119.741L36.0854 116.16H39.0567L35.2425 119.741H33.0087ZM35.3267 132.871C30.3956 132.871 29.4262 130.128 29.4262 126.756C29.4262 123.427 30.4799 120.641 35.2846 120.641C40.2579 120.641 40.4265 124.076 40.3422 127.782H31.8075C31.955 129.625 32.6926 130.777 35.3267 130.777C37.2023 130.777 38.1295 130.295 39.0357 129.646L40.3422 131.342C38.9935 132.368 37.5816 132.871 35.3267 132.871ZM35.2214 122.798C32.7769 122.798 31.9972 123.929 31.8075 125.667H38.0241C37.9188 123.992 37.7502 122.798 35.2214 122.798Z" fill="white"/>
<path d="M41.7052 123.133V120.914H43.8126L44.2551 117.773L46.1728 117.375V120.914H49.1863V123.133H46.1728V128.913C46.1728 129.897 46.2992 130.484 47.8165 130.484H49.1863V132.641C48.8491 132.662 47.7533 132.661 47.3529 132.661C44.4237 132.661 43.7283 131.614 43.7283 129.269V123.133H41.7052Z" fill="white"/>
<path d="M56.5653 132.871C52.3084 132.871 50.6436 130.735 50.6436 126.756C50.6436 122.777 52.3084 120.641 56.5653 120.641C60.8221 120.641 62.4869 122.777 62.4869 126.756C62.4869 130.735 60.8221 132.871 56.5653 132.871ZM56.5653 130.672C59.1573 130.672 60.0213 129.248 60.0213 126.819C60.0213 124.39 59.1573 122.987 56.5653 122.987C53.9522 122.987 53.1092 124.39 53.1092 126.819C53.1092 129.248 53.9522 130.672 56.5653 130.672Z" fill="white"/>
<path d="M69.3459 132.85C65.3631 132.85 64.2673 130.232 64.2673 126.714C64.2673 123.238 65.3841 120.662 69.4302 120.662C71.7904 120.662 72.9073 121.123 73.4552 121.94V116.39H75.9208V132.536L74.0453 132.724L73.7713 131.468C73.0548 132.389 71.7904 132.85 69.3459 132.85ZM69.8938 130.63C72.5069 130.63 73.4552 129.499 73.4552 126.714C73.4552 123.971 72.5912 122.966 69.8938 122.966C67.365 122.966 66.7539 124.432 66.7539 126.714C66.7539 129.039 67.365 130.63 69.8938 130.63Z" fill="white"/>
<path d="M84.1829 132.871C79.9261 132.871 78.2613 130.735 78.2613 126.756C78.2613 122.777 79.9261 120.641 84.1829 120.641C88.4397 120.641 90.1045 122.777 90.1045 126.756C90.1045 130.735 88.4397 132.871 84.1829 132.871ZM84.1829 130.672C86.7749 130.672 87.6389 129.248 87.6389 126.819C87.6389 124.39 86.7749 122.987 84.1829 122.987C81.5698 122.987 80.7269 124.39 80.7269 126.819C80.7269 129.248 81.5698 130.672 84.1829 130.672Z" fill="white"/>
<path d="M111.623 132.85C107.64 132.85 106.544 130.232 106.544 126.714C106.544 123.238 107.661 120.662 111.707 120.662C114.068 120.662 115.184 121.123 115.732 121.94V116.39H118.198V132.536L116.322 132.724L116.048 131.468C115.332 132.389 114.068 132.85 111.623 132.85ZM112.171 130.63C114.784 130.63 115.732 129.499 115.732 126.714C115.732 123.971 114.868 122.966 112.171 122.966C109.642 122.966 109.031 124.432 109.031 126.714C109.031 129.039 109.642 130.63 112.171 130.63Z" fill="white"/>
<path d="M126.439 132.871C121.508 132.871 120.538 130.128 120.538 126.756C120.538 123.427 121.592 120.641 126.397 120.641C131.37 120.641 131.539 124.076 131.454 127.782H122.92C123.067 129.625 123.805 130.777 126.439 130.777C128.314 130.777 129.242 130.295 130.148 129.646L131.454 131.342C130.106 132.368 128.694 132.871 126.439 132.871ZM126.334 122.798C123.889 122.798 123.109 123.929 122.92 125.667H129.136C129.031 123.992 128.862 122.798 126.334 122.798Z" fill="white"/>
<path d="M148.8 132.641V117.123H154.131C160.158 117.123 162.497 118.799 162.497 124.871C162.497 130.84 159.99 132.641 153.963 132.641H148.8ZM151.349 130.295H154.089C158.683 130.295 159.926 128.85 159.926 124.871C159.926 120.851 158.894 119.532 154.173 119.532H151.349V130.295Z" fill="white"/>
<path d="M170.074 132.871C165.143 132.871 164.174 130.128 164.174 126.756C164.174 123.427 165.227 120.641 170.032 120.641C175.005 120.641 175.174 124.076 175.09 127.782H166.555C166.703 129.625 167.44 130.777 170.074 130.777C171.95 130.777 172.877 130.295 173.783 129.646L175.09 131.342C173.741 132.368 172.329 132.871 170.074 132.871ZM169.969 122.798C167.524 122.798 166.745 123.929 166.555 125.667H172.772C172.666 123.992 172.498 122.798 169.969 122.798Z" fill="white"/>
<path d="M182.709 132.85C178.072 132.85 176.871 130.316 176.871 126.756C176.871 123.217 178.051 120.641 182.814 120.641C184.921 120.641 186.354 121.374 187.324 122.463L185.532 124.139C185.006 123.594 184.268 123.008 182.814 123.008C180.095 123.008 179.337 124.453 179.337 126.819C179.337 129.185 180.053 130.672 182.814 130.672C184.036 130.672 184.795 130.295 185.659 129.499L187.303 131.049C186.038 132.222 184.879 132.85 182.709 132.85Z" fill="white"/>
<path d="M194.503 132.871C190.246 132.871 188.581 130.735 188.581 126.756C188.581 122.777 190.246 120.641 194.503 120.641C198.759 120.641 200.424 122.777 200.424 126.756C200.424 130.735 198.759 132.871 194.503 132.871ZM194.503 130.672C197.095 130.672 197.959 129.248 197.959 126.819C197.959 124.39 197.095 122.987 194.503 122.987C191.89 122.987 191.047 124.39 191.047 126.819C191.047 129.248 191.89 130.672 194.503 130.672Z" fill="white"/>
<path d="M205.724 132.661C203.722 132.661 202.9 131.845 202.9 129.416V116.39H205.323V129.122C205.323 130.149 205.492 130.484 206.588 130.484C206.63 130.484 206.967 130.484 207.03 130.484V132.62C206.82 132.641 206.293 132.661 205.724 132.661Z" fill="white"/>
<path d="M212.673 132.85C209.196 132.85 208.396 131.258 208.396 129.269C208.396 125.939 210.292 124.976 216.087 124.976H216.677C216.635 123.573 216.256 122.924 213.917 122.924C212.463 122.924 211.24 123.468 210.503 123.908L209.217 122.003C210.018 121.458 211.957 120.641 214.17 120.641C218.279 120.641 219.038 122.003 219.038 125.332V129.269C219.038 130.337 219.122 130.505 220.155 130.505V132.62C219.986 132.662 219.67 132.661 219.143 132.661C217.942 132.661 217.373 132.431 217.057 131.447C216.382 132.347 215.097 132.85 212.673 132.85ZM213.095 130.756C215.624 130.756 216.677 129.793 216.677 127.594V126.987H216.235C211.599 126.987 210.714 127.51 210.714 129.081C210.714 130.17 211.219 130.756 213.095 130.756Z" fill="white"/>
<path d="M227.007 128.369C226.312 128.369 225.701 128.327 225.174 128.243C225.047 128.41 224.963 128.62 224.963 128.829C224.963 129.478 225.406 129.604 227.176 129.604C231.728 129.604 233.055 130.295 233.055 132.745C233.055 135.342 231.285 136.389 226.944 136.389C222.814 136.389 221.17 135.845 221.17 133.499C221.17 132.18 221.802 131.154 223.53 130.798C222.961 130.442 222.793 129.876 222.793 129.227C222.793 128.662 222.961 128.055 223.277 127.594C222.308 126.966 221.844 125.981 221.844 124.599C221.844 122.024 223.362 120.662 227.007 120.662H227.302L232.571 119.825V121.835H230.737C231.665 122.338 232.191 123.154 232.191 124.599C232.191 127.196 230.611 128.369 227.007 128.369ZM227.007 126.484C229.051 126.484 229.768 125.898 229.768 124.599C229.768 123.28 228.925 122.715 227.007 122.715C224.963 122.715 224.226 123.28 224.226 124.599C224.226 125.898 224.963 126.484 227.007 126.484ZM227.028 134.504C229.894 134.504 230.569 133.939 230.569 132.871C230.569 131.803 229.705 131.573 227.028 131.573C224.015 131.573 223.636 132.201 223.636 133.08C223.636 134.148 224.5 134.504 227.028 134.504Z" fill="white"/>
<path d="M240.189 132.871C235.257 132.871 234.288 130.128 234.288 126.756C234.288 123.427 235.342 120.641 240.146 120.641C245.12 120.641 245.288 124.076 245.204 127.782H236.669C236.817 129.625 237.554 130.777 240.189 130.777C242.064 130.777 242.991 130.295 243.897 129.646L245.204 131.342C243.855 132.368 242.443 132.871 240.189 132.871ZM240.083 122.798C237.639 122.798 236.859 123.929 236.669 125.667H242.886C242.781 123.992 242.612 122.798 240.083 122.798Z" fill="white"/>
<path d="M247.637 132.641V121.06L249.555 120.914L249.765 121.94C250.25 121.228 251.451 120.641 253.959 120.641C256.34 120.641 257.162 121.228 257.499 122.024C258.068 121.228 259.375 120.641 261.967 120.641C265.634 120.641 266.097 122.61 266.097 125.521V132.641H263.632V126.002C263.632 124.285 263.589 123.071 261.145 123.071C258.447 123.071 258.089 124.369 258.089 126.212V132.641H255.645V126.002C255.645 124.285 255.581 123.071 253.137 123.071C250.44 123.071 250.102 124.369 250.102 126.212V132.641H247.637Z" fill="white"/>
<path d="M288.085 132.85C284.102 132.85 283.007 130.232 283.007 126.714C283.007 123.238 284.123 120.662 288.169 120.662C290.53 120.662 291.647 121.123 292.194 121.94V116.39H294.66V132.536L292.785 132.724L292.511 131.468C291.794 132.389 290.53 132.85 288.085 132.85ZM288.633 130.63C291.246 130.63 292.194 129.499 292.194 126.714C292.194 123.971 291.33 122.966 288.633 122.966C286.104 122.966 285.493 124.432 285.493 126.714C285.493 129.039 286.104 130.63 288.633 130.63Z" fill="white"/>
<path d="M302.901 132.871C297.97 132.871 297.001 130.128 297.001 126.756C297.001 123.427 298.054 120.641 302.859 120.641C307.832 120.641 308.001 124.076 307.917 127.782H299.382C299.529 129.625 300.267 130.777 302.901 130.777C304.777 130.777 305.704 130.295 306.61 129.646L307.917 131.342C306.568 132.368 305.156 132.871 302.901 132.871ZM302.796 122.798C300.351 122.798 299.572 123.929 299.382 125.667H305.599C305.493 123.992 305.325 122.798 302.796 122.798Z" fill="white"/>
<path d="M15.1956 157.874L9 142.252H11.6763L16.5443 154.691L21.3701 142.252H24.0464L17.8087 157.874H15.1956Z" fill="white"/>
<path d="M29.7497 158C24.8185 158 23.8492 155.257 23.8492 151.885C23.8492 148.556 24.9028 145.771 29.7076 145.771C34.6809 145.771 34.8495 149.205 34.7652 152.911H26.2305C26.378 154.754 27.1155 155.906 29.7497 155.906C31.6252 155.906 32.5525 155.424 33.4586 154.775L34.7652 156.471C33.4165 157.497 32.0046 158 29.7497 158ZM29.6443 147.927C27.1998 147.927 26.4201 149.058 26.2305 150.796H32.4471C32.3417 149.121 32.1731 147.927 29.6443 147.927Z" fill="white"/>
<path d="M37.198 157.77V146.189L39.1157 146.043L39.3264 147.069C39.8954 146.378 41.0333 145.771 43.6465 145.771C47.3132 145.771 47.8822 147.739 47.8822 150.65V157.77H45.4377V151.131C45.4377 149.414 45.2691 148.2 42.8246 148.2C40.1272 148.2 39.6636 149.498 39.6636 151.341V157.77H37.198Z" fill="white"/>
<path d="M55.2284 157.979C51.2455 157.979 50.1497 155.361 50.1497 151.843C50.1497 148.367 51.2666 145.791 55.3127 145.791C57.6729 145.791 58.7898 146.252 59.3377 147.069V141.52H61.8033V157.665L59.9278 157.853L59.6538 156.597C58.9373 157.518 57.6729 157.979 55.2284 157.979ZM55.7763 155.759C58.3894 155.759 59.3377 154.629 59.3377 151.843C59.3377 149.1 58.4737 148.095 55.7763 148.095C53.2475 148.095 52.6364 149.561 52.6364 151.843C52.6364 154.168 53.2475 155.759 55.7763 155.759Z" fill="white"/>
<path d="M68.2742 157.979C64.797 157.979 63.9963 156.388 63.9963 154.398C63.9963 151.069 65.8929 150.105 71.688 150.105H72.2781C72.236 148.702 71.8566 148.053 69.5175 148.053C68.0634 148.053 66.8412 148.598 66.1036 149.037L64.8181 147.132C65.6189 146.587 67.5577 145.771 69.7704 145.771C73.8797 145.771 74.6383 147.132 74.6383 150.461V154.398C74.6383 155.466 74.7226 155.634 75.7552 155.634V157.749C75.5866 157.791 75.2705 157.791 74.7437 157.791C73.5425 157.791 72.9735 157.56 72.6574 156.576C71.9831 157.476 70.6976 157.979 68.2742 157.979ZM68.6956 155.885C71.2244 155.885 72.2781 154.922 72.2781 152.723V152.116H71.8355C67.1994 152.116 66.3143 152.639 66.3143 154.21C66.3143 155.299 66.8201 155.885 68.6956 155.885Z" fill="white"/>
<path d="M81.8724 157.979C80.0812 157.979 78.2056 157.623 76.6041 156.555L77.8685 154.67C79.175 155.508 80.7345 155.864 82.0199 155.864C83.9165 155.864 84.633 155.592 84.633 154.419C84.633 153.456 83.9797 153.267 82.041 152.953C79.2172 152.513 77.2573 152.074 77.2573 149.247C77.2573 147.027 78.5428 145.771 82.041 145.771C83.8744 145.771 85.5181 146.147 86.6771 146.818L85.5181 148.828C84.6541 148.367 83.4108 148.032 82.1042 148.032C80.1655 148.032 79.6808 148.472 79.6808 149.247C79.6808 150.189 80.313 150.419 82.1042 150.713C85.0334 151.194 87.0143 151.55 87.0143 154.293C87.0143 156.974 85.5392 157.979 81.8724 157.979Z" fill="white"/>
<path d="M89.0342 157.77V154.629H92.0056V157.77H89.0342Z" fill="white"/>
</svg>
