<svg width="900" height="295" viewBox="0 0 900 295" fill="none" xmlns="http://www.w3.org/2000/svg">
<path d="M6.68301 143.219V96.5706H22.634C40.6655 96.5706 47.6637 101.607 47.6637 119.863C47.6637 137.805 40.1611 143.219 22.1296 143.219H6.68301ZM14.3117 136.168H22.5079C36.2522 136.168 39.972 131.825 39.972 119.863C39.972 107.776 36.8827 103.81 22.7601 103.81H14.3117V136.168Z" fill="white"/>
<path d="M70.3327 143.912C55.5796 143.912 52.6795 135.665 52.6795 125.529C52.6795 115.52 55.8318 107.147 70.2066 107.147C85.0858 107.147 85.5901 117.471 85.338 128.614H59.8038C60.2451 134.154 62.4518 137.616 70.3327 137.616C75.9439 137.616 78.718 136.168 81.429 134.217L85.338 139.316C81.3029 142.401 77.0788 143.912 70.3327 143.912ZM70.0175 113.631C62.704 113.631 60.3712 117.031 59.8038 122.256H78.4027C78.0875 117.219 77.5831 113.631 70.0175 113.631Z" fill="white"/>
<path d="M105.043 143.849C99.6837 143.849 94.0725 142.778 89.2809 139.568L93.0637 133.902C96.9726 136.42 101.638 137.49 105.484 137.49C111.158 137.49 113.302 136.672 113.302 133.147C113.302 130.251 111.347 129.684 105.547 128.74C97.0987 127.418 91.2353 126.096 91.2353 117.597C91.2353 110.924 95.0812 107.147 105.547 107.147C111.032 107.147 115.95 108.28 119.417 110.294L115.95 116.338C113.365 114.953 109.645 113.946 105.736 113.946C99.9359 113.946 98.4858 115.268 98.4858 117.597C98.4858 120.43 100.377 121.122 105.736 122.004C114.5 123.452 120.426 124.522 120.426 132.769C120.426 140.827 116.013 143.849 105.043 143.849Z" fill="white"/>
<path d="M142.549 143.849C128.679 143.849 125.085 136.231 125.085 125.529C125.085 114.89 128.616 107.147 142.865 107.147C149.169 107.147 153.457 109.35 156.357 112.624L150.998 117.66C149.422 116.023 147.215 114.261 142.865 114.261C134.732 114.261 132.462 118.604 132.462 125.718C132.462 132.832 134.605 137.302 142.865 137.302C146.521 137.302 148.791 136.168 151.376 133.776L156.294 138.435C152.511 141.96 149.043 143.849 142.549 143.849Z" fill="white"/>
<path d="M178.321 143.849C164.766 143.849 162.37 138.561 162.37 127.607V107.965H169.684V127.796C169.684 133.084 169.747 137.113 178.321 137.113C186.896 137.113 186.896 133.084 186.896 127.67V107.965H194.083V127.481C194.083 138.498 191.877 143.849 178.321 143.849Z" fill="white"/>
<path d="M221.935 143.849C214.685 143.849 211.091 142.527 209.011 139.883L207.561 143.534L202.58 142.967V94.3673H209.893V111.05C211.848 108.406 215.694 107.147 222.377 107.147C234.293 107.147 237.445 115.016 237.445 125.529C237.445 136.105 234.103 143.849 221.935 143.849ZM220.674 137.302C228.114 137.302 230.005 132.706 230.005 125.844C230.005 118.856 228.24 114.198 220.674 114.198C212.857 114.198 209.956 117.471 209.956 125.844C209.956 134.154 212.604 137.302 220.674 137.302Z" fill="white"/>
<path d="M244.447 143.219V108.406L250.184 107.965L250.941 111.994C252.391 109.602 256.678 107.713 262.668 107.587V114.953C254.219 115.016 251.824 118.982 251.824 125.089V143.219H244.447Z" fill="white"/>
<path d="M277.698 143.849C267.295 143.849 264.9 139.064 264.9 133.084C264.9 123.074 270.574 120.178 287.912 120.178H289.677C289.551 115.96 288.416 114.009 281.418 114.009C277.068 114.009 273.411 115.646 271.204 116.968L267.358 111.239C269.754 109.602 275.555 107.147 282.175 107.147C294.469 107.147 296.738 111.239 296.738 121.248V133.084C296.738 136.294 296.991 136.798 300.08 136.798V143.156C299.576 143.282 298.63 143.282 297.054 143.282C293.46 143.282 291.758 142.59 290.812 139.631C288.794 142.338 284.949 143.849 277.698 143.849ZM278.959 137.553C286.525 137.553 289.677 134.657 289.677 128.047V126.222H288.353C274.483 126.222 271.835 127.796 271.835 132.517C271.835 135.791 273.348 137.553 278.959 137.553Z" fill="white"/>
<path d="M358.377 143.912C345.642 143.912 340.661 137.49 340.661 125.529C340.661 113.568 345.642 107.147 358.377 107.147C371.113 107.147 376.094 113.568 376.094 125.529C376.094 137.49 371.113 143.912 358.377 143.912ZM358.377 137.302C366.132 137.302 368.717 133.021 368.717 125.718C368.717 118.415 366.132 114.198 358.377 114.198C350.559 114.198 348.038 118.415 348.038 125.718C348.038 133.021 350.559 137.302 358.377 137.302Z" fill="white"/>
<path d="M395.672 143.849C390.313 143.849 384.702 142.778 379.91 139.568L383.693 133.902C387.602 136.42 392.267 137.49 396.113 137.49C401.787 137.49 403.931 136.672 403.931 133.147C403.931 130.251 401.977 129.684 396.176 128.74C387.728 127.418 381.864 126.096 381.864 117.597C381.864 110.924 385.71 107.147 396.176 107.147C401.661 107.147 406.579 108.28 410.047 110.294L406.579 116.338C403.994 114.953 400.274 113.946 396.365 113.946C390.565 113.946 389.115 115.268 389.115 117.597C389.115 120.43 391.006 121.122 396.365 122.004C405.129 123.452 411.055 124.522 411.055 132.769C411.055 140.827 406.642 143.849 395.672 143.849Z" fill="white"/>
<path d="M453.719 143.219V96.5706H474.651C486.063 96.5706 490.98 100.159 490.98 108.28C490.98 113.694 488.963 117.282 484.36 118.793C489.846 120.178 492.178 123.767 492.178 130.314C492.178 140.197 486.126 143.219 474.399 143.219H453.719ZM461.222 136.483H475.219C481.649 136.483 484.487 134.532 484.487 129.621C484.487 124.837 481.712 122.885 475.156 122.885H461.222V136.483ZM461.222 115.897H474.903C481.523 115.897 483.226 113.316 483.226 109.413C483.226 105.447 481.019 103.433 474.903 103.433H461.222V115.897Z" fill="white"/>
<path d="M514.845 143.912C500.092 143.912 497.192 135.665 497.192 125.529C497.192 115.52 500.344 107.147 514.719 107.147C529.598 107.147 530.102 117.471 529.85 128.614H504.316C504.757 134.154 506.964 137.616 514.845 137.616C520.456 137.616 523.23 136.168 525.941 134.217L529.85 139.316C525.815 142.401 521.591 143.912 514.845 143.912ZM514.53 113.631C507.216 113.631 504.883 117.031 504.316 122.256H522.915C522.6 117.219 522.095 113.631 514.53 113.631Z" fill="white"/>
<path d="M537.129 143.219V108.406L542.866 107.965L543.496 111.05C545.199 108.972 548.603 107.147 556.421 107.147C567.391 107.147 569.094 113.064 569.094 121.815V143.219H561.78V123.263C561.78 118.101 561.276 114.449 553.962 114.449C545.892 114.449 544.505 118.353 544.505 123.892V143.219H537.129Z" fill="white"/>
<path d="M593.531 143.912C578.778 143.912 575.878 135.665 575.878 125.529C575.878 115.52 579.03 107.147 593.405 107.147C608.284 107.147 608.788 117.471 608.536 128.614H583.002C583.443 134.154 585.65 137.616 593.531 137.616C599.142 137.616 601.916 136.168 604.627 134.217L608.536 139.316C604.501 142.401 600.277 143.912 593.531 143.912ZM593.216 113.631C585.902 113.631 583.569 117.031 583.002 122.256H601.601C601.286 117.219 600.781 113.631 593.216 113.631Z" fill="white"/>
<path d="M612.799 114.638V107.965H619.482V105.384C619.482 98.0186 622.003 93.5489 631.334 93.5489C632.974 93.5489 634.865 93.5489 635.622 93.6118V99.9701H632.28C627.804 99.9701 626.732 102.111 626.732 105.384V107.965H635.622V114.638H626.732V143.219H619.482V114.638H612.799Z" fill="white"/>
<path d="M641.993 104.503L648.424 93.8636H657.377L648.676 104.503H641.993ZM641.867 143.219V107.965H649.118V143.219H641.867Z" fill="white"/>
<path d="M673.936 143.849C660.066 143.849 656.472 136.231 656.472 125.529C656.472 114.89 660.003 107.147 674.251 107.147C680.556 107.147 684.843 109.35 687.744 112.624L682.385 117.66C680.808 116.023 678.602 114.261 674.251 114.261C666.118 114.261 663.849 118.604 663.849 125.718C663.849 132.832 665.992 137.302 674.251 137.302C677.908 137.302 680.178 136.168 682.763 133.776L687.681 138.435C683.898 141.96 680.43 143.849 673.936 143.849Z" fill="white"/>
<path d="M694.817 143.219V107.965H702.068V143.219H694.817ZM694.754 104.125V96.067H702.131V104.125H694.754Z" fill="white"/>
<path d="M727.138 143.912C714.403 143.912 709.422 137.49 709.422 125.529C709.422 113.568 714.403 107.147 727.138 107.147C739.874 107.147 744.855 113.568 744.855 125.529C744.855 137.49 739.874 143.912 727.138 143.912ZM727.138 137.302C734.893 137.302 737.478 133.021 737.478 125.718C737.478 118.415 734.893 114.198 727.138 114.198C719.32 114.198 716.799 118.415 716.799 125.718C716.799 133.021 719.32 137.302 727.138 137.302Z" fill="white"/>
<path d="M764.433 143.849C759.074 143.849 753.462 142.778 748.671 139.568L752.454 133.902C756.363 136.42 761.028 137.49 764.874 137.49C770.548 137.49 772.692 136.672 772.692 133.147C772.692 130.251 770.737 129.684 764.937 128.74C756.489 127.418 750.625 126.096 750.625 117.597C750.625 110.924 754.471 107.147 764.937 107.147C770.422 107.147 775.34 108.28 778.807 110.294L775.34 116.338C772.755 114.953 769.035 113.946 765.126 113.946C759.326 113.946 757.876 115.268 757.876 117.597C757.876 120.43 759.767 121.122 765.126 122.004C773.89 123.452 779.816 124.522 779.816 132.769C779.816 140.827 775.403 143.849 764.433 143.849Z" fill="white"/>
<path d="M835.216 143.849C823.3 143.849 820.022 135.98 820.022 125.403C820.022 114.953 823.363 107.21 835.468 107.21C842.529 107.21 845.871 108.595 847.51 111.05V94.3673H854.887V142.904L849.276 143.471L848.456 139.694C846.312 142.464 842.529 143.849 835.216 143.849ZM836.855 137.176C844.673 137.176 847.51 133.776 847.51 125.403C847.51 117.156 844.925 114.135 836.855 114.135C829.289 114.135 827.461 118.541 827.461 125.403C827.461 132.391 829.289 137.176 836.855 137.176Z" fill="white"/>
<path d="M879.605 143.912C866.87 143.912 861.889 137.49 861.889 125.529C861.889 113.568 866.87 107.147 879.605 107.147C892.341 107.147 897.321 113.568 897.321 125.529C897.321 137.49 892.341 143.912 879.605 143.912ZM879.605 137.302C887.36 137.302 889.945 133.021 889.945 125.718C889.945 118.415 887.36 114.198 879.605 114.198C871.787 114.198 869.265 118.415 869.265 125.718C869.265 133.021 871.787 137.302 879.605 137.302Z" fill="white"/>
<path d="M6.68301 218.763V172.115H16.6445L31.4606 207.935L46.2767 172.115H56.1121V218.763H48.6095V184.894L34.4869 218.763H28.1821L14.0595 184.957V218.763H6.68301Z" fill="white"/>
<path d="M74.6032 179.984L83.8081 169.219H92.6977L81.2862 179.984H74.6032ZM81.5384 219.456C66.7853 219.456 63.8851 211.209 63.8851 201.073C63.8851 191.064 67.0375 182.691 81.4123 182.691C96.2914 182.691 96.7958 193.015 96.5436 204.158H71.0095C71.4508 209.698 73.6575 213.16 81.5384 213.16C87.1496 213.16 89.9237 211.713 92.6347 209.761L96.5436 214.86C92.5086 217.945 88.2844 219.456 81.5384 219.456ZM81.2231 189.175C73.9096 189.175 71.5769 192.575 71.0095 197.8H89.6084C89.2932 192.764 88.7888 189.175 81.2231 189.175Z" fill="white"/>
<path d="M100.621 190.182V183.509H106.926L108.25 174.066L113.988 172.87V183.509H123.003V190.182H113.988V207.558C113.988 210.516 114.366 212.279 118.905 212.279H123.003V218.763C121.995 218.826 118.716 218.826 117.518 218.826C108.755 218.826 106.674 215.679 106.674 208.628V190.182H100.621Z" fill="white"/>
<path d="M145.08 219.456C132.344 219.456 127.363 213.035 127.363 201.073C127.363 189.112 132.344 182.691 145.08 182.691C157.815 182.691 162.796 189.112 162.796 201.073C162.796 213.035 157.815 219.456 145.08 219.456ZM145.08 212.846C152.835 212.846 155.419 208.565 155.419 201.262C155.419 193.96 152.835 189.742 145.08 189.742C137.262 189.742 134.74 193.96 134.74 201.262C134.74 208.565 137.262 212.846 145.08 212.846Z" fill="white"/>
<path d="M183.317 219.393C171.401 219.393 168.122 211.524 168.122 200.947C168.122 190.497 171.464 182.754 183.569 182.754C190.63 182.754 193.972 184.139 195.611 186.594V169.911H202.988V218.449L197.376 219.015L196.557 215.238C194.413 218.008 190.63 219.393 183.317 219.393ZM184.956 212.72C192.774 212.72 195.611 209.32 195.611 200.947C195.611 192.701 193.026 189.679 184.956 189.679C177.39 189.679 175.562 194.086 175.562 200.947C175.562 207.935 177.39 212.72 184.956 212.72Z" fill="white"/>
<path d="M227.706 219.456C214.971 219.456 209.99 213.035 209.99 201.073C209.99 189.112 214.971 182.691 227.706 182.691C240.442 182.691 245.422 189.112 245.422 201.073C245.422 213.035 240.442 219.456 227.706 219.456ZM227.706 212.846C235.461 212.846 238.046 208.565 238.046 201.262C238.046 193.96 235.461 189.742 227.706 189.742C219.888 189.742 217.366 193.96 217.366 201.262C217.366 208.565 219.888 212.846 227.706 212.846Z" fill="white"/>
<path d="M309.801 219.393C297.885 219.393 294.607 211.524 294.607 200.947C294.607 190.497 297.948 182.754 310.054 182.754C317.115 182.754 320.456 184.139 322.096 186.594V169.911H329.472V218.449L323.861 219.015L323.041 215.238C320.898 218.008 317.115 219.393 309.801 219.393ZM311.441 212.72C319.258 212.72 322.096 209.32 322.096 200.947C322.096 192.701 319.511 189.679 311.441 189.679C303.875 189.679 302.047 194.086 302.047 200.947C302.047 207.935 303.875 212.72 311.441 212.72Z" fill="white"/>
<path d="M354.128 219.456C339.375 219.456 336.474 211.209 336.474 201.073C336.474 191.064 339.627 182.691 354.001 182.691C368.881 182.691 369.385 193.015 369.133 204.158H343.599C344.04 209.698 346.247 213.16 354.128 213.16C359.739 213.16 362.513 211.713 365.224 209.761L369.133 214.86C365.098 217.945 360.874 219.456 354.128 219.456ZM353.812 189.175C346.499 189.175 344.166 192.575 343.599 197.8H362.198C361.882 192.764 361.378 189.175 353.812 189.175Z" fill="white"/>
<path d="M421.026 218.763V172.115H436.977C455.008 172.115 462.007 177.151 462.007 195.408C462.007 213.349 454.504 218.763 436.473 218.763H421.026ZM428.655 211.713H436.851C450.595 211.713 454.315 207.369 454.315 195.408C454.315 183.321 451.226 179.354 437.103 179.354H428.655V211.713Z" fill="white"/>
<path d="M484.676 219.456C469.923 219.456 467.022 211.209 467.022 201.073C467.022 191.064 470.175 182.691 484.55 182.691C499.429 182.691 499.933 193.015 499.681 204.158H474.147C474.588 209.698 476.795 213.16 484.676 213.16C490.287 213.16 493.061 211.713 495.772 209.761L499.681 214.86C495.646 217.945 491.422 219.456 484.676 219.456ZM484.36 189.175C477.047 189.175 474.714 192.575 474.147 197.8H492.746C492.43 192.764 491.926 189.175 484.36 189.175Z" fill="white"/>
<path d="M522.475 219.393C508.605 219.393 505.011 211.775 505.011 201.073C505.011 190.434 508.542 182.691 522.79 182.691C529.095 182.691 533.382 184.894 536.282 188.168L530.923 193.204C529.347 191.567 527.14 189.805 522.79 189.805C514.657 189.805 512.387 194.149 512.387 201.262C512.387 208.376 514.531 212.846 522.79 212.846C526.447 212.846 528.717 211.713 531.302 209.32L536.219 213.979C532.436 217.504 528.969 219.393 522.475 219.393Z" fill="white"/>
<path d="M557.76 219.456C545.025 219.456 540.044 213.035 540.044 201.073C540.044 189.112 545.025 182.691 557.76 182.691C570.496 182.691 575.477 189.112 575.477 201.073C575.477 213.035 570.496 219.456 557.76 219.456ZM557.76 212.846C565.515 212.846 568.1 208.565 568.1 201.262C568.1 193.96 565.515 189.742 557.76 189.742C549.942 189.742 547.42 193.96 547.42 201.262C547.42 208.565 549.942 212.846 557.76 212.846Z" fill="white"/>
<path d="M591.332 218.826C585.342 218.826 582.884 216.371 582.884 209.068V169.911H590.134V208.187C590.134 211.272 590.638 212.279 593.917 212.279C594.043 212.279 595.052 212.279 595.241 212.279V218.7C594.61 218.763 593.034 218.826 591.332 218.826Z" fill="white"/>
<path d="M612.124 219.393C601.721 219.393 599.325 214.608 599.325 208.628C599.325 198.618 604.999 195.722 622.337 195.722H624.103C623.977 191.504 622.842 189.553 615.844 189.553C611.493 189.553 607.837 191.19 605.63 192.512L601.784 186.783C604.18 185.146 609.98 182.691 616.6 182.691C628.894 182.691 631.164 186.783 631.164 196.793V208.628C631.164 211.838 631.416 212.342 634.506 212.342V218.7C634.001 218.826 633.055 218.826 631.479 218.826C627.886 218.826 626.183 218.134 625.238 215.175C623.22 217.882 619.374 219.393 612.124 219.393ZM613.385 213.098C620.95 213.098 624.103 210.202 624.103 203.592V201.766H622.779C608.908 201.766 606.26 203.34 606.26 208.061C606.26 211.335 607.773 213.098 613.385 213.098Z" fill="white"/>
<path d="M655.008 205.921C652.927 205.921 651.099 205.795 649.523 205.543C649.144 206.047 648.892 206.676 648.892 207.306C648.892 209.257 650.216 209.635 655.512 209.635C669.13 209.635 673.102 211.713 673.102 219.078C673.102 226.884 667.806 230.032 654.819 230.032C642.461 230.032 637.544 228.395 637.544 221.344C637.544 217.378 639.435 214.294 644.605 213.223C642.903 212.153 642.398 210.453 642.398 208.502C642.398 206.802 642.903 204.977 643.848 203.592C640.948 201.703 639.561 198.744 639.561 194.589C639.561 186.846 644.101 182.754 655.008 182.754H655.89L671.652 180.236V186.279H666.167C668.941 187.79 670.517 190.245 670.517 194.589C670.517 202.395 665.789 205.921 655.008 205.921ZM655.008 200.255C661.123 200.255 663.267 198.492 663.267 194.589C663.267 190.623 660.745 188.923 655.008 188.923C648.892 188.923 646.686 190.623 646.686 194.589C646.686 198.492 648.892 200.255 655.008 200.255ZM655.071 224.366C663.645 224.366 665.663 222.666 665.663 219.456C665.663 216.245 663.078 215.553 655.071 215.553C646.055 215.553 644.92 217.441 644.92 220.085C644.92 223.296 647.505 224.366 655.071 224.366Z" fill="white"/>
<path d="M694.443 219.456C679.69 219.456 676.79 211.209 676.79 201.073C676.79 191.064 679.942 182.691 694.317 182.691C709.196 182.691 709.701 193.015 709.449 204.158H683.914C684.356 209.698 686.562 213.16 694.443 213.16C700.055 213.16 702.829 211.713 705.54 209.761L709.449 214.86C705.414 217.945 701.189 219.456 694.443 219.456ZM694.128 189.175C686.815 189.175 684.482 192.575 683.914 197.8H702.513C702.198 192.764 701.694 189.175 694.128 189.175Z" fill="white"/>
<path d="M716.727 218.763V183.95L722.464 183.509L723.095 186.594C724.545 184.454 728.139 182.691 735.641 182.691C742.766 182.691 745.224 184.454 746.233 186.846C747.936 184.454 751.844 182.691 759.599 182.691C770.569 182.691 771.956 188.609 771.956 197.359V218.763H764.58V198.807C764.58 193.645 764.454 189.994 757.14 189.994C749.07 189.994 747.999 193.897 747.999 199.437V218.763H740.685V198.807C740.685 193.645 740.496 189.994 733.182 189.994C725.112 189.994 724.104 193.897 724.104 199.437V218.763H716.727Z" fill="white"/>
<path d="M837.74 219.393C825.824 219.393 822.546 211.524 822.546 200.947C822.546 190.497 825.887 182.754 837.992 182.754C845.054 182.754 848.395 184.139 850.035 186.594V169.911H857.411V218.449L851.8 219.015L850.98 215.238C848.837 218.008 845.054 219.393 837.74 219.393ZM839.38 212.72C847.197 212.72 850.035 209.32 850.035 200.947C850.035 192.701 847.45 189.679 839.38 189.679C831.814 189.679 829.986 194.086 829.986 200.947C829.986 207.935 831.814 212.72 839.38 212.72Z" fill="white"/>
<path d="M882.066 219.456C867.313 219.456 864.413 211.209 864.413 201.073C864.413 191.064 867.566 182.691 881.94 182.691C896.82 182.691 897.324 193.015 897.072 204.158H871.538C871.979 209.698 874.186 213.16 882.066 213.16C887.678 213.16 890.452 211.713 893.163 209.761L897.072 214.86C893.037 217.945 888.813 219.456 882.066 219.456ZM881.751 189.175C874.438 189.175 872.105 192.575 871.538 197.8H890.137C889.821 192.764 889.317 189.175 881.751 189.175Z" fill="white"/>
<path d="M21.31 294.622L2.77408 247.659H10.7811L25.345 285.053L39.7828 247.659H47.7898L29.1278 294.622H21.31Z" fill="white"/>
<path d="M64.853 295C50.0999 295 47.1998 286.753 47.1998 276.618C47.1998 266.608 50.3521 258.235 64.7269 258.235C79.6061 258.235 80.1104 268.56 79.8583 279.702H54.3241C54.7654 285.242 56.9721 288.705 64.853 288.705C70.4642 288.705 73.2383 287.257 75.9493 285.305L79.8583 290.404C75.8232 293.489 71.5991 295 64.853 295ZM64.5378 264.719C57.2243 264.719 54.8915 268.119 54.3241 273.344H72.923C72.6078 268.308 72.1034 264.719 64.5378 264.719Z" fill="white"/>
<path d="M87.1368 294.307V259.494L92.8741 259.054L93.5045 262.138C95.2068 260.061 98.6114 258.235 106.429 258.235C117.399 258.235 119.102 264.153 119.102 272.903V294.307H111.788V274.351C111.788 269.189 111.284 265.538 103.97 265.538C95.9003 265.538 94.5133 269.441 94.5133 274.981V294.307H87.1368Z" fill="white"/>
<path d="M141.08 294.937C129.164 294.937 125.886 287.068 125.886 276.492C125.886 266.041 129.227 258.298 141.332 258.298C148.394 258.298 151.735 259.683 153.374 262.138V245.456H160.751V293.993L155.14 294.559L154.32 290.782C152.176 293.552 148.394 294.937 141.08 294.937ZM142.719 288.264C150.537 288.264 153.374 284.864 153.374 276.492C153.374 268.245 150.789 265.223 142.719 265.223C135.154 265.223 133.325 269.63 133.325 276.492C133.325 283.479 135.154 288.264 142.719 288.264Z" fill="white"/>
<path d="M180.11 294.937C169.708 294.937 167.312 290.153 167.312 284.172C167.312 274.162 172.986 271.267 190.324 271.267H192.089C191.963 267.049 190.828 265.097 183.83 265.097C179.48 265.097 175.823 266.734 173.616 268.056L169.771 262.327C172.166 260.69 177.967 258.235 184.587 258.235C196.881 258.235 199.151 262.327 199.151 272.337V284.172C199.151 287.383 199.403 287.886 202.492 287.886V294.245C201.988 294.37 201.042 294.37 199.466 294.37C195.872 294.37 194.17 293.678 193.224 290.719C191.207 293.426 187.361 294.937 180.11 294.937ZM181.371 288.642C188.937 288.642 192.089 285.746 192.089 279.136V277.31H190.765C176.895 277.31 174.247 278.884 174.247 283.605C174.247 286.879 175.76 288.642 181.371 288.642Z" fill="white"/>
<path d="M220.794 294.937C215.435 294.937 209.823 293.867 205.032 290.656L208.815 284.99C212.724 287.509 217.389 288.579 221.235 288.579C226.909 288.579 229.053 287.76 229.053 284.235C229.053 281.339 227.098 280.773 221.298 279.828C212.85 278.506 206.986 277.184 206.986 268.685C206.986 262.012 210.832 258.235 221.298 258.235C226.783 258.235 231.701 259.368 235.168 261.383L231.701 267.426C229.116 266.041 225.396 265.034 221.487 265.034C215.687 265.034 214.237 266.356 214.237 268.685C214.237 271.518 216.128 272.211 221.487 273.092C230.251 274.54 236.177 275.61 236.177 283.857C236.177 291.915 231.764 294.937 220.794 294.937Z" fill="white"/>
<path d="M242.22 294.307V284.864H251.11V294.307H242.22Z" fill="white"/>
<path d="M50.8751 2.52264L51.0114 2.65779H51.1022L52.0107 2.52264L52.6012 2.65779L52.9192 2.52264C55.7658 2.70283 57.1891 3.22838 57.1891 4.0993C57.7039 4.94018 58.2035 5.36062 58.6881 5.36062C60.2628 5.36062 61.0501 5.61589 61.0501 6.12642L61.7315 6.80213V7.02736C61.5498 7.02736 61.459 7.10244 61.459 7.2526V7.38774C61.6406 7.83821 61.8375 8.06345 62.0495 8.06345V8.8743C61.4438 9.53499 60.4293 9.86534 59.006 9.86534C58.5215 10.1356 57.613 10.3308 56.2806 10.451C56.2806 10.5711 55.0541 10.7963 52.6012 11.1267H52.3287L52.1924 10.9915C51.9501 11.1417 50.33 11.3669 47.332 11.6672L47.2412 11.8024L46.9232 11.8925L46.8324 11.8024H46.7415L44.9245 12.1177L44.6066 12.0276L43.5164 12.2528L42.9713 12.1177C42.9713 12.358 42.5019 12.5081 41.5631 12.5682H40.8818L40.473 12.9285L39.2465 12.7934C38.7317 13.0337 36.0517 13.5292 31.2064 14.28L29.5257 14.8656L29.6166 15.4061L29.5257 15.7665L29.7074 17.3432C29.5863 17.7036 29.5257 18.3793 29.5257 19.3703V23.1993L29.6166 23.3345L29.5257 23.4245V23.6498L29.6166 23.7849L29.5257 23.875L29.7074 31.8934L29.7983 32.0286V32.1187L29.7074 32.5691V33.2899L29.8891 35.317L29.7983 35.7675L30.5251 51.7142V52.2548L30.6159 52.3899L30.5251 52.48V52.6151L30.6159 53.3809L30.5251 53.7413L30.6159 55.0927V57.3451C30.6159 58.9368 31.3578 61.5795 32.8417 65.2734V65.3635C32.8417 66.2644 32.3723 66.7149 31.4335 66.7149L31.0247 66.6248H30.9339L30.843 66.7149H30.7068C30.8582 68.7871 31.0247 70.2286 31.2064 71.0395C30.5705 72.1506 29.9648 72.7062 29.3895 72.7062H29.2986L27.4816 72.2557C26.8154 71.6551 26.3763 71.0545 26.1643 70.4538L26.2552 69.1925V68.742L26.1643 68.6519L26.2552 68.5168L26.0735 64.8229L26.1643 63.7869V63.5616L26.0735 62.4354L26.1643 61.985L25.9372 60.0479C26.0886 60.0479 26.1946 59.7476 26.2552 59.147L26.1643 58.6064L26.2552 58.0208L25.3467 50.543V50.3177L25.5284 50.0925C25.1953 49.4318 24.9985 48.681 24.9379 47.8401L25.165 46.8491V46.714C24.8925 46.4737 24.6805 45.8731 24.5291 44.9121L24.6199 44.5517C24.3474 44.5517 23.5449 38.6805 22.2124 26.9382L22.3033 26.5779C22.1822 26.5779 22.0156 24.9712 21.8036 21.7578C21.5311 18.4243 21.2888 16.7576 21.0768 16.7576H20.8043C16.7767 17.8988 14.5055 18.6946 13.9907 19.1451L11.2652 20.2712C9.02427 21.4124 7.22245 22.1632 5.85972 22.5236H4.76954C3.83077 22.5236 2.95257 21.5476 2.13494 19.5955V19.2352L2.22579 18.7847L2.13494 18.109L3.54309 16.6675C1.90782 16.6675 0.726787 15.4512 0 13.0186V12.7934C1.02962 11.7423 1.96838 11.2168 2.8163 11.2168L3.45224 11.3519C7.5707 10.8113 10.2659 10.2407 11.5377 9.6401L11.674 9.77524H11.7649C14.3389 8.84427 20.3803 7.37273 29.8891 5.36062C30.9187 5.0603 33.4322 4.56478 37.4295 3.87406L37.7021 3.78397L38.1109 3.87406L38.4289 3.64882L38.5197 3.78397H38.6106L42.5625 3.19835L42.6988 3.33349L45.0154 3.10826H45.4242L46.2418 2.88302L50.8751 2.65779V2.52264ZM6.67736 15.9918V16.217H6.90448V15.9918H6.67736ZM4.45157 16.6675V16.8927H5.08751L5.17836 16.5323L5.08751 16.4422H4.67869L4.45157 16.6675ZM3.86106 16.6675V16.9828H4.04275L4.26988 16.7576L4.17903 16.6675H3.86106Z" fill="#671DF7"/>
<path d="M67.8183 20.4514L69.4536 20.5866H71.2252C74.738 21.5776 77.4028 22.5086 79.2198 23.3795C80.2797 23.83 81.809 25.1514 83.8077 27.3437C83.8379 27.9143 83.9894 28.4548 84.2619 28.9654L84.1256 29.6861V30.0014L84.2619 30.5871C83.8985 32.8094 82.4601 35.4071 79.9466 38.3802C78.6747 40.2422 76.5549 42.1942 73.5872 44.2364C72.0125 44.9271 71.2252 45.4226 71.2252 45.7229C71.2252 46.0533 72.3002 46.5488 74.4503 47.2095C76.8426 48.5008 80.1586 49.5219 84.3982 50.2727C92.9379 52.6752 98.4797 56.1138 101.023 60.5885L100.842 61.1741L101.023 62.03C100.66 63.6517 100.251 64.4926 99.797 64.5527L98.616 64.3725L98.2071 64.8229H97.7529C96.4204 64.8229 94.0433 63.7418 90.6213 61.5795C87.9261 60.108 84.6253 58.4563 80.7188 56.6243C79.0835 55.4231 77.1454 54.8225 74.9045 54.8225V55.0026C73.6932 54.4921 71.9217 54.2368 69.5899 54.2368V54.417L67.5004 54.1017L67.0461 54.417C67.0764 57.4202 67.3792 60.4984 67.9546 63.6517L67.8183 63.7869V63.967L68.9994 68.3817C68.9994 69.1925 67.7578 69.8232 65.2746 70.2736C64.6084 70.2736 63.3819 69.1024 61.5952 66.76C61.0804 67.3306 60.5353 67.6159 59.9599 67.6159L59.7783 67.7961L59.1877 67.9312C58.0673 67.4807 57.2799 66.7449 56.8257 65.7239C55.463 62.1201 54.1759 57.3601 52.9646 51.4439C51.9047 50.9934 51.1628 50.558 50.7388 50.1375C50.2543 49.9874 49.8152 49.1465 49.4215 47.6149C49.4215 46.6539 50.118 45.8731 51.511 45.2724C50.9962 42.8399 50.6026 40.1971 50.33 37.3441C50.5117 33.41 50.9054 31.443 51.511 31.443L52.1016 31.8934C52.2833 31.8934 52.4347 31.6081 52.5558 31.0375L52.1016 30.2717V30.0014C52.1016 28.4398 53.4794 26.5779 56.2352 24.4156C58.7789 22.914 60.8533 21.983 62.4583 21.6227C62.4583 21.3223 64.245 20.9319 67.8183 20.4514ZM63.821 31.3078C64.6992 33.44 65.3806 36.7285 65.8651 41.1731L66.0014 41.3083H66.1831C67.3338 41.3083 69.3022 39.3562 72.0882 35.4522C73.8749 33.7704 75.1619 32.2388 75.9493 30.8573L76.0855 29.6861C76.0855 29.3257 74.6623 29.0855 71.8157 28.9654V29.1005L71.634 28.9654H71.0435C68.7722 28.9654 66.4556 29.596 64.0936 30.8573L63.821 31.3078ZM59.0515 55.8585V56.4442C59.3543 56.7445 59.5057 57.24 59.5057 57.9307H59.642L59.5057 58.0659V58.201C59.7783 59.6725 60.0205 60.4083 60.2325 60.4083H60.3688L60.0962 56.8946L60.2325 56.309L59.9599 55.4081V55.0026C59.3543 55.0026 59.0515 55.2879 59.0515 55.8585ZM60.2325 60.5885L60.0962 60.7236V60.8588L60.5505 61.3093V60.8588L60.2325 60.5885Z" fill="#671DF7"/>
<path d="M115.923 20.4514C117.77 20.5716 118.693 21.0521 118.693 21.8929C120.692 26.3676 122.539 31.9084 124.235 38.5154C124.447 40.107 124.674 40.9029 124.917 40.9029L125.825 40.8128C126.188 40.8128 126.37 40.8879 126.37 41.038L126.461 40.9029H126.597C127.536 40.9029 128.127 41.5636 128.369 42.8849C128.369 43.8159 127.475 44.7018 125.689 45.5427H125.598C126.749 53.5611 128.036 59.6425 129.459 63.7869L129.595 64.3274C129.232 65.4386 128.52 65.9942 127.46 65.9942C127.46 66.0843 127.203 66.1593 126.688 66.2194C126.688 66.79 126.4 67.0753 125.825 67.0753L124.599 66.9852L124.462 67.0753H124.371C124.099 67.0753 123.433 65.9791 122.373 63.7869C121.252 61.1741 120.435 58.201 119.92 54.8675L120.056 54.1017C119.814 53.7113 119.511 52.465 119.148 50.3628L119.057 50.2727H118.921L114.696 52.1196C112.425 52.8704 111.289 53.5011 111.289 54.0116C110.351 57.6754 109.639 59.5074 109.154 59.5074C108.125 59.8077 107.61 60.7537 107.61 62.3453L106.293 69.5078C105.838 69.9583 105.505 70.1836 105.293 70.1836L105.157 70.0484H105.066L104.294 70.2736L104.158 69.9583H103.749L103.613 70.0484H103.522L103.068 68.8772C103.068 66.1743 103.809 61.6546 105.293 55.318L105.157 55.2279H105.066L102.068 55.6784H101.296C100.024 55.1378 99.3882 54.5372 99.3882 53.8765L99.2973 53.5611C99.8121 52.48 100.448 51.9394 101.205 51.9394C101.296 51.6692 102.144 51.4439 103.749 51.2637L103.84 51.1286V51.0385L103.613 50.3628V50.2727C103.613 49.1615 104.794 48.0954 107.156 47.0743C107.58 46.6839 107.882 45.9482 108.064 44.867C108.246 44.6868 108.579 43.0802 109.064 40.047C110.184 36.7435 111.183 31.1276 112.062 23.1993C112.758 22.1782 113.424 21.6677 114.06 21.6677C114.242 21.3374 114.863 20.9319 115.923 20.4514ZM115.832 34.1908C115.226 35.7525 114.56 39.0259 113.833 44.0111H114.06C115.998 43.5006 117.255 43.0501 117.83 42.6597C116.801 37.194 116.165 34.371 115.923 34.1908H115.832Z" fill="#671DF7"/>
<path d="M152.126 19.7757C154.276 20.5565 155.351 21.7428 155.351 23.3345C155.411 24.8661 155.563 25.6319 155.805 25.6319C156.259 25.6319 156.683 26.1574 157.077 27.2085C157.319 27.2085 157.471 27.7791 157.531 28.9203L157.213 29.8213C157.365 34.4761 157.546 36.8036 157.758 36.8036L157.667 36.9387C158.667 42.2543 159.621 46.2485 160.529 48.9213L162.164 55.0927C163.769 61.8498 164.799 65.814 165.253 66.9852C165.647 67.5858 165.919 68.1865 166.071 68.7871C166.071 69.5679 165.692 70.1085 164.935 70.4088C164.935 70.7992 164.511 71.0545 163.663 71.1746L163.527 71.3097C162.164 71.3097 160.514 70.2436 158.576 68.1114C153.943 63.4865 151.414 60.7086 150.99 59.7776L145.903 53.6062C144.449 51.6541 143.525 50.543 143.132 50.2727L142.905 50.4979L143.041 52.7052L142.905 54.0566C143.238 61.2041 143.616 65.1983 144.04 66.0392L143.949 66.1744L144.04 66.6248C144.04 67.5858 143.586 68.3516 142.677 68.9222C141.012 68.5919 139.861 68.0513 139.225 67.3005L137.953 64.7779L136.818 63.6517C135.304 60.1981 133.956 55.0927 132.775 48.3357C132.654 48.3357 132.306 46.3986 131.73 42.5246L131.503 40.8128L131.639 40.6776L131.503 40.0019L131.639 36.218V35.9927L131.73 35.0017C131.427 34.1608 131.276 33.4701 131.276 32.9295C131.276 32.3589 131.897 31.8183 133.138 31.3078H133.593C134.229 31.3078 135.031 31.6982 136 32.479C136 32.7193 136.348 33.0647 137.045 33.5151L137.136 33.38C138.741 33.38 139.816 33.7554 140.361 34.5062C140.845 34.5062 141.421 35.8125 142.087 38.4253L147.038 43.1102C150.763 47.3146 153.307 50.3177 154.669 52.1196L154.76 51.9845V51.8944C154.245 47.1794 153.17 39.8668 151.535 29.9564L150.263 22.4335C150.536 20.6617 151.157 19.7757 152.126 19.7757Z" fill="#671DF7"/>
<path d="M184.331 20.4064L184.877 20.5415H185.194V20.4064C189.131 20.4064 192.659 22.4185 195.778 26.4427C195.93 27.3437 196.172 27.9743 196.505 28.3347C196.505 29.536 195.733 30.3919 194.188 30.9024L193.325 31.0375C191.115 29.8963 188.844 29.3257 186.512 29.3257C182.787 29.3257 179.592 31.3829 176.927 35.4972C176.988 35.7975 177.563 36.1429 178.653 36.5333C179.017 36.9237 181.576 37.7345 186.33 38.9658C192.599 39.9869 196.626 40.993 198.413 41.984C200.593 42.7948 202.865 44.4316 205.227 46.8941C206.377 48.6059 206.953 50.618 206.953 52.9305V53.3809C206.953 54.6723 206.226 56.6394 204.772 59.2821C202.017 62.3453 199.655 64.2523 197.686 65.0031C193.174 66.6549 189.343 67.4807 186.194 67.4807L186.058 67.6159H185.921L185.785 67.4807H185.603L184.013 67.6159H182.878L182.742 67.751L182.56 67.6159H180.834C173.717 67.6159 168.887 64.838 166.343 59.2821C166.131 59.2821 165.98 58.8467 165.889 57.9758L166.162 57.6604L167.343 58.3812H167.797V58.1109H168.07C168.494 58.1109 169.508 58.7866 171.113 60.138H171.567V59.2821L171.386 58.6965C171.628 57.9457 172.021 57.3601 172.567 56.9397C172.567 56.0387 172.945 55.378 173.702 54.9576L174.429 53.0656H174.747L174.883 53.7864H175.019L176.2 53.5161H176.609C177.488 53.8164 177.927 54.5372 177.927 55.6784C177.927 56.5192 178.169 57.1349 178.653 57.5253L178.517 59.2821C179.365 59.9128 181.636 60.4383 185.331 60.8588L185.467 60.6786L186.512 60.8588C189.813 60.8588 192.992 60.0329 196.051 58.3812C198.201 56.5793 199.276 54.9576 199.276 53.5161C199.276 51.6842 197.186 49.5219 193.007 47.0293L190.827 46.1734C190.827 45.6028 188.95 44.9721 185.194 44.2814C180.349 43.921 176.821 43.3054 174.611 42.4345C171.128 40.4524 169.387 38.2 169.387 35.6774L168.478 32.3439C168.478 26.4277 173.52 22.4936 183.605 20.5415L184.331 20.4064Z" fill="#671DF7"/>
<path d="M234.616 20.4514L236.478 21.3974C236.781 21.3974 237.129 21.8028 237.523 22.6137C237.523 24.0852 236.1 25.1213 233.253 25.722L224.85 27.3437C222.609 27.8242 221.488 28.2746 221.488 28.6951C221.822 32.1487 222.109 33.8755 222.351 33.8755V33.9656C225.168 33.2148 228.59 32.6292 232.617 32.2088C233.041 32.3289 233.526 32.6442 234.071 33.1547L234.389 33.2448L236.251 32.9295C238.553 33.1097 239.704 33.7704 239.704 34.9116L239.794 35.0017C239.794 36.0828 238.401 36.9087 235.615 37.4793C230.831 38.5604 227.166 39.7617 224.623 41.0831C223.593 41.5636 223.078 41.9389 223.078 42.2092L224.85 57.255C225.334 62.1201 225.849 66.1443 226.394 69.3277C226.394 69.5078 226.076 69.7781 225.44 70.1385L225.349 70.0484H224.305L224.214 70.1385C223.669 70.1385 223.048 69.8983 222.351 69.4177C222.139 69.4177 221.897 69.2075 221.625 68.7871L221.17 68.9222C219.565 68.3817 218.4 67.3756 217.673 65.9041C216.976 64.6427 216.446 62.8859 216.083 60.6335H216.219C216.007 60.6335 215.689 55.6633 215.265 45.7229L215.174 45.5878L215.265 45.3175L214.947 41.8038L214.629 41.7137C213.751 42.2543 212.858 42.5246 211.949 42.5246C210.435 41.6236 209.602 40.8278 209.451 40.1371C210.117 38.9358 210.844 38.185 211.631 37.8847C213.115 37.3141 213.948 36.9387 214.13 36.7585C213.675 33.9356 213.327 32.3889 213.085 32.1187C212.843 32.1187 212.04 32.419 210.677 33.0196L209.133 33.1547C208.83 33.1547 208.421 32.8094 207.907 32.1187C207.271 31.6382 206.953 31.0826 206.953 30.4519C206.953 29.3407 207.891 28.59 209.769 28.1996C210.163 27.8392 211.192 27.3587 212.858 26.758C212.858 25.9472 213.312 25.4216 214.221 25.1814H214.448L214.856 25.3165C215.129 25.2264 215.371 25.0462 215.583 24.776L215.265 23.1543C215.629 22.6437 216.295 22.2984 217.264 22.1182C218.718 22.2683 219.883 22.7188 220.762 23.4696C222.034 23.4696 224.502 22.8389 228.166 21.5776L234.616 20.4514ZM219.444 50.3628V51.489H219.535C219.656 51.489 219.762 51.3088 219.853 50.9484C219.762 50.558 219.656 50.3628 219.535 50.3628H219.444ZM219.444 51.8043V52.2097L219.535 52.8404L219.444 52.9305C219.444 55.5732 219.823 58.8767 220.58 62.8409H220.762L220.898 62.3003L220.762 61.4894L220.898 61.3993V61.2642L220.671 60.3633L220.762 59.4173C220.55 58.9668 220.444 58.4863 220.444 57.9758V57.4802L220.58 57.3451L220.035 54.7774L220.262 54.1467L219.944 53.8314L220.035 53.1107L219.944 53.0206H219.853L219.944 52.9305V52.8404L219.626 51.8043H219.444Z" fill="#671DF7"/>
<path d="M257.828 20.1812C261.25 20.8418 263.733 21.9981 265.277 23.6498C265.459 23.6498 265.565 24.3555 265.595 25.767L265.459 26.4427C267.306 26.4427 269.411 28.4098 271.773 32.3439C272.621 33.5752 273.166 34.8966 273.408 36.3081C274.408 38.1099 274.907 39.5965 274.907 40.7677L274.726 41.3984L275.725 45.5427L275.407 46.4887L275.589 48.3357V48.8312L275.089 53.1107L275.225 53.2458V53.426C274.347 57.24 272.242 60.8588 268.911 64.2824C266.004 66.3545 263.021 67.3906 259.963 67.3906L259.826 67.5708C257.495 67.5708 254.497 66.805 250.832 65.2734C245.745 62.1501 242.05 57.4802 239.749 51.2637L238.568 46.1734L238.75 45.9932L238.568 45.1824V43.876C238.568 42.5846 239.613 39.2361 241.702 33.8305H241.566C242.444 31.4279 243.277 29.8363 244.064 29.0555C245.276 25.9322 247.759 23.3645 251.514 21.3524C253.089 20.5716 255.193 20.1812 257.828 20.1812ZM248.516 43.5606C248.516 52.1797 250.954 57.8256 255.829 60.4984L256.828 60.6786C261.765 60.6786 264.975 56.0688 266.458 46.8491V46.1734C266.458 44.1913 264.959 40.7377 261.961 35.8125C261.719 35.8125 260.508 34.1158 258.327 30.7222H257.964C254.148 31.8934 251.726 33.1998 250.696 34.6413C249.243 37.6445 248.516 40.6176 248.516 43.5606Z" fill="#671DF7"/>
<path d="M295.757 20.4514L297.392 20.5866H299.164C302.677 21.5776 305.341 22.5086 307.158 23.3795C308.218 23.83 309.748 25.1514 311.746 27.3437C311.777 27.9143 311.928 28.4548 312.201 28.9654L312.064 29.6861V30.0014L312.201 30.5871C311.837 32.8094 310.399 35.4071 307.885 38.3802C306.613 40.2422 304.494 42.1942 301.526 44.2364C299.951 44.9271 299.164 45.4226 299.164 45.7229C299.164 46.0533 300.239 46.5488 302.389 47.2095C304.781 48.5008 308.097 49.5219 312.337 50.2727C320.877 52.6752 326.418 56.1138 328.962 60.5885L328.78 61.1741L328.962 62.03C328.599 63.6517 328.19 64.4926 327.736 64.5527L326.555 64.3725L326.146 64.8229H325.692C324.359 64.8229 321.982 63.7418 318.56 61.5795C315.865 60.108 312.564 58.4563 308.657 56.6243C307.022 55.4231 305.084 54.8225 302.843 54.8225V55.0026C301.632 54.4921 299.86 54.2368 297.529 54.2368V54.417L295.439 54.1017L294.985 54.417C295.015 57.4202 295.318 60.4984 295.893 63.6517L295.757 63.7869V63.967L296.938 68.3817C296.938 69.1925 295.696 69.8232 293.213 70.2736C292.547 70.2736 291.321 69.1024 289.534 66.76C289.019 67.3306 288.474 67.6159 287.899 67.6159L287.717 67.7961L287.126 67.9312C286.006 67.4807 285.219 66.7449 284.764 65.7239C283.402 62.1201 282.115 57.3601 280.903 51.4439C279.843 50.9934 279.101 50.558 278.677 50.1375C278.193 49.9874 277.754 49.1465 277.36 47.6149C277.36 46.6539 278.057 45.8731 279.45 45.2724C278.935 42.8399 278.541 40.1971 278.269 37.3441C278.45 33.41 278.844 31.443 279.45 31.443L280.04 31.8934C280.222 31.8934 280.373 31.6081 280.494 31.0375L280.04 30.2717V30.0014C280.04 28.4398 281.418 26.5779 284.174 24.4156C286.718 22.914 288.792 21.983 290.397 21.6227C290.397 21.3223 292.184 20.9319 295.757 20.4514ZM291.76 31.3078C292.638 33.44 293.319 36.7285 293.804 41.1731L293.94 41.3083H294.122C295.272 41.3083 297.241 39.3562 300.027 35.4522C301.814 33.7704 303.101 32.2388 303.888 30.8573L304.024 29.6861C304.024 29.3257 302.601 29.0855 299.754 28.9654V29.1005L299.573 28.9654H298.982C296.711 28.9654 294.394 29.596 292.032 30.8573L291.76 31.3078ZM286.99 55.8585V56.4442C287.293 56.7445 287.444 57.24 287.444 57.9307H287.581L287.444 58.0659V58.201C287.717 59.6725 287.959 60.4083 288.171 60.4083H288.307L288.035 56.8946L288.171 56.309L287.899 55.4081V55.0026C287.293 55.0026 286.99 55.2879 286.99 55.8585ZM288.171 60.5885L288.035 60.7236V60.8588L288.489 61.3093V60.8588L288.171 60.5885Z" fill="#671DF7"/>
<path d="M354.581 20.3613C356.065 20.3613 357.171 21.4575 357.897 23.6498C358.927 24.8811 360.078 27.659 361.35 31.9835L364.075 41.984C364.075 43.0952 365.574 47.2395 368.572 54.417C373.145 63.7268 375.431 68.742 375.431 69.4628L375.34 69.5979H375.204L375.34 70.7692C375.34 71.1896 374.977 71.58 374.25 71.9404H374.159C373.039 71.2196 372.478 70.6641 372.478 70.2736H372.024C371.388 71.7752 370.434 72.526 369.163 72.526C367.315 71.9254 366.089 71.0695 365.483 69.9583C363.939 66.6248 362.515 61.7597 361.213 55.363C359.093 48.0654 357.276 42.2693 355.762 37.9748C355.611 37.9448 355.49 37.6745 355.399 37.1639H355.308C354.945 37.5544 354.188 40.6026 353.037 46.3085V46.4437H353.173L352.583 49.7321L352.674 50.7682H352.583L352.674 50.9034V51.3538C352.674 52.525 352.371 53.3509 351.765 53.8314C351.765 54.0416 352.189 54.9125 353.037 56.4442L353.173 56.8946V57.7055C353.173 58.3361 352.704 58.6515 351.765 58.6515C349.797 58.6515 346.829 55.6784 342.862 49.7321C342.014 48.8011 341.454 48.0504 341.181 47.4798H340.863V47.6149L340.727 55.2279L340.591 56.0838L340.727 56.1739L340.591 56.7595V59.5975L340.5 59.7326L340.591 59.8227V62.8859L340.727 64.0571C340.545 66.1894 339.985 67.2555 339.046 67.2555H338.229C336.412 66.5347 335.503 65.9791 335.503 65.5887C335.503 65.0482 335.155 64.2674 334.458 63.2463C333.732 60.6335 332.823 54.0567 331.733 43.5156L331.824 43.3805V43.2453C331.127 36.9087 330.461 33.7404 329.825 33.7404C328.402 32.7794 327.69 31.9235 327.69 31.1727C327.69 30.4219 328.008 29.8363 328.644 29.4158L328.735 29.5059H328.871L331.46 29.0555C333.096 29.3558 334.171 29.8213 334.686 30.4519L335.867 30.3168C337.774 30.3168 339.273 31.3829 340.364 33.5151C343.362 36.6384 345.618 39.5665 347.132 42.2993H347.495L349.721 35.4071C350.357 33.1547 351.387 28.65 352.81 21.8929C352.81 21.2923 353.4 20.7818 354.581 20.3613Z" fill="#671DF7"/>
<path d="M400.505 20.3613L400.687 20.4965H401.823L401.959 20.3613L402.368 20.4965L403.094 20.3613C405.244 20.5716 406.562 20.992 407.046 21.6227H407.364V21.4875L408.5 21.7578V21.8929L408.318 22.0731C407.47 22.3734 407.046 22.6437 407.046 22.884L408.046 23.0191V23.3345C408.046 23.815 406.865 24.2804 404.503 24.7309C403.685 25.1213 401.974 25.5418 399.37 25.9922C394.252 27.2836 391.693 28.0794 391.693 28.3797L391.875 28.5149H392.011C403.246 26.4727 410.68 25.4517 414.314 25.4517H415.041C417.403 25.9622 418.584 26.8481 418.584 28.1095L418.72 28.8302V28.9654C418.72 29.3858 418.387 29.8513 417.721 30.3618C417.721 30.8423 414.92 31.3078 409.318 31.7583C405.078 32.419 399.915 33.365 393.828 34.5963C393.828 34.7764 393.313 34.8665 392.283 34.8665L391.012 35.317C390.709 37.7195 390.557 40.107 390.557 42.4795V42.93L391.012 43.3354L403.639 40.4974L403.776 40.6776L408.5 40.092L409.908 40.2272H410.317C410.529 40.4073 410.907 40.4974 411.452 40.4974C413.057 41.8188 414.011 42.4795 414.314 42.4795L414.723 43.2003C414.905 43.861 415.056 44.1913 415.177 44.1913C414.753 45.3625 413.799 46.2485 412.315 46.8491C407.077 48.3507 401.671 49.5219 396.099 50.3628C392.041 51.3238 390.012 52.2698 390.012 53.2008V53.9215C390.012 55.7234 389.921 57.0748 389.74 57.9758L390.012 58.5614L389.876 58.6965V59.2821L390.148 59.5524H390.421C393.056 59.0719 396.144 58.3662 399.688 57.4352L399.824 57.5703H399.96C400.808 57.4802 401.52 57.3 402.095 57.0298C403.791 57.0298 405.169 56.8796 406.229 56.5793L407.046 57.0298H407.364C407.697 56.7295 408.015 56.5793 408.318 56.5793H408.636C408.818 56.5793 408.909 56.7295 408.909 57.0298C410.635 56.7295 412.815 56.1589 415.45 55.318L417.176 55.1828C419.538 55.5432 420.719 56.294 420.719 57.4352L420.992 58.5614C420.295 59.9729 419.493 60.6786 418.584 60.6786C417.706 61.0089 415.707 61.3843 412.588 61.8048C403.655 63.5766 398.537 64.7479 397.235 65.3185C396.75 65.3185 394.812 66.1143 391.42 67.706C389.755 68.5769 388.619 69.0123 388.014 69.0123L385.606 68.1564L382.608 69.4177C379.852 68.9072 378.474 68.0663 378.474 66.8951C378.323 66.8951 378.187 66.5197 378.066 65.7689L378.202 64.913L378.066 64.3274L379.338 62.2102C379.731 55.5732 380.11 51.3088 380.473 49.4168L380.337 48.8312L381.336 37.254C381.336 36.9838 380.428 36.293 378.611 35.1819C378.066 34.4311 377.793 33.7704 377.793 33.1998C377.854 32.7193 378.187 32.1487 378.792 31.488C378.792 31.3378 378.081 31.1126 376.658 30.8123C375.416 29.9414 374.795 29.1756 374.795 28.5149V27.9743C374.795 26.2926 375.507 25.3015 376.93 25.0012L377.339 24.8661L377.475 25.0012H377.657C380.746 24.5507 385.909 23.4245 393.146 21.6227L400.505 20.3613ZM391.012 28.3797L390.875 28.5149V28.8302H391.012L391.284 28.5149L391.148 28.3797H391.012Z" fill="#671DF7"/>
<path d="M461.51 20.4064L462.055 20.5415H462.373V20.4064C466.31 20.4064 469.838 22.4185 472.957 26.4427C473.108 27.3437 473.35 27.9743 473.684 28.3347C473.684 29.536 472.911 30.3919 471.367 30.9024L470.504 31.0375C468.293 29.8963 466.022 29.3257 463.69 29.3257C459.966 29.3257 456.771 31.3829 454.106 35.4972C454.166 35.7975 454.742 36.1429 455.832 36.5333C456.195 36.9237 458.754 37.7345 463.509 38.9658C469.777 39.9869 473.805 40.993 475.591 41.984C477.772 42.7948 480.043 44.4316 482.405 46.8941C483.556 48.6059 484.131 50.618 484.131 52.9305V53.3809C484.131 54.6723 483.404 56.6394 481.951 59.2821C479.195 62.3453 476.833 64.2523 474.865 65.0031C470.353 66.6549 466.522 67.4807 463.372 67.4807L463.236 67.6159H463.1L462.963 67.4807H462.782L461.192 67.6159H460.056L459.92 67.751L459.738 67.6159H458.012C450.896 67.6159 446.066 64.838 443.522 59.2821C443.31 59.2821 443.159 58.8467 443.068 57.9758L443.34 57.6604L444.521 58.3812H444.976V58.1109H445.248C445.672 58.1109 446.686 58.7866 448.291 60.138H448.746V59.2821L448.564 58.6965C448.806 57.9457 449.2 57.3601 449.745 56.9397C449.745 56.0387 450.124 55.378 450.881 54.9576L451.607 53.0656H451.925L452.062 53.7864H452.198L453.379 53.5161H453.788C454.666 53.8164 455.105 54.5372 455.105 55.6784C455.105 56.5192 455.347 57.1349 455.832 57.5253L455.696 59.2821C456.544 59.9128 458.815 60.4383 462.509 60.8588L462.646 60.6786L463.69 60.8588C466.991 60.8588 470.171 60.0329 473.229 58.3812C475.379 56.5793 476.454 54.9576 476.454 53.5161C476.454 51.6842 474.365 49.5219 470.186 47.0293L468.006 46.1734C468.006 45.6028 466.128 44.9721 462.373 44.2814C457.528 43.921 454 43.3054 451.789 42.4345C448.307 40.4524 446.565 38.2 446.565 35.6774L445.657 32.3439C445.657 26.4277 450.699 22.4936 460.783 20.5415L461.51 20.4064Z" fill="#671DF7"/>
<path d="M513.702 20.4064C514.49 20.4064 515.504 21.0671 516.746 22.3885C516.746 22.7789 517.715 23.7849 519.653 25.4066C520.561 27.3887 521.016 30.0465 521.016 33.38L521.606 40.8128L521.47 41.7137L521.606 41.8489L521.47 42.4795L521.788 45.0472L521.606 45.1824C522.454 53.441 523.423 58.4262 524.513 60.138L526.33 65.4086L525.74 66.4897V66.6248L528.919 73.4269L529.101 74.463C528.798 75.1838 528.344 75.5442 527.738 75.5442H526.966C525.513 75.5442 523.484 73.5771 520.879 69.643C518.972 66.5798 517.291 62.8108 515.837 58.3361L515.701 57.5703H515.519C513.581 60.4534 511.961 62.5105 510.659 63.7418C508.176 65.3635 506.404 66.1744 505.344 66.1744C503.013 65.7839 501.741 65.4836 501.529 65.2734C500.529 65.5437 499.212 65.7389 497.577 65.859C495.063 65.3785 492.868 64.3725 490.99 62.8409C488.325 60.0179 486.902 57.3601 486.72 54.8675C486.145 51.6541 485.797 48.7711 485.676 46.2184L485.812 45.3175V43.6507L485.676 43.5156L485.812 43.3805V41.5335L485.676 40.9479L485.812 40.3623L485.676 39.7316C486.009 33.1848 486.569 28.0944 487.356 24.4606C487.78 22.3584 488.689 21.3073 490.082 21.3073C491.172 21.8179 491.99 22.3284 492.535 22.8389H493.443C495.109 22.9591 496.487 23.4095 497.577 24.1904C498.485 25.2415 498.939 26.5478 498.939 28.1095L498.758 28.5599L498.939 29.0104L498.758 30.0915L498.939 30.9925L498.758 31.7132L498.939 32.3439L498.758 33.2448L498.939 33.8305L498.621 36.7135L498.758 37.3441L498.621 38.2451L498.939 43.3805L498.758 43.5156V43.6507C499.182 49.5069 499.893 53.6963 500.893 56.2189C501.408 57.3601 501.877 58.0058 502.301 58.1559C503.997 57.5553 506.071 55.8435 508.524 53.0206C510.341 50.7682 511.249 48.7561 511.249 46.9842L512.476 42.6147L511.704 37.0288V35.8125C511.098 32.1487 510.795 28.4698 510.795 24.776C510.795 22.7038 511.719 21.2473 513.566 20.4064H513.702ZM491.444 46.9842L491.626 47.75L491.444 48.651C491.596 49.0414 491.747 49.2366 491.899 49.2366L491.762 50.0024V50.1826L491.899 50.9034L491.762 51.8043C492.701 57.1499 493.928 59.8227 495.442 59.8227L495.578 59.6876V59.5074C494.185 57.0148 493.125 54.2068 492.398 51.0835L492.217 50.9034V48.9663L491.899 46.9842H491.444Z" fill="#671DF7"/>
<path d="M544.545 20.4514C546.393 20.5716 547.316 21.0521 547.316 21.8929C549.315 26.3676 551.162 31.9084 552.858 38.5154C553.07 40.107 553.297 40.9029 553.539 40.9029L554.448 40.8128C554.811 40.8128 554.993 40.8879 554.993 41.038L555.084 40.9029H555.22C556.159 40.9029 556.749 41.5636 556.992 42.8849C556.992 43.8159 556.098 44.7018 554.312 45.5427H554.221C555.371 53.5611 556.659 59.6425 558.082 63.7869L558.218 64.3274C557.855 65.4386 557.143 65.9942 556.083 65.9942C556.083 66.0843 555.826 66.1593 555.311 66.2194C555.311 66.79 555.023 67.0753 554.448 67.0753L553.221 66.9852L553.085 67.0753H552.994C552.722 67.0753 552.056 65.9791 550.996 63.7869C549.875 61.1741 549.057 58.201 548.543 54.8675L548.679 54.1017C548.437 53.7113 548.134 52.465 547.77 50.3628L547.68 50.2727H547.543L543.319 52.1196C541.048 52.8704 539.912 53.5011 539.912 54.0116C538.973 57.6754 538.262 59.5074 537.777 59.5074C536.748 59.8077 536.233 60.7537 536.233 62.3453L534.915 69.5078C534.461 69.9583 534.128 70.1836 533.916 70.1836L533.78 70.0484H533.689L532.917 70.2736L532.781 69.9583H532.372L532.235 70.0484H532.145L531.69 68.8772C531.69 66.1743 532.432 61.6546 533.916 55.318L533.78 55.2279H533.689L530.691 55.6784H529.919C528.647 55.1378 528.011 54.5372 528.011 53.8765L527.92 53.5611C528.435 52.48 529.071 51.9394 529.828 51.9394C529.919 51.6692 530.767 51.4439 532.372 51.2637L532.463 51.1286V51.0385L532.235 50.3628V50.2727C532.235 49.1615 533.416 48.0954 535.779 47.0743C536.202 46.6839 536.505 45.9482 536.687 44.867C536.869 44.6868 537.202 43.0802 537.686 40.047C538.807 36.7435 539.806 31.1276 540.684 23.1993C541.381 22.1782 542.047 21.6677 542.683 21.6677C542.865 21.3374 543.485 20.9319 544.545 20.4514ZM544.455 34.1908C543.849 35.7525 543.183 39.0259 542.456 44.0111H542.683C544.621 43.5006 545.878 43.0501 546.453 42.6597C545.424 37.194 544.788 34.371 544.545 34.1908H544.455Z" fill="#671DF7"/>
<path d="M617.587 0C618.587 0.150157 619.647 0.945991 620.767 2.3875L623.402 2.11722C624.825 2.3875 625.9 2.97312 626.627 3.87406V4.0092L626.536 4.50472L626.763 5.58585C626.309 6.84718 624.855 7.47784 622.402 7.47784C620.888 7.50787 614.272 9.33979 602.552 12.9736L603.188 16.5774L603.052 17.2981L603.188 19.6856H603.279L603.188 19.8208V21.1722L603.279 22.2984L603.188 23.0191L603.279 29.3708L603.188 31.488L603.551 31.6231C605.247 30.9625 609.305 29.8062 615.725 28.1545C616.846 28.1545 617.845 28.9804 618.723 30.6321V30.9024H619.223L619.359 30.497C621.206 30.497 622.554 31.0375 623.402 32.1187C623.886 32.1187 624.129 32.4941 624.129 33.2448C623.917 35.0768 623.084 35.9927 621.63 35.9927C618.39 36.4132 614.741 37.1189 610.683 38.1099L604.551 40.2272C603.642 40.6176 603.188 40.9479 603.188 41.2182L603.052 44.3265H603.188L603.052 44.4616L603.188 45.9482L603.052 47.705H603.188L603.052 47.7951V53.426L602.915 53.5611L603.052 53.6512V56.1739L603.188 58.2911H603.279L614.09 54.7774L621.857 52.525L622.266 52.2998C623.659 52.6602 624.659 53.411 625.264 54.5522C625.537 54.9125 625.703 55.6483 625.764 56.7595L626.036 57.0298C626.339 56.8496 626.96 56.7295 627.899 56.6694C629.201 56.6694 630.291 57.285 631.169 58.5163C631.169 60.4383 630.549 61.3993 629.307 61.3993C629.307 61.5495 628.883 61.6246 628.035 61.6246L627.672 61.4894L608.321 66.76C602.961 67.8111 599.115 68.8772 596.783 69.9583C595.814 69.8382 594.633 69.4778 593.24 68.8772L587.835 70.9944C586.684 70.7842 586.018 70.5289 585.836 70.2286C584.897 69.5979 584.231 68.2315 583.837 66.1293V65.6338C584.382 64.2223 585.427 63.5166 586.972 63.5166L592.877 61.8949L593.24 60.0029L593.149 59.3722L593.376 54.9126L593.149 53.5611L593.24 53.426V53.0656L593.149 51.8043L593.513 50.1826L593.24 48.696L593.376 47.705L593.149 45.813L593.24 45.4526L593.149 44.5967L593.24 44.1913L593.149 44.1012V43.9661L593.24 43.5606C593.18 43.2904 592.937 43.0501 592.513 42.8399H592.241C590.636 43.6808 589.424 44.1012 588.607 44.1012C586.427 43.2303 585.336 41.7287 585.336 39.5965C585.609 38.0949 586.366 37.3441 587.607 37.3441C591.272 36.1128 593.119 35.3771 593.149 35.1368C593.392 34.9266 593.513 34.6263 593.513 34.2359V33.6052L593.376 33.5151L593.513 33.38V33.2448L593.376 30.9925L593.513 30.2717L593.376 30.1366V30.0014L593.649 29.1455L593.376 25.4066L593.513 24.4156V24.0552L593.376 23.2894L593.649 21.938C593.376 17.9438 593.119 15.9467 592.877 15.9467L589.107 16.9377C588.198 16.6074 587.411 15.5263 586.744 13.6944L586.608 12.8385V12.5682C586.608 10.8263 587.441 9.95543 589.107 9.95543C589.107 9.83531 589.742 9.59506 591.014 9.23468C591.014 9.05449 591.302 8.96439 591.877 8.96439C592.301 8.60402 592.513 8.1085 592.513 7.47784L594.012 6.84718L594.648 6.98232L595.284 6.84718L596.511 6.98232C600.538 5.81109 603.597 4.82005 605.686 4.0092C608.836 2.65779 612.303 1.53161 616.089 0.630661L617.587 0Z" fill="#671DF7"/>
<path d="M660.831 20.3613C662.315 20.3613 663.421 21.4575 664.147 23.6498C665.177 24.8811 666.328 27.659 667.6 31.9835L670.325 41.984C670.325 43.0952 671.824 47.2395 674.822 54.417C679.395 63.7268 681.681 68.742 681.681 69.4628L681.59 69.5979H681.454L681.59 70.7692C681.59 71.1896 681.227 71.58 680.5 71.9404H680.409C679.289 71.2196 678.728 70.6641 678.728 70.2736H678.274C677.638 71.7752 676.684 72.526 675.413 72.526C673.565 71.9254 672.339 71.0695 671.733 69.9583C670.189 66.6248 668.765 61.7597 667.463 55.363C665.343 48.0654 663.526 42.2693 662.012 37.9748C661.861 37.9448 661.74 37.6745 661.649 37.1639H661.558C661.195 37.5544 660.438 40.6026 659.287 46.3085V46.4437H659.423L658.833 49.7321L658.924 50.7682H658.833L658.924 50.9034V51.3538C658.924 52.525 658.621 53.3509 658.015 53.8314C658.015 54.0416 658.439 54.9125 659.287 56.4442L659.423 56.8946V57.7055C659.423 58.3361 658.954 58.6515 658.015 58.6515C656.047 58.6515 653.079 55.6784 649.112 49.7321C648.264 48.8011 647.704 48.0504 647.431 47.4798H647.113V47.6149L646.977 55.2279L646.841 56.0838L646.977 56.1739L646.841 56.7595V59.5975L646.75 59.7326L646.841 59.8227V62.8859L646.977 64.0571C646.795 66.1894 646.235 67.2555 645.296 67.2555H644.479C642.662 66.5347 641.753 65.9791 641.753 65.5887C641.753 65.0482 641.405 64.2674 640.708 63.2463C639.982 60.6335 639.073 54.0567 637.983 43.5156L638.074 43.3805V43.2453C637.377 36.9087 636.711 33.7404 636.075 33.7404C634.652 32.7794 633.94 31.9235 633.94 31.1727C633.94 30.4219 634.258 29.8363 634.894 29.4158L634.985 29.5059H635.121L637.71 29.0555C639.346 29.3558 640.421 29.8213 640.936 30.4519L642.117 30.3168C644.024 30.3168 645.523 31.3829 646.614 33.5151C649.612 36.6384 651.868 39.5665 653.382 42.2993H653.745L655.971 35.4071C656.607 33.1547 657.636 28.65 659.06 21.8929C659.06 21.2923 659.65 20.7818 660.831 20.3613Z" fill="#671DF7"/>
<path d="M686.814 20.3163C687.42 20.3163 688.131 20.5716 688.949 21.0821H689.221L690.72 20.7217L693.9 21.1722L694.536 21.0821L695.308 21.1722L695.581 21.0821C700.971 21.5025 704.408 22.1332 705.892 22.9741C706.952 23.1843 708.057 23.9951 709.208 25.4066C709.662 26.0373 709.889 26.8031 709.889 27.704C710.647 28.4548 711.025 29.0855 711.025 29.596C710.601 31.518 708.724 33.5301 705.393 35.6323L695.99 39.6866C695.99 40.6476 696.338 43.9811 697.034 49.6871C697.277 51.3388 697.595 55.4081 697.988 61.8949L697.898 62.931C698.049 63.3814 698.261 65.0782 698.533 68.0213C698.685 68.0213 698.76 68.3967 698.76 69.1475C698.76 69.4778 698.337 70.0184 697.489 70.7692L697.034 70.6791C696.398 70.8593 695.944 71.0695 695.672 71.3097C694.218 71.3097 693.279 70.589 692.855 69.1475C691.947 66.0242 691.084 61.4894 690.266 55.5432C689.509 51.6992 688.616 46.6689 687.586 40.4524H687.404V40.3623L683.907 42.029C682.817 42.029 682.014 41.6837 681.499 40.993H681.409V40.5425C681.409 39.9118 682.68 38.9358 685.224 37.6144L686.95 36.5783V35.9927C686.95 35.302 686.844 34.9566 686.632 34.9566L686.723 34.2809V33.9205L686.269 30.9024L686.36 30.8123L686.178 28.3347H686.087L686.178 28.2446C686.087 26.6229 685.921 25.812 685.678 25.812H685.497L685.406 25.9021C683.437 25.5117 682.453 24.6859 682.453 23.4245C682.453 22.7939 682.832 22.2383 683.589 21.7578L683.68 21.8479H683.771C684.437 21.7878 684.861 21.6827 685.042 21.5326L685.406 21.6677C685.648 21.6677 685.769 21.4425 685.769 20.992C686.042 20.5415 686.39 20.3163 686.814 20.3163ZM694.763 25.722L694.627 25.9922C694.627 27.3737 694.824 29.611 695.217 32.7043H695.49L699.987 30.542C700.956 29.9414 702.001 29.2056 703.121 28.3347V28.2446C701.516 27.3437 699.351 26.5929 696.626 25.9922L694.763 25.722ZM689.994 32.2088V32.5241H690.175V32.2088H689.994ZM690.085 32.7944V33.38H690.266V32.7944H690.085ZM690.175 33.5602V33.7404L690.266 34.2809L690.175 34.6864L690.266 34.7764H690.448L690.539 34.4161H690.448L690.539 34.2809V34.1007C690.539 33.7704 690.448 33.5902 690.266 33.5602H690.175Z" fill="#671DF7"/>
<path d="M730.557 20.4514L732.193 20.5866H733.964C737.477 21.5776 740.142 22.5086 741.959 23.3795C743.019 23.83 744.548 25.1514 746.547 27.3437C746.577 27.9143 746.729 28.4548 747.001 28.9654L746.865 29.6861V30.0014L747.001 30.5871C746.638 32.8094 745.199 35.4071 742.686 38.3802C741.414 40.2422 739.294 42.1942 736.326 44.2364C734.752 44.9271 733.964 45.4226 733.964 45.7229C733.964 46.0533 735.039 46.5488 737.189 47.2095C739.582 48.5008 742.898 49.5219 747.137 50.2727C755.677 52.6752 761.219 56.1138 763.763 60.5885L763.581 61.1741L763.763 62.03C763.399 63.6517 762.99 64.4926 762.536 64.5527L761.355 64.3725L760.946 64.8229H760.492C759.16 64.8229 756.782 63.7418 753.36 61.5795C750.665 60.108 747.364 58.4563 743.458 56.6243C741.823 55.4231 739.885 54.8225 737.644 54.8225V55.0026C736.432 54.4921 734.661 54.2368 732.329 54.2368V54.417L730.24 54.1017L729.785 54.417C729.816 57.4202 730.118 60.4984 730.694 63.6517L730.557 63.7869V63.967L731.739 68.3817C731.739 69.1925 730.497 69.8232 728.014 70.2736C727.348 70.2736 726.121 69.1024 724.334 66.76C723.82 67.3306 723.274 67.6159 722.699 67.6159L722.517 67.7961L721.927 67.9312C720.806 67.4807 720.019 66.7449 719.565 65.7239C718.202 62.1201 716.915 57.3601 715.704 51.4439C714.644 50.9934 713.902 50.558 713.478 50.1375C712.993 49.9874 712.554 49.1465 712.161 47.6149C712.161 46.6539 712.857 45.8731 714.25 45.2724C713.735 42.8399 713.342 40.1971 713.069 37.3441C713.251 33.41 713.645 31.443 714.25 31.443L714.841 31.8934C715.022 31.8934 715.174 31.6081 715.295 31.0375L714.841 30.2717V30.0014C714.841 28.4398 716.219 26.5779 718.974 24.4156C721.518 22.914 723.592 21.983 725.197 21.6227C725.197 21.3223 726.984 20.9319 730.557 20.4514ZM726.56 31.3078C727.438 33.44 728.12 36.7285 728.604 41.1731L728.74 41.3083H728.922C730.073 41.3083 732.041 39.3562 734.827 35.4522C736.614 33.7704 737.901 32.2388 738.688 30.8573L738.825 29.6861C738.825 29.3257 737.401 29.0855 734.555 28.9654V29.1005L734.373 28.9654H733.783C731.511 28.9654 729.195 29.596 726.833 30.8573L726.56 31.3078ZM721.791 55.8585V56.4442C722.093 56.7445 722.245 57.24 722.245 57.9307H722.381L722.245 58.0659V58.201C722.517 59.6725 722.76 60.4083 722.972 60.4083H723.108L722.835 56.8946L722.972 56.309L722.699 55.4081V55.0026C722.093 55.0026 721.791 55.2879 721.791 55.8585ZM722.972 60.5885L722.835 60.7236V60.8588L723.29 61.3093V60.8588L722.972 60.5885Z" fill="#671DF7"/>
<path d="M787.792 20.3613L787.974 20.4965H789.109L789.246 20.3613L789.654 20.4965L790.381 20.3613C792.531 20.5716 793.849 20.992 794.333 21.6227H794.651V21.4875L795.787 21.7578V21.8929L795.605 22.0731C794.757 22.3734 794.333 22.6437 794.333 22.884L795.332 23.0191V23.3345C795.332 23.815 794.151 24.2804 791.789 24.7309C790.972 25.1213 789.261 25.5418 786.656 25.9922C781.539 27.2836 778.98 28.0794 778.98 28.3797L779.161 28.5149H779.298C790.533 26.4727 797.967 25.4517 801.601 25.4517H802.328C804.69 25.9622 805.871 26.8481 805.871 28.1095L806.007 28.8302V28.9654C806.007 29.3858 805.674 29.8513 805.008 30.3618C805.008 30.8423 802.207 31.3078 796.604 31.7583C792.365 32.419 787.201 33.365 781.115 34.5963C781.115 34.7764 780.6 34.8665 779.57 34.8665L778.298 35.317C777.995 37.7195 777.844 40.107 777.844 42.4795V42.93L778.298 43.3354L790.926 40.4974L791.062 40.6776L795.787 40.092L797.195 40.2272H797.604C797.816 40.4073 798.194 40.4974 798.739 40.4974C800.344 41.8188 801.298 42.4795 801.601 42.4795L802.01 43.2003C802.191 43.861 802.343 44.1913 802.464 44.1913C802.04 45.3625 801.086 46.2485 799.602 46.8491C794.363 48.3507 788.958 49.5219 783.386 50.3628C779.328 51.3238 777.299 52.2698 777.299 53.2008V53.9215C777.299 55.7234 777.208 57.0748 777.026 57.9758L777.299 58.5614L777.163 58.6965V59.2821L777.435 59.5524H777.708C780.342 59.0719 783.431 58.3662 786.974 57.4352L787.111 57.5703H787.247C788.095 57.4802 788.806 57.3 789.382 57.0298C791.078 57.0298 792.456 56.8796 793.515 56.5793L794.333 57.0298H794.651C794.984 56.7295 795.302 56.5793 795.605 56.5793H795.923C796.105 56.5793 796.195 56.7295 796.195 57.0298C797.922 56.7295 800.102 56.1589 802.737 55.318L804.463 55.1828C806.825 55.5432 808.006 56.294 808.006 57.4352L808.278 58.5614C807.582 59.9729 806.779 60.6786 805.871 60.6786C804.993 61.0089 802.994 61.3843 799.875 61.8048C790.941 63.5766 785.824 64.7479 784.521 65.3185C784.037 65.3185 782.099 66.1143 778.707 67.706C777.042 68.5769 775.906 69.0123 775.3 69.0123L772.893 68.1564L769.895 69.4177C767.139 68.9072 765.761 68.0663 765.761 66.8951C765.61 66.8951 765.474 66.5197 765.352 65.7689L765.489 64.913L765.352 64.3274L766.624 62.2102C767.018 55.5732 767.397 51.3088 767.76 49.4168L767.624 48.8312L768.623 37.254C768.623 36.9838 767.714 36.293 765.898 35.1819C765.352 34.4311 765.08 33.7704 765.08 33.1998C765.14 32.7193 765.474 32.1487 766.079 31.488C766.079 31.3378 765.368 31.1126 763.944 30.8123C762.703 29.9414 762.082 29.1756 762.082 28.5149V27.9743C762.082 26.2926 762.794 25.3015 764.217 25.0012L764.626 24.8661L764.762 25.0012H764.944C768.032 24.5507 773.196 23.4245 780.433 21.6227L787.792 20.3613ZM778.298 28.3797L778.162 28.5149V28.8302H778.298L778.571 28.5149L778.435 28.3797H778.298Z" fill="#671DF7"/>
<path d="M825.721 20.4064L826.266 20.5415H826.584V20.4064C830.521 20.4064 834.049 22.4185 837.168 26.4427C837.32 27.3437 837.562 27.9743 837.895 28.3347C837.895 29.536 837.123 30.3919 835.578 30.9024L834.715 31.0375C832.505 29.8963 830.233 29.3257 827.902 29.3257C824.177 29.3257 820.982 31.3829 818.317 35.4972C818.378 35.7975 818.953 36.1429 820.043 36.5333C820.407 36.9237 822.965 37.7345 827.72 38.9658C833.988 39.9869 838.016 40.993 839.803 41.984C841.983 42.7948 844.254 44.4316 846.616 46.8941C847.767 48.6059 848.342 50.618 848.342 52.9305V53.3809C848.342 54.6723 847.616 56.6394 846.162 59.2821C843.406 62.3453 841.044 64.2523 839.076 65.0031C834.564 66.6549 830.733 67.4807 827.584 67.4807L827.447 67.6159H827.311L827.175 67.4807H826.993L825.403 67.6159H824.268L824.131 67.751L823.95 67.6159H822.224C815.107 67.6159 810.277 64.838 807.733 59.2821C807.521 59.2821 807.37 58.8467 807.279 57.9758L807.552 57.6604L808.733 58.3812H809.187V58.1109H809.459C809.883 58.1109 810.898 58.7866 812.503 60.138H812.957V59.2821L812.775 58.6965C813.018 57.9457 813.411 57.3601 813.956 56.9397C813.956 56.0387 814.335 55.378 815.092 54.9576L815.819 53.0656H816.137L816.273 53.7864H816.409L817.59 53.5161H817.999C818.877 53.8164 819.316 54.5372 819.316 55.6784C819.316 56.5192 819.559 57.1349 820.043 57.5253L819.907 59.2821C820.755 59.9128 823.026 60.4383 826.721 60.8588L826.857 60.6786L827.902 60.8588C831.202 60.8588 834.382 60.0329 837.441 58.3812C839.591 56.5793 840.666 54.9576 840.666 53.5161C840.666 51.6842 838.576 49.5219 834.397 47.0293L832.217 46.1734C832.217 45.6028 830.339 44.9721 826.584 44.2814C821.739 43.921 818.211 43.3054 816 42.4345C812.518 40.4524 810.777 38.2 810.777 35.6774L809.868 32.3439C809.868 26.4277 814.91 22.4936 824.994 20.5415L825.721 20.4064Z" fill="#671DF7"/>
<path d="M865.967 20.4514C867.814 20.5716 868.738 21.0521 868.738 21.8929C870.737 26.3676 872.584 31.9084 874.28 38.5154C874.492 40.107 874.719 40.9029 874.961 40.9029L875.87 40.8128C876.233 40.8128 876.415 40.8879 876.415 41.038L876.505 40.9029H876.642C877.581 40.9029 878.171 41.5636 878.413 42.8849C878.413 43.8159 877.52 44.7018 875.733 45.5427H875.642C876.793 53.5611 878.08 59.6425 879.503 63.7869L879.64 64.3274C879.276 65.4386 878.565 65.9942 877.505 65.9942C877.505 66.0843 877.247 66.1593 876.733 66.2194C876.733 66.79 876.445 67.0753 875.87 67.0753L874.643 66.9852L874.507 67.0753H874.416C874.143 67.0753 873.477 65.9791 872.417 63.7869C871.297 61.1741 870.479 58.201 869.964 54.8675L870.101 54.1017C869.858 53.7113 869.556 52.465 869.192 50.3628L869.101 50.2727H868.965L864.741 52.1196C862.469 52.8704 861.334 53.5011 861.334 54.0116C860.395 57.6754 859.683 59.5074 859.199 59.5074C858.169 59.8077 857.654 60.7537 857.654 62.3453L856.337 69.5078C855.883 69.9583 855.55 70.1836 855.338 70.1836L855.201 70.0484H855.111L854.338 70.2736L854.202 69.9583H853.793L853.657 70.0484H853.566L853.112 68.8772C853.112 66.1743 853.854 61.6546 855.338 55.318L855.201 55.2279H855.111L852.113 55.6784H851.34C850.069 55.1378 849.433 54.5372 849.433 53.8765L849.342 53.5611C849.857 52.48 850.492 51.9394 851.25 51.9394C851.34 51.6692 852.188 51.4439 853.793 51.2637L853.884 51.1286V51.0385L853.657 50.3628V50.2727C853.657 49.1615 854.838 48.0954 857.2 47.0743C857.624 46.6839 857.927 45.9482 858.109 44.867C858.29 44.6868 858.623 43.0802 859.108 40.047C860.228 36.7435 861.228 31.1276 862.106 23.1993C862.802 22.1782 863.469 21.6677 864.105 21.6677C864.286 21.3374 864.907 20.9319 865.967 20.4514ZM865.876 34.1908C865.271 35.7525 864.604 39.0259 863.878 44.0111H864.105C866.043 43.5006 867.299 43.0501 867.875 42.6597C866.845 37.194 866.209 34.371 865.967 34.1908H865.876Z" fill="#671DF7"/>
<path d="M886.883 66.3996V53.0224H900V66.3996H886.883ZM886.883 28.2053V14.7358H900V28.2053H886.883Z" fill="#671DF7"/>
</svg>
